<svg xmlns="http://www.w3.org/2000/svg" viewBox="0 0 108.83 108.83"><defs><style>.cls-1{fill:#ddecdb;}.cls-2{fill:#3d663b;}</style></defs><title>authoritative_tag</title><g id="Calque_2" data-name="Calque 2"><g id="authoritative_tag"><circle class="cls-1" cx="54.42" cy="54.42" r="54.42"/><path class="cls-2" d="M55.19,84.61a30.81,30.81,0,0,1-31-31.13A31.29,31.29,0,0,1,55.15,22.6c16.94-.15,31.13,14,31.25,31.07A30.88,30.88,0,0,1,55.19,84.61ZM28.28,52.93A27,27,0,0,0,54.92,80.71C69.65,81,81.74,69.37,82.45,54.17,83.09,40.2,70.69,27,56.4,26.55A27.17,27.17,0,0,0,28.28,52.93Z"/><path class="cls-2" d="M48.45,65,66.87,45.87c.7-.72,1.39-1.44,2.12-2.12,1.09-1,2.26-2.4,3.8-1s.1,2.73-.89,3.73C67.11,51.37,62.26,56.18,57.42,61c-2.48,2.47-5,4.88-7.46,7.38-1.14,1.16-2.05,1.33-3.29.06-3.12-3.23-6.39-6.32-9.52-9.55-.86-.9-2-2-.5-3.38s2.45-.24,3.38.71C42.59,58.83,45.1,61.5,48.45,65Z"/></g></g></svg>