<svg width="80" height="80" viewBox="0 0 80 80" fill="none" xmlns="http://www.w3.org/2000/svg">
<path d="M40.5417 65.708H39.4575C38.3839 65.7038 37.3551 65.2782 36.5919 64.5229C36.177 64.1092 35.616 63.875 35.0304 63.8709H17.0365C16.3058 63.8709 15.6045 63.5806 15.0879 63.0639C14.5713 62.5472 14.2809 61.846 14.2809 61.1154V29.885C14.2809 29.1543 14.5713 28.453 15.0879 27.9364C15.6046 27.4198 16.3059 27.1294 17.0365 27.1294H18.8736C19.1172 27.1294 19.3509 27.2262 19.5231 27.3984C19.6953 27.5707 19.7921 27.8044 19.7921 28.048V58.3598H36.3258C37.7714 58.3598 39.1327 59.0405 40 60.1969C40.8673 59.0405 42.2286 58.3598 43.6742 58.3598H60.2079V28.048C60.2079 27.5407 60.6192 27.1294 61.1264 27.1294H62.9635C63.6942 27.1294 64.3955 27.4197 64.9121 27.9364C65.4286 28.4531 65.7191 29.1544 65.7191 29.885V61.1154C65.7191 61.8461 65.4287 62.5473 64.9121 63.0639C64.3954 63.5805 63.6941 63.8709 62.9635 63.8709H44.9696C44.384 63.8751 43.823 64.1092 43.408 64.5229C42.6449 65.2783 41.6161 65.7039 40.5425 65.708H40.5417ZM17.0365 28.9664C16.5293 28.9664 16.118 29.3777 16.118 29.8849V61.1153C16.118 61.3589 16.2147 61.5926 16.387 61.7648C16.5592 61.9371 16.7929 62.0338 17.0365 62.0338H35.0304C36.104 62.038 37.1328 62.4636 37.896 63.2189C38.3109 63.6327 38.8719 63.8668 39.4575 63.8709H40.5417C41.1272 63.8667 41.6882 63.6327 42.1032 63.2189C42.8663 62.4636 43.8951 62.0379 44.9687 62.0338H62.9627C63.2062 62.0338 63.44 61.937 63.6122 61.7648C63.7844 61.5926 63.8812 61.3589 63.8812 61.1153V29.8849C63.8812 29.6414 63.7844 29.4076 63.6122 29.2354C63.44 29.0632 63.2062 28.9664 62.9627 28.9664H62.0441V59.2782C62.0441 59.5218 61.9473 59.7555 61.7751 59.9278C61.6029 60.1 61.3692 60.1968 61.1256 60.1968H43.6733C42.9426 60.1968 42.2413 60.4871 41.7248 61.0038C41.2082 61.5204 40.9177 62.2217 40.9177 62.9523C40.9177 63.4596 40.5065 63.8709 39.9992 63.8709C39.492 63.8709 39.0807 63.4596 39.0807 62.9523C39.0807 62.2216 38.7903 61.5203 38.2737 61.0038C37.757 60.4872 37.0557 60.1968 36.3251 60.1968H18.8728C18.3656 60.1968 17.9543 59.7855 17.9543 59.2782V28.9664H17.0365Z" fill="#418FDE"/>
<path d="M40 63.8709C39.4927 63.8709 39.0815 63.4596 39.0815 62.9524V29.8849C39.0815 28.667 39.5653 27.4988 40.4264 26.6372C41.2879 25.7761 42.4562 25.2922 43.6742 25.2922H61.1264C61.37 25.2922 61.6037 25.389 61.7759 25.5612C61.9482 25.7335 62.045 25.9672 62.045 26.2108V59.2782C62.045 59.5218 61.9482 59.7555 61.7759 59.9278C61.6037 60.1 61.37 60.1968 61.1264 60.1968H43.6742C42.9434 60.1968 42.2422 60.4871 41.7256 61.0038C41.209 61.5204 40.9186 62.2217 40.9186 62.9523C40.9186 63.1959 40.8218 63.4296 40.6496 63.6019C40.4774 63.7741 40.2436 63.8709 40 63.8709L40 63.8709ZM43.6742 27.1293C42.9434 27.1293 42.2422 27.4196 41.7256 27.9363C41.209 28.453 40.9186 29.1542 40.9186 29.8849V59.2782C41.7137 58.6819 42.6806 58.3596 43.6742 58.3596H60.2079V27.1293L43.6742 27.1293Z" fill="#418FDE"/>
<path d="M40 63.8709C39.4928 63.8709 39.0815 63.4596 39.0815 62.9524C39.0815 62.2217 38.7911 61.5204 38.2745 61.0038C37.7578 60.4872 37.0565 60.1968 36.3259 60.1968H18.8736C18.3664 60.1968 17.9551 59.7855 17.9551 59.2783V26.2108C17.9551 25.7036 18.3664 25.2923 18.8736 25.2923H36.3259C37.5438 25.2923 38.712 25.7762 39.5736 26.6373C40.4348 27.4988 40.9186 28.6671 40.9186 29.885V62.9524C40.9186 63.196 40.8218 63.4298 40.6496 63.602C40.4774 63.7742 40.2436 63.871 40.0001 63.871L40 63.8709ZM19.7921 58.3597H36.3258C37.3194 58.3597 38.2864 58.682 39.0815 59.2782V29.8849C39.0815 29.1542 38.7911 28.453 38.2745 27.9364C37.7578 27.4198 37.0565 27.1294 36.3259 27.1294H19.7922L19.7921 58.3597Z" fill="#418FDE"/>
<path d="M50.1039 42.9649L49.7275 42.7902C49.5159 42.7443 44.5927 40.402 44.5927 35.3316C44.5927 33.3629 45.6433 31.5434 47.3483 30.5589C49.0534 29.5743 51.1546 29.5743 52.8596 30.5589C54.5646 31.5434 55.6152 33.3629 55.6152 35.3316C55.6152 40.402 50.692 42.6799 50.4804 42.7902L50.1039 42.9649ZM50.1039 31.722C49.1407 31.722 48.2156 32.1001 47.5284 32.7754C46.8411 33.4504 46.4466 34.3686 46.4298 35.3318C46.4298 38.5377 49.0845 40.3468 50.1039 40.9259C51.1143 40.3473 53.7781 38.5377 53.7781 35.3318C53.7613 34.3686 53.3668 33.4504 52.6795 32.7754C51.9923 32.1001 51.0672 31.722 50.1039 31.722Z" fill="#418FDE"/>
<path d="M50.1039 37.1503C49.6119 37.1499 49.1407 36.9523 48.7958 36.6017C48.451 36.2506 48.2611 35.7766 48.2689 35.2845C48.2767 34.7929 48.4813 34.3246 48.8368 33.985C49.1928 33.6451 49.6697 33.4622 50.1613 33.477C50.653 33.4922 51.1184 33.7037 51.4526 34.0642C51.7873 34.425 51.9632 34.9048 51.941 35.3961C51.9197 35.8689 51.7167 36.3151 51.3747 36.6419C51.0323 36.9687 50.5771 37.1512 50.104 37.1503L50.1039 37.1503ZM50.1039 35.3132V35.3961V35.3132Z" fill="#418FDE"/>
<path d="M51.4823 55.604H28.9775C27.3368 55.604 25.8205 54.7286 25.0003 53.3077C24.1798 51.8868 24.1798 50.1358 25.0003 48.715C25.8204 47.2941 27.3368 46.4186 28.9775 46.4186H31.7331C33.0458 46.4186 34.2588 45.7183 34.9152 44.5816C35.5713 43.4449 35.5713 42.0441 34.9152 40.9074C34.2587 39.7707 33.0457 39.0703 31.7331 39.0703H22.5477C22.0405 39.0703 21.6292 38.659 21.6292 38.1518C21.6292 37.6445 22.0405 37.2332 22.5477 37.2332H31.7331C33.7023 37.2332 35.5217 38.2838 36.5059 39.9889C37.4904 41.6939 37.4904 43.7951 36.5059 45.5001C35.5217 47.2051 33.7023 48.2557 31.7331 48.2557H28.9775C27.993 48.2557 27.0834 48.781 26.591 49.6335C26.0989 50.4861 26.0989 51.5366 26.591 52.3892C27.0835 53.2417 27.9929 53.767 28.9775 53.767H51.4823C52.9589 53.767 54.3236 52.9792 55.0622 51.7002C55.8003 50.4212 55.8003 48.8458 55.0622 47.5668C54.3236 46.2877 52.959 45.5 51.4823 45.5H49.1859C48.6787 45.5 48.2674 45.0887 48.2674 44.5815C48.2674 44.0742 48.6787 43.6629 49.1859 43.6629H51.4823C53.6154 43.6629 55.5862 44.8009 56.6528 46.6482C57.7193 48.4956 57.7193 50.7714 56.6528 52.6187C55.5862 54.4661 53.6154 55.604 51.4823 55.604Z" fill="#418FDE"/>
<path d="M73.0048 10.8401H6.99591C4.93534 10.8401 3.25856 12.5169 3.25856 14.5774V65.4226C3.25856 67.4836 4.93534 69.1599 6.99591 69.1599H73.0038C75.0648 69.1599 76.7414 67.4836 76.7414 65.4226V14.5774C76.7414 12.5169 75.0647 10.8401 73.0041 10.8401H73.0048ZM6.99591 12.0067H73.0038C74.4218 12.0067 75.5752 13.1597 75.5752 14.5773V20.4822H4.42463V14.5773C4.42463 13.1597 5.5781 12.0067 6.9957 12.0067H6.99591ZM73.0048 67.9935H6.99591C5.57832 67.9935 4.42484 66.8401 4.42484 65.4225V21.6485H75.5755V65.4225C75.5759 66.8401 74.4224 67.9935 73.0048 67.9935Z" fill="#418FDE"/>
<path d="M71.677 19.4083C72.9954 19.4083 74.0681 18.3356 74.0681 17.0173C74.0681 15.6989 72.9953 14.6263 71.677 14.6263C70.3586 14.6263 69.286 15.6986 69.286 17.0173C69.286 18.3357 70.3583 19.4083 71.677 19.4083ZM71.677 15.7924C72.3524 15.7924 72.9019 16.3419 72.9019 17.0169C72.9019 17.6922 72.3524 18.2417 71.677 18.2417C71.0017 18.2417 70.4522 17.6922 70.4522 17.0169C70.4522 16.3419 71.0017 15.7924 71.677 15.7924Z" fill="#418FDE"/>
<path d="M65.0478 19.4083C66.3662 19.4083 67.4388 18.3356 67.4388 17.0173C67.4388 15.6989 66.3661 14.6263 65.0478 14.6263C63.7295 14.6263 62.6568 15.6986 62.6568 17.0173C62.6568 18.3357 63.7295 19.4083 65.0478 19.4083ZM65.0478 15.7924C65.7232 15.7924 66.2726 16.3419 66.2726 17.0169C66.2726 17.6922 65.7232 18.2417 65.0478 18.2417C64.3724 18.2417 63.8229 17.6922 63.8229 17.0169C63.8229 16.3419 64.3724 15.7924 65.0478 15.7924Z" fill="#418FDE"/>
<path d="M58.4186 19.4083C59.7369 19.4083 60.8096 18.3356 60.8096 17.0173C60.8096 15.6989 59.7369 14.6263 58.4186 14.6263C57.1003 14.6263 56.0275 15.6986 56.0275 17.0173C56.0275 18.3357 57.1003 19.4083 58.4186 19.4083ZM58.4186 15.7924C59.0939 15.7924 59.6434 16.3419 59.6434 17.0169C59.6434 17.6922 59.0939 18.2417 58.4186 18.2417C57.7432 18.2417 57.1937 17.6922 57.1937 17.0169C57.1937 16.3419 57.7432 15.7924 58.4186 15.7924Z" fill="#418FDE"/>
</svg>
