<svg width="80" height="80" viewBox="0 0 80 80" fill="none" xmlns="http://www.w3.org/2000/svg">
<path d="M73.0048 10.8401H6.9959C4.93532 10.8401 3.25854 12.5169 3.25854 14.5774V65.4226C3.25854 67.4836 4.93532 69.1599 6.9959 69.1599H73.0037C75.0647 69.1599 76.7414 67.4836 76.7414 65.4226V14.5774C76.7414 12.5169 75.0646 10.8401 73.0041 10.8401H73.0048ZM6.9959 12.0067H73.0037C74.4218 12.0067 75.5752 13.1597 75.5752 14.5773V20.4822H4.42462V14.5773C4.42462 13.1597 5.57809 12.0067 6.99569 12.0067H6.9959ZM73.0048 67.9935H6.9959C5.5783 67.9935 4.42483 66.8401 4.42483 65.4225V21.6485H75.5754V65.4225C75.5759 66.8401 74.4224 67.9935 73.0048 67.9935Z" fill="#418FDE"/>
<path d="M71.677 19.4083C72.9954 19.4083 74.068 18.3356 74.068 17.0173C74.068 15.6989 72.9953 14.6263 71.677 14.6263C70.3586 14.6263 69.286 15.6986 69.286 17.0173C69.286 18.3357 70.3583 19.4083 71.677 19.4083ZM71.677 15.7924C72.3524 15.7924 72.9019 16.3419 72.9019 17.0169C72.9019 17.6922 72.3524 18.2417 71.677 18.2417C71.0016 18.2417 70.4522 17.6922 70.4522 17.0169C70.4522 16.3419 71.0016 15.7924 71.677 15.7924Z" fill="#418FDE"/>
<path d="M65.0478 19.4083C66.3662 19.4083 67.4388 18.3356 67.4388 17.0173C67.4388 15.6989 66.3661 14.6263 65.0478 14.6263C63.7295 14.6263 62.6567 15.6986 62.6567 17.0173C62.6567 18.3357 63.7295 19.4083 65.0478 19.4083ZM65.0478 15.7924C65.7232 15.7924 66.2726 16.3419 66.2726 17.0169C66.2726 17.6922 65.7232 18.2417 65.0478 18.2417C64.3724 18.2417 63.8229 17.6922 63.8229 17.0169C63.8229 16.3419 64.3724 15.7924 65.0478 15.7924Z" fill="#418FDE"/>
<path d="M58.4185 19.4083C59.7369 19.4083 60.8096 18.3356 60.8096 17.0173C60.8096 15.6989 59.7368 14.6263 58.4185 14.6263C57.1002 14.6263 56.0275 15.6986 56.0275 17.0173C56.0275 18.3357 57.1002 19.4083 58.4185 19.4083ZM58.4185 15.7924C59.0939 15.7924 59.6434 16.3419 59.6434 17.0169C59.6434 17.6922 59.0939 18.2417 58.4185 18.2417C57.7432 18.2417 57.1937 17.6922 57.1937 17.0169C57.1937 16.3419 57.7432 15.7924 58.4185 15.7924Z" fill="#418FDE"/>
<path d="M35.3011 43.1439L27.2608 58.7002C27.009 59.1862 26.4127 59.3768 25.9247 59.127C25.7341 59.0276 25.5892 58.8752 25.498 58.6961L17.1106 42.4728C17.0895 42.4327 17.0725 42.3925 17.0575 42.353C16.7832 41.7241 16.5715 41.0721 16.4306 40.4036C16.2836 39.7155 16.2074 39.0084 16.2074 38.2882C16.2074 36.1919 16.8417 34.2425 17.9301 32.624L16.3388 31.6595L8.94855 36.1497V62.7196H67.6273L53.6528 54.2539C53.6262 54.2403 53.6031 54.2274 53.5786 54.2104L35.3026 43.1434L35.3011 43.1439ZM8.94904 34.9928L15.3851 31.082L8.94904 27.1827V34.9928ZM10.6526 26.6742L18.7405 31.5719C18.8855 31.4079 19.0339 31.25 19.1884 31.0955C21.0275 29.2545 23.5715 28.117 26.3805 28.117C29.1873 28.117 31.7315 29.255 33.5726 31.0955C35.4117 32.9365 36.551 35.4787 36.551 38.2876C36.551 39.0077 36.4748 39.7149 36.3278 40.4031C36.3142 40.4643 36.3012 40.5249 36.2876 40.5861L60.7823 26.6741H10.6517L10.6526 26.6742ZM61.5743 26.6742C61.5974 26.6987 61.6179 26.7294 61.6355 26.76C61.771 26.9982 61.6873 27.3011 61.449 27.4345L35.8863 41.9543L53.9044 52.8667L62.0059 46.4402V46.4423C62.1352 46.3396 62.3013 46.2844 62.4783 46.3014L71.0561 47.1263V26.674H61.575L61.5743 26.6742ZM71.0554 48.4525L62.6183 47.6405L55.1096 53.596L70.1725 62.7191H71.0546V48.4525L71.0554 48.4525ZM70.1842 64.0435C70.0835 64.0666 69.9766 64.068 69.8752 64.0435H8.28482C7.91864 64.0435 7.62189 63.7461 7.62189 63.3806V26.0113C7.62189 25.6451 7.91932 25.3497 8.28482 25.3497H71.7152C72.0813 25.3497 72.3781 25.6451 72.3781 26.0113V63.3806C72.3781 63.7467 72.0807 64.0435 71.7152 64.0435H70.1842ZM26.38 32.2094C27.9577 32.2094 29.387 32.8499 30.4222 33.8844C31.4554 34.919 32.0952 36.3484 32.0952 37.9266C32.0952 39.5043 31.4567 40.9337 30.4222 41.9688C29.3876 43.002 27.9583 43.6418 26.38 43.6418C24.8003 43.6418 23.3709 43.0013 22.3378 41.9688C21.3033 40.9343 20.6628 39.5049 20.6628 37.9266C20.6628 36.3489 21.3033 34.9196 22.3378 33.8844C23.371 32.8499 24.8004 32.2094 26.38 32.2094ZM29.4843 34.8202C28.6893 34.0252 27.5922 33.5338 26.38 33.5338C25.1658 33.5338 24.0685 34.0252 23.2737 34.8202C22.4788 35.6152 21.9873 36.7123 21.9873 37.9266C21.9873 39.1388 22.4787 40.2366 23.2737 41.0308C24.0686 41.8258 25.1657 42.3172 26.38 42.3172C27.5922 42.3172 28.6901 41.8258 29.4843 41.0308C30.2792 40.2359 30.7706 39.1388 30.7706 37.9266C30.7706 36.7123 30.2792 35.6151 29.4843 34.8202ZM26.38 56.088L33.8866 41.5642C34.1017 41.0728 34.2698 40.5466 34.3876 39.9919C34.5019 39.4468 34.5632 38.8791 34.5632 38.2883C34.5632 36.0279 33.6484 33.9834 32.166 32.5024C30.6849 31.02 28.6383 30.1052 26.38 30.1052C24.1196 30.1052 22.0729 31.0199 20.5919 32.5024C19.1108 33.9834 18.1947 36.0279 18.1947 38.2883C18.1947 38.8791 18.2559 39.4468 18.3703 39.9919C18.4867 40.5426 18.6562 41.0687 18.8699 41.5587L26.3805 56.0881L26.38 56.088Z" fill="#418FDE"/>
</svg>
