<svg width="80" height="80" viewBox="0 0 80 80" fill="none" xmlns="http://www.w3.org/2000/svg">
<path d="M10.1931 57.3054L24.7589 63.068C24.8444 63.1019 24.9356 63.1192 25.0277 63.1192C25.3765 63.1197 25.6767 62.8726 25.742 62.5299C25.8078 62.1872 25.6205 61.8465 25.296 61.7184L23.3074 60.9342L11.1872 56.1369V50.0042C11.1872 49.6038 10.8622 49.2788 10.4613 49.2788C10.0608 49.2788 9.73581 49.6038 9.73581 50.0042V56.6306C9.73529 56.9282 9.91654 57.1955 10.1929 57.3054L10.1931 57.3054Z" fill="#418FDE"/>
<path d="M72.9273 20.0817L51.1545 11.4668H50.6321L29.1133 19.9728L7.60877 11.4668C7.38601 11.3777 7.13289 11.405 6.93394 11.5397C6.73397 11.6748 6.6145 11.9006 6.6145 12.1416V59.2512C6.6145 59.5489 6.79573 59.8162 7.07215 59.9265L28.8449 68.5338C28.9993 68.592 29.1695 68.592 29.3239 68.5338L50.8867 60.0277L72.3912 68.5338C72.4763 68.5677 72.5674 68.5849 72.6595 68.5849C72.8043 68.5849 72.9461 68.5419 73.0661 68.4614C73.266 68.3262 73.3855 68.1004 73.3855 67.859V20.7571C73.3855 20.46 73.2043 20.1922 72.9279 20.0823L72.9273 20.0817ZM28.3877 41.2298L27.3352 41.9558H27.3357C27.0664 42.1294 26.9434 42.4585 27.032 42.7663C27.1205 43.0741 27.4 43.2872 27.72 43.2912C27.8592 43.2907 27.9953 43.2502 28.1123 43.1748L28.3877 42.9642V66.7912L8.06641 58.757V13.2078L28.3877 21.2491V41.2298ZM50.1605 30.6482C49.5793 30.5905 48.9931 30.5905 48.4114 30.6482C48.2185 30.6664 48.0413 30.7611 47.9183 30.9114C47.7958 31.0613 47.7381 31.2542 47.7583 31.4466C47.8004 31.8424 48.1532 32.1305 48.5496 32.0925C49.0852 32.0338 49.6254 32.0338 50.1605 32.0925V58.7279L29.8393 66.7915V42.0211L30.6088 41.5057H30.6082C30.7697 41.3994 30.8816 41.2328 30.9196 41.0435C30.9575 40.8542 30.9191 40.6572 30.8118 40.4967C30.5961 40.1778 30.1698 40.0826 29.8392 40.279V21.2499L50.1605 13.2086L50.1605 30.6482ZM71.9333 66.791L51.612 58.7574V32.3462C51.8383 32.2819 52.02 32.1113 52.098 31.8891C52.2281 31.5104 52.0266 31.0978 51.6479 30.9672V13.2081L71.9329 21.2494L71.9333 66.791Z" fill="#418FDE"/>
<path d="M42.264 20.8294L42.4963 20.7353L46.5312 19.1381V26.2945C46.5312 26.6949 46.8562 27.0199 47.2571 27.0199C47.6581 27.0199 47.9831 26.6949 47.9831 26.2945V18.0715C47.9831 17.83 47.8636 17.6042 47.6637 17.4691C47.4647 17.3349 47.2116 17.3076 46.9888 17.3967L41.7268 19.4793C41.3542 19.6277 41.172 20.0504 41.3203 20.423C41.4686 20.7956 41.8908 20.9778 42.2639 20.8295L42.264 20.8294Z" fill="#418FDE"/>
<path d="M19.3584 46.0354C19.4283 46.0454 19.4992 46.0454 19.569 46.0354C19.97 46.091 20.3406 45.8116 20.3963 45.4112C20.4525 45.0102 20.173 44.6396 19.7726 44.5834C18.9428 44.3126 18.1945 43.8387 17.5951 43.2049C17.3122 42.9234 16.855 42.9234 16.5715 43.2049C16.4343 43.3411 16.3569 43.5264 16.3569 43.7197C16.3569 43.9136 16.4343 44.0989 16.5715 44.2351C17.3304 45.0649 18.2903 45.6851 19.3584 46.0354L19.3584 46.0354Z" fill="#418FDE"/>
<path d="M22.4805 46.0211C22.5549 46.0312 22.6309 46.0312 22.7053 46.0211C23.6849 45.6794 24.6301 45.247 25.5286 44.7291C25.8795 44.5286 26.001 44.0821 25.801 43.7313C25.6005 43.3805 25.1535 43.2585 24.8027 43.4589C23.9891 43.9333 23.1311 44.3272 22.241 44.635C21.9038 44.7458 21.6963 45.084 21.7499 45.4348C21.8041 45.7857 22.1038 46.0459 22.4587 46.0499L22.4805 46.0211Z" fill="#418FDE"/>
<path d="M13.9088 37.9794C13.5321 38.1156 13.3372 38.5312 13.4734 38.9084C13.8146 39.8784 14.2323 40.82 14.7218 41.7242C14.8494 41.9576 15.0944 42.1024 15.3602 42.1014C15.4817 42.1024 15.6017 42.0725 15.7085 42.0143C15.8771 41.9212 16.0016 41.7647 16.0548 41.5794C16.1079 41.3947 16.0851 41.1957 15.992 41.0276C15.5409 40.1797 15.1552 39.2993 14.8378 38.3931C14.6925 38.0251 14.2794 37.8408 13.9088 37.9795L13.9088 37.9794Z" fill="#418FDE"/>
<path d="M60.7346 49.8015C61.2864 50.7194 61.9911 51.537 62.8172 52.2183C62.9458 52.318 63.1048 52.3717 63.2673 52.3707C63.487 52.3712 63.6951 52.2725 63.8333 52.1024C63.9553 51.952 64.012 51.7602 63.9917 51.5678C63.9715 51.3759 63.8753 51.1997 63.7245 51.0787C63.0233 50.5031 62.4269 49.8106 61.9612 49.032C61.8666 48.8543 61.702 48.7237 61.5076 48.672C61.3127 48.6199 61.1052 48.6513 60.9346 48.7581C60.764 48.8654 60.6455 49.0386 60.6075 49.2365C60.5696 49.4339 60.6157 49.639 60.7346 49.8015L60.7346 49.8015Z" fill="#418FDE"/>
<path d="M58.2087 44.2935C58.6293 45.3602 58.9782 46.2386 59.3406 47.0658C59.4566 47.3311 59.7193 47.5022 60.0084 47.5012C60.1056 47.4997 60.2018 47.4799 60.2914 47.4435C60.4691 47.367 60.6088 47.2227 60.6797 47.043C60.7505 46.8628 60.7465 46.6623 60.6691 46.4851C60.3208 45.6508 59.9796 44.816 59.5948 43.7635C59.4485 43.3889 59.0263 43.2036 58.6517 43.3499C58.2766 43.4962 58.0913 43.919 58.2376 44.2936L58.2087 44.2935Z" fill="#418FDE"/>
<path d="M53.8839 34.764C54.1598 35.2576 54.421 35.7436 54.6676 36.2154C54.7926 36.4569 55.0417 36.6078 55.3136 36.6073C55.4295 36.6052 55.5429 36.5779 55.6472 36.5273C56.0031 36.3466 56.1458 35.9117 55.9666 35.5548C55.7054 35.0612 55.4366 34.5605 55.1536 34.0452L55.1541 34.0457C54.9283 33.6356 54.6661 33.2468 54.3699 32.8844C54.1158 32.5735 53.6576 32.528 53.3468 32.7826C53.0359 33.0373 52.9904 33.4954 53.245 33.8057C53.4885 34.1039 53.7027 34.4244 53.8839 34.7641L53.8839 34.764Z" fill="#418FDE"/>
<path d="M55.9666 38.8568C56.3513 39.6987 56.7361 40.5841 57.1279 41.5495C57.2403 41.8229 57.5071 42.0011 57.8027 41.9996C57.8974 42.0006 57.991 41.9834 58.0786 41.9484C58.2568 41.875 58.3986 41.7333 58.472 41.5546C58.5454 41.3764 58.5449 41.1759 58.4705 40.9977C58.0716 40.0105 57.6792 39.1109 57.2803 38.2472C57.1127 37.8857 56.6849 37.7273 56.3225 37.8918C56.1468 37.9723 56.0106 38.1191 55.9438 38.3003C55.8769 38.4816 55.8856 38.6816 55.9666 38.8567V38.8568Z" fill="#418FDE"/>
<path d="M37.6411 36.7236C37.7768 36.7236 37.9099 36.6861 38.0259 36.6142C38.9402 36.0483 39.7678 35.5617 40.5587 35.1193C40.9075 34.9188 41.0274 34.4738 40.827 34.125C40.6265 33.7762 40.1815 33.6562 39.8327 33.8567C39.0273 34.3068 38.1777 34.8004 37.2487 35.3811L37.2492 35.3806C36.9743 35.5512 36.8453 35.8828 36.9328 36.1941C37.0204 36.5054 37.3029 36.7211 37.6264 36.7236L37.6411 36.7236Z" fill="#418FDE"/>
<path d="M32.6697 39.9675C32.815 39.9654 32.9567 39.9199 33.0757 39.8369C33.8811 39.2927 34.7089 38.7408 35.536 38.1967C35.8372 37.9658 35.9096 37.5416 35.7026 37.2241C35.495 36.9062 35.0779 36.8019 34.7453 36.9847C33.8938 37.536 33.066 38.0878 32.2632 38.6392C31.9979 38.8174 31.8804 39.1485 31.9741 39.4542C32.0672 39.7595 32.3497 39.9681 32.6697 39.9676V39.9675Z" fill="#418FDE"/>
<path d="M45.3627 31.3309C44.3963 31.6504 43.4506 32.0311 42.5322 32.4705C42.2285 32.6173 42.0665 32.9545 42.1409 33.2835C42.2153 33.6131 42.5069 33.8475 42.8446 33.849C42.9494 33.8485 43.0532 33.8262 43.1494 33.7837C44.0125 33.3731 44.8995 33.0142 45.8057 32.7099C45.9899 32.6502 46.1428 32.5191 46.2304 32.3459C46.3175 32.1728 46.3316 31.9718 46.2699 31.7881C46.1423 31.4139 45.7393 31.2109 45.3627 31.3309L45.3627 31.3309Z" fill="#418FDE"/>
<path d="M65.7203 53.6766C66.2179 53.8148 66.7247 53.9191 67.237 53.9889H67.3387C67.7392 54.0168 68.087 53.7145 68.1153 53.3141C68.1432 52.9132 67.8409 52.5654 67.44 52.5375C66.997 52.4808 66.5581 52.3937 66.1267 52.2763C65.74 52.1659 65.337 52.3902 65.2266 52.777C65.1163 53.1638 65.3405 53.5667 65.7273 53.6766L65.7203 53.6766Z" fill="#418FDE"/>
<path d="M9.9469 37.3625C10.0836 37.4982 10.2689 37.5741 10.4618 37.5731C10.6526 37.5721 10.8349 37.4967 10.97 37.3625L12.5597 35.7728C12.5597 35.8452 12.5962 35.9105 12.6103 35.9905V35.991C12.6893 36.3257 12.9921 36.5591 13.3363 36.5494C13.3915 36.557 13.4477 36.557 13.5029 36.5494C13.6892 36.5064 13.8507 36.392 13.9529 36.2305L15.0996 37.3842C15.2358 37.5214 15.4216 37.5989 15.615 37.5989C15.8084 37.5989 15.9941 37.5214 16.1303 37.3842C16.2675 37.2481 16.345 37.0623 16.345 36.8689C16.345 36.6755 16.2675 36.4902 16.1303 36.3535L14.0764 34.2996L16.1303 32.2457C16.4118 31.9627 16.4118 31.5056 16.1303 31.2226C15.9941 31.0849 15.8084 31.0079 15.615 31.0079C15.4216 31.0079 15.2358 31.0849 15.0996 31.2226L13.0457 33.2765L10.97 31.2008C10.682 30.9543 10.2527 30.9705 9.98485 31.2388C9.71654 31.5071 9.70034 31.9359 9.94688 32.2239L12.0008 34.2778L9.94688 36.3317C9.80918 36.4684 9.73224 36.6537 9.73224 36.8471C9.73224 37.0405 9.80919 37.2263 9.94688 37.3625L9.9469 37.3625Z" fill="#418FDE"/>
<path d="M39.2741 47.2251C37.9269 47.2251 36.6345 47.7602 35.6817 48.7129C34.7289 49.6657 34.1939 50.9576 34.1939 52.3053C34.1939 53.6525 34.729 54.9448 35.6817 55.8977C36.6345 56.8504 37.9269 57.3855 39.2741 57.3855C40.6217 57.3855 41.9137 56.8504 42.8665 55.8977C43.8192 54.9449 44.3548 53.6525 44.3548 52.3053C44.3548 50.9577 43.8192 49.6657 42.8665 48.7129C41.9137 47.7601 40.6218 47.2251 39.2741 47.2251ZM39.2741 55.9341C38.3117 55.9341 37.3888 55.5519 36.7084 54.871C36.028 54.1906 35.6453 53.2677 35.6453 52.3053C35.6453 51.3429 36.028 50.42 36.7084 49.7391C37.3888 49.0587 38.3117 48.6764 39.2741 48.6764C40.2365 48.6764 41.1599 49.0587 41.8403 49.7391C42.5207 50.42 42.9029 51.3429 42.9029 52.3053C42.9029 53.2677 42.5207 54.1906 41.8403 54.871C41.1599 55.5519 40.2365 55.9341 39.2741 55.9341Z" fill="#418FDE"/>
</svg>
