<svg width="80" height="80" viewBox="0 0 80 80" fill="none" xmlns="http://www.w3.org/2000/svg">
<path d="M73.0048 10.8401H6.99592C4.93534 10.8401 3.25856 12.5169 3.25856 14.5774V65.4226C3.25856 67.4836 4.93534 69.1599 6.99592 69.1599H73.0038C75.0648 69.1599 76.7414 67.4836 76.7414 65.4226V14.5774C76.7414 12.5169 75.0647 10.8401 73.0041 10.8401H73.0048ZM6.99592 12.0067H73.0038C74.4218 12.0067 75.5753 13.1597 75.5753 14.5773V20.4822H4.42463V14.5773C4.42463 13.1597 5.57811 12.0067 6.99571 12.0067H6.99592ZM73.0048 67.9935H6.99592C5.57832 67.9935 4.42484 66.8401 4.42484 65.4225V21.6485H75.5755V65.4225C75.5759 66.8401 74.4224 67.9935 73.0048 67.9935Z" fill="#418FDE"/>
<path d="M71.677 19.4083C72.9954 19.4083 74.0681 18.3356 74.0681 17.0173C74.0681 15.6989 72.9953 14.6263 71.677 14.6263C70.3586 14.6263 69.286 15.6986 69.286 17.0173C69.286 18.3357 70.3583 19.4083 71.677 19.4083ZM71.677 15.7924C72.3524 15.7924 72.9019 16.3419 72.9019 17.0169C72.9019 17.6922 72.3524 18.2417 71.677 18.2417C71.0017 18.2417 70.4522 17.6922 70.4522 17.0169C70.4522 16.3419 71.0017 15.7924 71.677 15.7924Z" fill="#418FDE"/>
<path d="M65.0478 19.4083C66.3662 19.4083 67.4388 18.3356 67.4388 17.0173C67.4388 15.6989 66.3661 14.6263 65.0478 14.6263C63.7295 14.6263 62.6568 15.6986 62.6568 17.0173C62.6568 18.3357 63.7295 19.4083 65.0478 19.4083ZM65.0478 15.7924C65.7232 15.7924 66.2727 16.3419 66.2727 17.0169C66.2727 17.6922 65.7232 18.2417 65.0478 18.2417C64.3724 18.2417 63.8229 17.6922 63.8229 17.0169C63.8229 16.3419 64.3724 15.7924 65.0478 15.7924Z" fill="#418FDE"/>
<path d="M58.4186 19.4083C59.737 19.4083 60.8096 18.3356 60.8096 17.0173C60.8096 15.6989 59.7369 14.6263 58.4186 14.6263C57.1003 14.6263 56.0275 15.6986 56.0275 17.0173C56.0275 18.3357 57.1003 19.4083 58.4186 19.4083ZM58.4186 15.7924C59.0939 15.7924 59.6434 16.3419 59.6434 17.0169C59.6434 17.6922 59.0939 18.2417 58.4186 18.2417C57.7432 18.2417 57.1937 17.6922 57.1937 17.0169C57.1937 16.3419 57.7432 15.7924 58.4186 15.7924Z" fill="#418FDE"/>
<path d="M29.5124 43.9424C29.6834 43.7718 29.726 43.5208 29.6403 43.3105C29.612 43.2403 29.569 43.1743 29.512 43.1177L22.2604 35.8654V25.6093C22.2604 25.2874 21.9992 25.0262 21.6773 25.0262C15.5674 25.0262 10.5971 29.997 10.5971 36.1064C10.5971 41.2072 14.0626 45.5117 18.7618 46.7951V50.6865H13.513C13.1911 50.6865 12.9299 50.9478 12.9299 51.2697C12.9299 51.5916 13.1911 51.8528 13.513 51.8528H19.345C19.6669 51.8528 19.9281 51.5916 19.9281 51.2697V47.048C20.4985 47.1391 21.0824 47.1875 21.6778 47.1875C24.6376 47.1875 27.4203 46.0348 29.5129 43.9418L29.5124 43.9424ZM11.763 36.1069C11.763 30.8359 15.8981 26.5143 21.0945 26.2108V36.1069C21.0945 36.2615 21.156 36.4099 21.265 36.5194L28.2627 43.5171C26.4461 45.1352 24.1302 46.0213 21.6776 46.0213C16.2107 46.0213 11.7631 41.5738 11.7631 36.1068L11.763 36.1069Z" fill="#418FDE"/>
<path d="M30.4372 41.1269C30.5512 41.2409 30.7005 41.2979 30.8497 41.2979C30.999 41.2979 31.1483 41.2409 31.2623 41.1269C33.0436 39.3456 34.0248 36.9776 34.0248 34.4581C34.0248 33.3255 33.8239 32.2392 33.4561 31.2322L34.7756 29.6924H40.3393C40.6612 29.6924 40.9224 29.4312 40.9224 29.1093C40.9224 28.7874 40.6612 28.5262 40.3393 28.5262H34.5074C34.3372 28.5262 34.1752 28.6004 34.0645 28.7296L32.9295 30.0541C31.3446 27.0672 28.2035 25.0267 24.593 25.0267C24.2711 25.0267 24.0098 25.2879 24.0098 25.6098V34.4581C24.0098 34.6127 24.0713 34.7611 24.1804 34.8706L30.4372 41.1269ZM25.1761 26.213C29.4621 26.5132 32.8579 30.0963 32.8579 34.4577C32.8579 36.4699 32.1435 38.3722 30.835 39.875L25.1761 34.2162V26.213Z" fill="#418FDE"/>
<path d="M17.5944 53.6033H11.7625C11.4406 53.6033 11.1794 53.8645 11.1794 54.1864C11.1794 54.5083 11.4406 54.7695 11.7625 54.7695H17.5944C17.9163 54.7695 18.1776 54.5083 18.1776 54.1864C18.178 53.8645 17.9168 53.6033 17.5944 53.6033Z" fill="#418FDE"/>
<path d="M35.6734 32.0245C35.6734 32.3464 35.9346 32.6076 36.2565 32.6076H41.5053C41.8272 32.6076 42.0884 32.3464 42.0884 32.0245C42.0884 31.7026 41.8272 31.4413 41.5053 31.4413H36.2565C35.9346 31.4409 35.6734 31.7021 35.6734 32.0245Z" fill="#418FDE"/>
<path d="M68.9162 44.8557H45.5884V26.7767C45.5884 26.4548 45.3272 26.1936 45.0053 26.1936C44.6834 26.1936 44.4222 26.4548 44.4222 26.7767V45.4393C44.4222 45.7612 44.6834 46.0225 45.0053 46.0225H68.9167C69.2386 46.0225 69.4998 45.7612 69.4998 45.4393C69.4998 45.1174 69.2386 44.8562 68.9167 44.8562L68.9162 44.8557Z" fill="#418FDE"/>
<path d="M67.7499 28.5256C66.785 28.5256 66.0002 29.3105 66.0002 30.2753C66.0002 30.6194 66.1014 30.9396 66.2733 31.2103L61.8942 36.7843C61.7183 36.724 61.5309 36.6904 61.3349 36.6904C60.9674 36.6904 60.6267 36.8048 60.345 36.9988L56.5962 34.2722C56.6433 34.1143 56.6692 33.947 56.6692 33.774C56.6692 32.8091 55.8843 32.0243 54.9194 32.0243C53.9545 32.0243 53.1697 32.8091 53.1697 33.774C53.1697 34.0733 53.2455 34.3551 53.3784 34.6019L49.7653 38.5762C49.5566 38.488 49.3278 38.4392 49.0875 38.4392C48.1226 38.4392 47.3378 39.2241 47.3378 40.189C47.3378 41.1538 48.1226 41.9387 49.0875 41.9387C50.0524 41.9387 50.8372 41.1538 50.8372 40.189C50.8372 39.8896 50.7614 39.6079 50.6285 39.3611L54.2416 35.3868C54.4503 35.4749 54.6791 35.5237 54.9194 35.5237C55.2868 35.5237 55.6276 35.4093 55.9093 35.2154L59.6581 37.9419C59.6114 38.0998 59.5851 38.2667 59.5851 38.4397C59.5851 39.4046 60.37 40.1895 61.3349 40.1895C62.2997 40.1895 63.0846 39.4046 63.0846 38.4397C63.0846 38.0957 62.9833 37.7754 62.8115 37.5048L67.1906 31.9312C67.3665 31.9906 67.5543 32.0247 67.7503 32.0247C68.7152 32.0247 69.5 31.2398 69.5 30.2749C69.4996 29.3105 68.7148 28.5256 67.7499 28.5256L67.7499 28.5256ZM49.0873 40.7721C48.7658 40.7721 48.5041 40.5105 48.5041 40.189C48.5041 39.8675 48.7658 39.6059 49.0873 39.6059C49.4087 39.6059 49.6704 39.8675 49.6704 40.189C49.6708 40.5105 49.4092 40.7721 49.0873 40.7721ZM54.3361 33.774C54.3361 33.4525 54.5977 33.1909 54.9192 33.1909C55.2407 33.1909 55.5023 33.4525 55.5023 33.774C55.5023 34.0955 55.2407 34.3571 54.9192 34.3571C54.5977 34.3571 54.3361 34.0955 54.3361 33.774ZM61.3346 39.0228C61.0131 39.0228 60.7515 38.7612 60.7515 38.4397C60.7515 38.1182 61.0131 37.8566 61.3346 37.8566C61.6561 37.8566 61.9177 38.1182 61.9177 38.4397C61.9177 38.7612 61.6561 39.0228 61.3346 39.0228ZM67.7496 30.8576C67.4281 30.8576 67.1665 30.596 67.1665 30.2745C67.1665 29.953 67.4281 29.6914 67.7496 29.6914C68.0711 29.6914 68.3327 29.953 68.3327 30.2745C68.3331 30.5964 68.0715 30.8576 67.7496 30.8576Z" fill="#418FDE"/>
<path d="M63.6674 51.2697H34.5071C34.1852 51.2697 33.924 51.5309 33.924 51.8528C33.924 52.1747 34.1852 52.4359 34.5071 52.4359H63.6674C63.9893 52.4359 64.2505 52.1747 64.2505 51.8528C64.2505 51.5309 63.9893 51.2697 63.6674 51.2697Z" fill="#418FDE"/>
<path d="M28.6757 56.5185C28.6757 56.8404 28.9369 57.1016 29.2588 57.1016H38.0067C38.3286 57.1016 38.5898 56.8404 38.5898 56.5185C38.5898 56.1966 38.3286 55.9354 38.0067 55.9354H29.2588C28.9365 55.9354 28.6757 56.1966 28.6757 56.5185Z" fill="#418FDE"/>
<path d="M63.6674 55.9359H42.6722C42.3503 55.9359 42.0891 56.1971 42.0891 56.519C42.0891 56.8409 42.3503 57.1021 42.6722 57.1021H63.6674C63.9893 57.1021 64.2505 56.8409 64.2505 56.519C64.2505 56.1971 63.9893 55.9359 63.6674 55.9359Z" fill="#418FDE"/>
<path d="M63.6674 60.6021H29.2583C28.9364 60.6021 28.6752 60.8633 28.6752 61.1852C28.6752 61.5071 28.9364 61.7683 29.2583 61.7683H63.6674C63.9893 61.7683 64.2505 61.5071 64.2505 61.1852C64.2505 60.8633 63.9893 60.6021 63.6674 60.6021Z" fill="#418FDE"/>
</svg>
