<svg width="80" height="80" viewBox="0 0 80 80" fill="none" xmlns="http://www.w3.org/2000/svg">
<path fill-rule="evenodd" clip-rule="evenodd" d="M45.6 62.08L57.12 67.2C58.08 67.68 58.56 67.68 59.68 67.2L71.2 62.08C71.84 61.76 72 60.64 72 59.84C71.2 60.16 70.24 60.8 70.24 60.8L58.56 66.24L46.88 60.8C46.88 60.8 45.92 60.32 45.12 59.84C44.96 60.48 45.12 61.76 45.6 62.08ZM58.4 71.52L46.72 66.08C46.72 66.08 45.76 65.6 44.96 65.12C44.96 65.76 45.12 67.04 45.76 67.36L57.28 72.48C58.24 72.96 58.72 72.96 59.84 72.48L71.36 67.36C72 67.04 72.16 65.92 72.16 65.12C71.36 65.44 70.4 66.08 70.4 66.08L58.4 71.52ZM58.4 49.12L70.08 55.36L58.4 60.32L46.72 55.36L58.4 49.12ZM45.6 56.64L57.12 61.76C58.08 62.24 58.56 62.24 59.68 61.76L71.2 56.64C72 56.32 72 54.56 71.2 54.08L59.68 48C58.72 47.52 58.08 47.52 57.12 48L45.6 54.08C44.8 54.72 44.8 56.16 45.6 56.64ZM58.4 49.12C58.56 49.12 58.56 49.12 58.4 49.12V49.12Z" fill="#418FDE"/>
<path d="M72.96 10.88H7.04001C4.96001 10.88 3.20001 12.48 3.20001 14.56V65.44C3.20001 67.52 4.80001 69.12 6.88001 69.12H43.52V68H7.04001C5.60001 68 4.48001 66.88 4.48001 65.44V21.6H75.68V65.44C75.68 66.88 74.56 68 73.12 68H72.48V69.12H73.12C75.2 69.12 76.8 67.52 76.8 65.44V14.56C76.8 12.48 75.04 10.88 72.96 10.88ZM75.52 20.48H4.48001V14.56C4.48001 13.12 5.60001 12 7.04001 12H73.12C74.56 12 75.68 13.12 75.68 14.56V20.48H75.52Z" fill="#418FDE"/>
<path d="M71.68 14.56C70.4 14.56 69.28 15.68 69.28 16.96C69.28 18.24 70.4 19.36 71.68 19.36C72.96 19.36 74.08 18.24 74.08 16.96C74.08 15.68 72.96 14.56 71.68 14.56ZM71.68 18.24C71.04 18.24 70.4 17.76 70.4 16.96C70.4 16.32 70.88 15.68 71.68 15.68C72.48 15.68 72.96 16.16 72.96 16.96C72.96 17.76 72.32 18.24 71.68 18.24ZM65.12 14.56C63.84 14.56 62.72 15.68 62.72 16.96C62.72 18.24 63.84 19.36 65.12 19.36C66.4 19.36 67.52 18.24 67.52 16.96C67.36 15.68 66.4 14.56 65.12 14.56ZM65.12 18.24C64.48 18.24 63.84 17.76 63.84 16.96C63.84 16.32 64.32 15.68 65.12 15.68C65.76 15.68 66.4 16.16 66.4 16.96C66.24 17.76 65.76 18.24 65.12 18.24ZM58.4 14.56C57.12 14.56 56 15.68 56 16.96C56 18.24 57.12 19.36 58.4 19.36C59.68 19.36 60.8 18.24 60.8 16.96C60.8 15.68 59.68 14.56 58.4 14.56ZM58.4 18.24C57.76 18.24 57.12 17.76 57.12 16.96C57.12 16.32 57.6 15.68 58.4 15.68C59.2 15.68 59.68 16.16 59.68 16.96C59.68 17.76 59.04 18.24 58.4 18.24ZM8.95999 62.72V36.16L16.32 31.68L17.92 32.64C16.8 34.24 16.16 36.16 16.16 38.24C16.16 39.04 16.16 39.68 16.32 40.32C16.48 40.96 16.64 41.6 16.96 42.24V42.4L25.28 58.56C25.44 58.72 25.44 58.88 25.76 59.04C26.24 59.36 26.88 59.04 27.04 58.56L35.04 43.04L47.52 50.56L48.8 49.76L35.68 41.76L61.28 27.2C61.44 27.04 61.6 26.72 61.44 26.56V26.4H70.88V46.88L62.4 46.24C62.24 46.24 62.08 46.24 61.92 46.4L61.6 46.72L63.36 47.68L70.88 48.48V52.16L72.16 52.96V26.08C72.16 25.76 71.84 25.44 71.52 25.44H8.31999C7.99999 25.44 7.67999 25.76 7.67999 26.08V63.52C7.67999 63.84 7.99999 64.16 8.31999 64.16H43.68V62.88H8.95999V62.72ZM34.4 40C34.24 40.48 34.08 41.12 33.92 41.6L26.4 56.16L18.88 41.6C18.72 41.12 18.56 40.64 18.4 40C18.24 39.52 18.24 38.88 18.24 38.24C18.24 36 19.2 33.92 20.64 32.48C22.08 31.04 24.16 30.08 26.4 30.08C28.64 30.08 30.72 31.04 32.16 32.48C33.6 33.92 34.56 36 34.56 38.24C34.56 38.88 34.56 39.52 34.4 40ZM60.8 26.72L36.32 40.64V40.48C36.48 39.84 36.48 39.04 36.48 38.4C36.48 35.52 35.36 33.12 33.44 31.2C31.52 29.28 29.12 28.16 26.24 28.16C23.36 28.16 20.96 29.28 19.04 31.2L18.56 31.68L10.4 26.72H60.8ZM8.95999 27.2L15.36 31.04L8.95999 34.88V27.2Z" fill="#418FDE"/>
<path d="M26.4 32.16C24.8 32.16 23.36 32.8 22.4 33.76C21.44 34.72 20.8 36.16 20.8 37.76C20.8 39.36 21.44 40.8 22.4 41.76C23.36 42.72 24.8 43.36 26.4 43.36C28 43.36 29.44 42.72 30.4 41.76C31.36 40.8 32 39.36 32 37.76C32 36.16 31.36 34.72 30.4 33.76C29.44 32.8 28 32.16 26.4 32.16ZM29.44 40.96C28.64 41.76 27.52 42.24 26.4 42.24C25.12 42.24 24.16 41.76 23.36 40.96C22.56 40.16 22.08 39.04 22.08 37.92C22.08 36.64 22.56 35.68 23.36 34.88C24.16 34.08 25.28 33.6 26.4 33.6C27.68 33.6 28.64 34.08 29.44 34.88C30.24 35.68 30.72 36.8 30.72 37.92C30.72 39.2 30.24 40.16 29.44 40.96Z" fill="#418FDE"/>
</svg>
