<svg width="120" height="120" viewBox="0 0 120 120" fill="none" xmlns="http://www.w3.org/2000/svg">
<path d="M77.0102 42.451L97.4218 42.451C98.2244 42.451 98.8728 43.1013 98.8728 43.902V57.51C98.8728 58.3107 98.2244 58.961 97.4218 58.961H77.0098C76.2072 58.961 75.5588 58.3107 75.5588 57.51V52.407V52.157H75.3088H70.0524H69.8411L69.8059 52.3654C69.3667 54.9698 67.9152 57.2278 65.8676 58.7299L65.6976 58.8546L65.7919 59.0433L74.7942 77.0478L72.1986 78.3466L63.2018 60.3544L63.1073 60.1654L62.9052 60.2272C61.9858 60.508 61.0102 60.662 60 60.662C58.9898 60.662 58.0143 60.508 57.0946 60.2279L56.8926 60.1663L56.7982 60.3552L47.8014 78.3474L45.2058 77.0486L54.2081 59.044L54.3024 58.8554L54.1323 58.7306C52.0833 57.228 50.634 54.9699 50.1941 52.3654L50.1589 52.157H49.9476H44.6912H44.4412V52.407V57.51C44.4412 58.3107 43.7928 58.961 42.9902 58.961H22.5782C21.7756 58.961 21.1272 58.3107 21.1272 57.51V43.902C21.1272 43.1013 21.7756 42.451 22.5782 42.451H42.9902C43.7928 42.451 44.4412 43.1013 44.4412 43.902V49.005V49.255H44.6912H49.9476H50.1589L50.1941 49.0467C50.9889 44.3453 55.0781 40.75 60.0002 40.75C64.9223 40.75 69.0114 44.3453 69.8063 49.0467L69.8415 49.255H70.0528H75.3092H75.5592V49.005V43.902C75.5592 43.1013 76.2076 42.451 77.0102 42.451ZM41.2892 49.255H41.5392V49.005V45.603V45.353H41.2892H37.8872H37.6372V45.603V49.005V49.255H37.8872H41.2892ZM30.8332 49.005V49.255H31.0832H34.4852H34.7352V49.005V45.603V45.353H34.4852H31.0832H30.8332V45.603V49.005ZM34.7352 52.407V52.157H34.4852H31.0832H30.8332V52.407V55.809V56.059H31.0832H34.4852H34.7352V55.809V52.407ZM27.9312 45.603V45.353H27.6812H24.2792H24.0292V45.603V49.005V49.255H24.2792H27.6812H27.9312V49.005V45.603ZM24.2792 52.157H24.0292V52.407V55.809V56.059H24.2792H27.6812H27.9312V55.809V52.407V52.157H27.6812H24.2792ZM41.2892 56.059H41.5392V55.809V52.407V52.157H41.2892H37.8872H37.6372V52.407V55.809V56.059H37.8872H41.2892ZM95.7212 49.255H95.9712V49.005V45.603V45.353H95.7212H92.3192H92.0692V45.603V49.005V49.255H92.3192H95.7212ZM85.2652 49.005V49.255H85.5152H88.9172H89.1672V49.005V45.603V45.353H88.9172H85.5152H85.2652V45.603V49.005ZM89.1672 52.407V52.157H88.9172H85.5152H85.2652V52.407V55.809V56.059H85.5152H88.9172H89.1672V55.809V52.407ZM78.7112 45.353H78.4612V45.603V49.005V49.255H78.7112H82.1132H82.3632V49.005V45.603V45.353H82.1132H78.7112ZM78.7112 52.157H78.4612V52.407V55.809V56.059H78.7112H82.1132H82.3632V55.809V52.407V52.157H82.1132H78.7112ZM92.0692 55.809V56.059H92.3192H95.7212H95.9712V55.809V52.407V52.157H95.7212H92.3192H92.0692V52.407V55.809ZM52.9462 50.706C52.9462 54.5962 56.11 57.76 60.0002 57.76C63.8904 57.76 67.0542 54.5962 67.0542 50.706C67.0542 46.8158 63.8904 43.652 60.0002 43.652C56.11 43.652 52.9462 46.8158 52.9462 50.706Z" fill="#0072BC" stroke="#F2F2F2" stroke-width="0.5"/>
<path d="M58.5492 67.966H61.4512V77.672H58.5492V67.966Z" fill="#0072BC" stroke="#F2F2F2" stroke-width="0.5"/>
</svg>
