<svg width="100" height="100" viewBox="0 0 100 100" fill="none" xmlns="http://www.w3.org/2000/svg">
<path d="M91.256 13.5501H8.74487C6.16915 13.5501 4.07318 15.6461 4.07318 18.2218V81.7782C4.07318 84.3544 6.16915 86.4499 8.74487 86.4499H91.2547C93.8309 86.4499 95.9268 84.3544 95.9268 81.7782V18.2218C95.9268 15.6461 93.8308 13.5501 91.2551 13.5501H91.256ZM8.74487 15.0083H91.2547C93.0272 15.0083 94.469 16.4497 94.469 18.2217V25.6028H5.53077V18.2217C5.53077 16.4497 6.97262 15.0083 8.74461 15.0083H8.74487ZM91.256 84.9919H8.74487C6.97288 84.9919 5.53104 83.5501 5.53104 81.7781V27.0606H94.4693V81.7781C94.4698 83.5501 93.028 84.9919 91.256 84.9919Z" fill="#0072BC"/>
<path d="M89.5963 24.2604C91.2443 24.2604 92.5851 22.9195 92.5851 21.2716C92.5851 19.6236 91.2441 18.2828 89.5963 18.2828C87.9483 18.2828 86.6075 19.6232 86.6075 21.2716C86.6075 22.9196 87.9479 24.2604 89.5963 24.2604ZM89.5963 19.7405C90.4405 19.7405 91.1273 20.4274 91.1273 21.2711C91.1273 22.1153 90.4405 22.8022 89.5963 22.8022C88.7521 22.8022 88.0652 22.1153 88.0652 21.2711C88.0652 20.4274 88.7521 19.7405 89.5963 19.7405Z" fill="#0072BC"/>
<path d="M81.3097 24.2604C82.9577 24.2604 84.2985 22.9195 84.2985 21.2716C84.2985 19.6236 82.9576 18.2828 81.3097 18.2828C79.6619 18.2828 78.3209 19.6232 78.3209 21.2716C78.3209 22.9196 79.6619 24.2604 81.3097 24.2604ZM81.3097 19.7405C82.1539 19.7405 82.8408 20.4274 82.8408 21.2711C82.8408 22.1153 82.1539 22.8022 81.3097 22.8022C80.4655 22.8022 79.7786 22.1153 79.7786 21.2711C79.7786 20.4274 80.4655 19.7405 81.3097 19.7405Z" fill="#0072BC"/>
<path d="M73.0232 24.2604C74.6712 24.2604 76.012 22.9195 76.012 21.2716C76.012 19.6236 74.671 18.2828 73.0232 18.2828C71.3753 18.2828 70.0344 19.6232 70.0344 21.2716C70.0344 22.9196 71.3753 24.2604 73.0232 24.2604ZM73.0232 19.7405C73.8674 19.7405 74.5542 20.4274 74.5542 21.2711C74.5542 22.1153 73.8674 22.8022 73.0232 22.8022C72.1789 22.8022 71.4921 22.1153 71.4921 21.2711C71.4921 20.4274 72.1789 19.7405 73.0232 19.7405Z" fill="#0072BC"/>
<path d="M37.4883 54.75C37.4883 54.39 37.4349 54.0567 37.3283 53.75C37.2283 53.4367 37.0783 53.1667 36.8783 52.94C36.6783 52.7067 36.4283 52.5267 36.1283 52.4C35.8349 52.2667 35.4949 52.2 35.1083 52.2C34.3283 52.2 33.7149 52.4233 33.2683 52.87C32.8216 53.3167 32.5383 53.9433 32.4183 54.75H37.4883ZM32.3583 56.07C32.3849 56.65 32.4749 57.1533 32.6283 57.58C32.7816 58 32.9849 58.35 33.2383 58.63C33.4983 58.91 33.8049 59.12 34.1583 59.26C34.5183 59.3933 34.9183 59.46 35.3583 59.46C35.7783 59.46 36.1416 59.4133 36.4483 59.32C36.7549 59.22 37.0216 59.1133 37.2483 59C37.4749 58.88 37.6683 58.7733 37.8283 58.68C37.9883 58.58 38.1349 58.53 38.2683 58.53C38.4416 58.53 38.5749 58.5967 38.6683 58.73L39.2783 59.52C39.0249 59.82 38.7383 60.0733 38.4183 60.28C38.0983 60.4867 37.7583 60.6567 37.3983 60.79C37.0383 60.9167 36.6683 61.0067 36.2883 61.06C35.9083 61.12 35.5383 61.15 35.1783 61.15C34.4716 61.15 33.8149 61.0333 33.2083 60.8C32.6083 60.56 32.0849 60.21 31.6383 59.75C31.1983 59.29 30.8516 58.72 30.5983 58.04C30.3516 57.36 30.2283 56.5767 30.2283 55.69C30.2283 54.9833 30.3383 54.3233 30.5583 53.71C30.7849 53.0967 31.1049 52.5633 31.5183 52.11C31.9383 51.6567 32.4449 51.3 33.0383 51.04C33.6383 50.7733 34.3149 50.64 35.0683 50.64C35.6949 50.64 36.2749 50.7433 36.8083 50.95C37.3416 51.15 37.8016 51.4467 38.1883 51.84C38.5749 52.2333 38.8749 52.7167 39.0883 53.29C39.3083 53.8567 39.4183 54.5033 39.4183 55.23C39.4183 55.5633 39.3816 55.7867 39.3083 55.9C39.2349 56.0133 39.1016 56.07 38.9083 56.07H32.3583ZM49.1189 49.06C49.0456 49.18 48.9689 49.27 48.8889 49.33C48.8089 49.3833 48.7089 49.41 48.5889 49.41C48.4622 49.41 48.3189 49.3567 48.1589 49.25C48.0056 49.1433 47.8122 49.0267 47.5789 48.9C47.3522 48.7667 47.0822 48.6467 46.7689 48.54C46.4556 48.4267 46.0822 48.37 45.6489 48.37C45.2489 48.37 44.8956 48.42 44.5889 48.52C44.2889 48.62 44.0356 48.76 43.8289 48.94C43.6222 49.12 43.4656 49.3333 43.3589 49.58C43.2589 49.82 43.2089 50.0833 43.2089 50.37C43.2089 50.7367 43.3056 51.0433 43.4989 51.29C43.6922 51.53 43.9456 51.7367 44.2589 51.91C44.5789 52.0833 44.9422 52.2367 45.3489 52.37C45.7556 52.4967 46.1689 52.6333 46.5889 52.78C47.0156 52.9267 47.4322 53.0933 47.8389 53.28C48.2456 53.4667 48.6056 53.7033 48.9189 53.99C49.2389 54.2767 49.4956 54.6267 49.6889 55.04C49.8822 55.4533 49.9789 55.9567 49.9789 56.55C49.9789 57.19 49.8689 57.79 49.6489 58.35C49.4289 58.91 49.1089 59.4 48.6889 59.82C48.2756 60.2333 47.7622 60.56 47.1489 60.8C46.5422 61.04 45.8489 61.16 45.0689 61.16C44.6089 61.16 44.1589 61.1133 43.7189 61.02C43.2856 60.9333 42.8689 60.81 42.4689 60.65C42.0756 60.4833 41.7056 60.2833 41.3589 60.05C41.0122 59.8167 40.7022 59.5567 40.4289 59.27L41.1089 58.15C41.1689 58.0567 41.2456 57.9833 41.3389 57.93C41.4322 57.8767 41.5356 57.85 41.6489 57.85C41.8022 57.85 41.9722 57.9233 42.1589 58.07C42.3456 58.21 42.5689 58.3667 42.8289 58.54C43.0956 58.7067 43.4156 58.8633 43.7889 59.01C44.1622 59.15 44.6089 59.22 45.1289 59.22C45.9756 59.22 46.6289 59.0133 47.0889 58.6C47.5556 58.1867 47.7889 57.6167 47.7889 56.89C47.7889 56.4833 47.6922 56.1533 47.4989 55.9C47.3056 55.64 47.0489 55.4233 46.7289 55.25C46.4156 55.0767 46.0556 54.93 45.6489 54.81C45.2422 54.69 44.8289 54.5633 44.4089 54.43C43.9889 54.29 43.5756 54.13 43.1689 53.95C42.7622 53.7633 42.3989 53.5233 42.0789 53.23C41.7656 52.93 41.5122 52.5633 41.3189 52.13C41.1256 51.69 41.0289 51.1433 41.0289 50.49C41.0289 49.97 41.1289 49.4667 41.3289 48.98C41.5356 48.4933 41.8322 48.0633 42.2189 47.69C42.6122 47.31 43.0956 47.0067 43.6689 46.78C44.2422 46.5533 44.8956 46.44 45.6289 46.44C46.4556 46.44 47.2122 46.57 47.8989 46.83C48.5922 47.09 49.1889 47.46 49.6889 47.94L49.1189 49.06ZM54.2688 50.8V61H52.1188V50.8H54.2688ZM54.6288 47.72C54.6288 47.9133 54.5888 48.0967 54.5088 48.27C54.4354 48.4433 54.3321 48.5967 54.1988 48.73C54.0654 48.8567 53.9088 48.96 53.7288 49.04C53.5554 49.1133 53.3688 49.15 53.1688 49.15C52.9754 49.15 52.7921 49.1133 52.6188 49.04C52.4521 48.96 52.3054 48.8567 52.1788 48.73C52.0521 48.5967 51.9488 48.4433 51.8688 48.27C51.7954 48.0967 51.7588 47.9133 51.7588 47.72C51.7588 47.52 51.7954 47.3333 51.8688 47.16C51.9488 46.9867 52.0521 46.8367 52.1788 46.71C52.3054 46.5767 52.4521 46.4733 52.6188 46.4C52.7921 46.32 52.9754 46.28 53.1688 46.28C53.3688 46.28 53.5554 46.32 53.7288 46.4C53.9088 46.4733 54.0654 46.5767 54.1988 46.71C54.3321 46.8367 54.4354 46.9867 54.5088 47.16C54.5888 47.3333 54.6288 47.52 54.6288 47.72ZM60.2402 61.16C59.3935 61.16 58.7402 60.9233 58.2802 60.45C57.8268 59.97 57.6002 59.2967 57.6002 58.43V52.49H56.4802C56.3602 52.49 56.2568 52.4533 56.1702 52.38C56.0835 52.3 56.0402 52.1833 56.0402 52.03V51.16L57.6902 50.92L58.1602 47.97C58.1935 47.8567 58.2502 47.7667 58.3302 47.7C58.4102 47.6267 58.5168 47.59 58.6502 47.59H59.7502V50.94H62.5802V52.49H59.7502V58.28C59.7502 58.6467 59.8402 58.9267 60.0202 59.12C60.2002 59.3133 60.4402 59.41 60.7402 59.41C60.9068 59.41 61.0502 59.39 61.1702 59.35C61.2902 59.3033 61.3935 59.2567 61.4802 59.21C61.5668 59.1567 61.6402 59.11 61.7002 59.07C61.7668 59.0233 61.8302 59 61.8902 59C62.0102 59 62.1068 59.0667 62.1802 59.2L62.8202 60.25C62.4868 60.5433 62.0935 60.77 61.6402 60.93C61.1868 61.0833 60.7202 61.16 60.2402 61.16ZM70.8867 54.75C70.8867 54.39 70.8334 54.0567 70.7267 53.75C70.6267 53.4367 70.4767 53.1667 70.2767 52.94C70.0767 52.7067 69.8267 52.5267 69.5267 52.4C69.2334 52.2667 68.8934 52.2 68.5067 52.2C67.7267 52.2 67.1134 52.4233 66.6667 52.87C66.2201 53.3167 65.9367 53.9433 65.8167 54.75H70.8867ZM65.7567 56.07C65.7834 56.65 65.8734 57.1533 66.0267 57.58C66.1801 58 66.3834 58.35 66.6367 58.63C66.8967 58.91 67.2034 59.12 67.5567 59.26C67.9167 59.3933 68.3167 59.46 68.7567 59.46C69.1767 59.46 69.5401 59.4133 69.8467 59.32C70.1534 59.22 70.4201 59.1133 70.6467 59C70.8734 58.88 71.0667 58.7733 71.2267 58.68C71.3867 58.58 71.5334 58.53 71.6667 58.53C71.8401 58.53 71.9734 58.5967 72.0667 58.73L72.6767 59.52C72.4234 59.82 72.1367 60.0733 71.8167 60.28C71.4967 60.4867 71.1567 60.6567 70.7967 60.79C70.4367 60.9167 70.0667 61.0067 69.6867 61.06C69.3067 61.12 68.9367 61.15 68.5767 61.15C67.8701 61.15 67.2134 61.0333 66.6067 60.8C66.0067 60.56 65.4834 60.21 65.0367 59.75C64.5967 59.29 64.2501 58.72 63.9967 58.04C63.7501 57.36 63.6267 56.5767 63.6267 55.69C63.6267 54.9833 63.7367 54.3233 63.9567 53.71C64.1834 53.0967 64.5034 52.5633 64.9167 52.11C65.3367 51.6567 65.8434 51.3 66.4367 51.04C67.0367 50.7733 67.7134 50.64 68.4667 50.64C69.0934 50.64 69.6734 50.7433 70.2067 50.95C70.7401 51.15 71.2001 51.4467 71.5867 51.84C71.9734 52.2333 72.2734 52.7167 72.4867 53.29C72.7067 53.8567 72.8167 54.5033 72.8167 55.23C72.8167 55.5633 72.7801 55.7867 72.7067 55.9C72.6334 56.0133 72.5001 56.07 72.3067 56.07H65.7567Z" fill="#0072BC"/>
</svg>
