<svg width="120" height="120" viewBox="0 0 120 120" fill="none" xmlns="http://www.w3.org/2000/svg">
<path d="M66 43.44C67.44 42 68.4 39.84 68.4 37.44C68.4 35.04 67.44 32.88 66 31.44C64.56 30 62.4 29.04 60 29.04C57.6 29.04 55.44 30 54 31.44C52.56 32.88 51.6 35.04 51.6 37.44C51.6 39.84 52.56 42 54 43.44C55.44 44.88 57.6 45.84 60 45.84C62.4 46.08 64.56 45.12 66 43.44ZM53.52 37.44C53.52 35.52 54.24 34.08 55.44 32.88C56.64 31.68 58.32 30.96 60 30.96C61.92 30.96 63.36 31.68 64.56 32.88C65.76 34.08 66.48 35.76 66.48 37.44C66.48 39.36 65.76 40.8 64.56 42C63.36 43.2 61.68 43.92 60 43.92C58.08 43.92 56.64 43.2 55.44 42C54.24 41.04 53.52 39.36 53.52 37.44Z" fill="#0072BC"/>
<path d="M73.44 45.36L74.4 43.68L75.12 41.52V41.28C75.36 40.32 75.36 39.12 75.36 38.16C75.36 33.84 73.68 30.24 70.8 27.36C67.92 24.48 64.32 22.8 60 22.8C55.68 22.8 52.08 24.48 49.2 27.36L48.48 28.08L47.28 29.76C45.6 32.16 44.64 35.04 44.64 38.16C44.64 39.36 44.64 40.32 44.88 41.28C45.12 42.24 45.36 43.2 45.84 44.16V44.4L54 60.24L40.8 67.2C39.6 68.16 39.36 70.32 40.8 71.04L58.08 78.72C59.52 79.44 60.24 79.44 61.92 78.72L79.2 71.04C80.4 70.56 80.4 67.92 79.2 67.2L65.76 60L73.44 45.36ZM48 40.56C47.76 39.84 47.76 38.88 47.76 37.92C47.76 34.56 49.2 31.44 51.36 29.28C53.52 27.12 56.64 25.68 60 25.68C63.36 25.68 66.48 27.12 68.64 29.28C70.8 31.44 72.24 34.56 72.24 37.92C72.24 38.88 72.24 39.6 72 40.56C71.76 41.28 71.52 42.24 71.28 42.96L60 64.8L48.72 42.96C48.48 42.24 48.24 41.28 48 40.56ZM77.52 69.12L60 76.32L42.48 68.88L55.44 61.92L58.8 68.4C59.04 68.64 59.04 68.88 59.52 69.12C60.24 69.6 61.2 69.12 61.44 68.4L64.8 61.92L77.52 69.12Z" fill="#0072BC"/>
<path d="M60 85.2L42.48 77.04C42.48 77.04 41.04 76.32 39.84 75.6C39.84 76.56 40.08 78.48 41.04 78.96L58.32 86.64C59.76 87.36 60.48 87.36 62.16 86.64L79.44 78.96C80.4 78.48 80.64 76.8 80.64 75.6C79.44 76.08 78 77.04 78 77.04L60 85.2Z" fill="#0072BC"/>
<path d="M60 93.36L42.48 85.2C42.48 85.2 41.04 84.48 39.84 83.76C39.84 84.72 40.08 86.64 41.04 87.12L58.32 94.8C59.76 95.52 60.48 95.52 62.16 94.8L79.44 87.12C80.4 86.64 80.64 84.96 80.64 83.76C79.44 84.24 78 85.2 78 85.2L60 93.36Z" fill="#0072BC"/>
</svg>
