<svg width="48" height="32" viewBox="0 0 48 32" fill="none" xmlns="http://www.w3.org/2000/svg">
<g clip-path="url(#clip0_4_3647)">
<path d="M12.18 17.84C12.4184 16.4833 12.8958 15.1797 13.59 13.99C13.9569 13.3465 14.3856 12.7403 14.87 12.18C15.0361 11.9772 15.2131 11.7836 15.4 11.6C13.7913 10.5505 11.9108 9.99431 9.99005 9.99998C7.79099 9.99949 5.65321 10.7246 3.90825 12.0629C2.16328 13.4011 0.908645 15.2778 0.33891 17.4018C-0.230826 19.5257 -0.0838226 21.7783 0.757121 23.8103C1.59807 25.8422 3.08596 27.5398 4.99005 28.64V30C4.99163 30.5299 5.20285 31.0377 5.57758 31.4124C5.95231 31.7872 6.4601 31.9984 6.99005 32H12.99C13.5205 32 14.0292 31.7893 14.4043 31.4142C14.7793 31.0391 14.99 30.5304 14.99 30V27.92C14.4598 27.3312 13.9939 26.6875 13.6 26C12.1724 23.535 11.669 20.6423 12.18 17.84ZM2.98005 20C2.97882 18.1598 3.70068 16.3929 4.99005 15.08V24.92C3.70068 23.6071 2.97882 21.8401 2.98005 20Z" fill="#418FDE"/>
<path d="M9.99512 8C12.2043 8 13.9951 6.20914 13.9951 4C13.9951 1.79086 12.2043 0 9.99512 0C7.78598 0 5.99512 1.79086 5.99512 4C5.99512 6.20914 7.78598 8 9.99512 8Z" fill="#418FDE"/>
<path d="M37.99 8C40.1991 8 41.99 6.20914 41.99 4C41.99 1.79086 40.1991 0 37.99 0C35.7809 0 33.99 1.79086 33.99 4C33.99 6.20914 35.7809 8 37.99 8Z" fill="#418FDE"/>
<path d="M37.9901 9.99997C36.0585 9.9948 34.1676 10.5544 32.55 11.61C32.7437 11.8038 32.9273 12.0074 33.1 12.22C33.5779 12.7725 34.003 13.3684 34.37 14C35.4246 15.8219 35.98 17.8898 35.98 19.995C35.98 22.1001 35.4246 24.168 34.37 25.99C33.9719 26.6691 33.5098 27.3087 32.9901 27.9V30C32.9916 30.5299 33.2029 31.0377 33.5776 31.4124C33.9523 31.7872 34.4601 31.9984 34.9901 32H40.9901C41.52 31.9984 42.0278 31.7872 42.4025 31.4124C42.7772 31.0377 42.9885 30.5299 42.9901 30V28.64C44.8941 27.5398 46.382 25.8422 47.223 23.8103C48.0639 21.7783 48.2109 19.5257 47.6412 17.4018C47.0715 15.2778 45.8168 13.4011 44.0718 12.0629C42.3269 10.7246 40.1891 9.99948 37.9901 9.99997ZM42.9901 24.92V15.08C44.2785 16.3935 45.0002 18.16 45.0002 20C45.0002 21.8399 44.2785 23.6065 42.9901 24.92Z" fill="#418FDE"/>
<path d="M23.99 8C26.1991 8 27.99 6.20914 27.99 4C27.99 1.79086 26.1991 0 23.99 0C21.7809 0 19.99 1.79086 19.99 4C19.99 6.20914 21.7809 8 23.99 8Z" fill="#418FDE"/>
<path d="M33.9802 20C33.9847 18.5001 33.6461 17.0189 32.9902 15.67C32.9302 15.54 32.8702 15.42 32.8002 15.29C32.3203 14.398 31.7103 13.5824 30.9902 12.87C29.1254 11.0294 26.6103 9.99821 23.9902 10C23.3565 10.0029 22.7242 10.0598 22.1002 10.17C20.1617 10.5311 18.3773 11.4686 16.9802 12.86C16.2525 13.5658 15.6416 14.3826 15.1702 15.28C15.1022 15.3959 15.0421 15.5161 14.9902 15.64C14.59 16.4456 14.3071 17.3043 14.1502 18.19C13.7717 20.2772 14.0659 22.4307 14.9902 24.34C15.0502 24.46 15.1102 24.59 15.1802 24.71C16.0606 26.3483 17.3799 27.7092 18.9902 28.64V29.1C18.9902 29.13 19.0002 29.16 19.0002 29.19C19.0002 29.22 18.9902 29.24 18.9902 29.27V30C18.9917 30.5299 19.203 31.0377 19.5777 31.4125C19.9524 31.7872 20.4602 31.9984 20.9902 32H26.9902C27.5201 31.9984 28.0279 31.7872 28.4026 31.4125C28.7774 31.0377 28.9886 30.5299 28.9902 30V29.27C28.9902 29.24 28.9802 29.22 28.9802 29.19C28.9802 29.16 28.9902 29.13 28.9902 29.1V28.64C29.7188 28.2206 30.3909 27.7098 30.9902 27.12C31.7125 26.4096 32.3228 25.5936 32.8002 24.7C32.8702 24.58 32.9302 24.45 32.9902 24.32C33.645 22.9742 33.9836 21.4966 33.9802 20ZM18.9902 24.91C18.925 24.8482 18.8648 24.7813 18.8102 24.71C17.7063 23.522 17.0612 21.9801 16.9902 20.36C17.0169 20.1207 17.0169 19.8793 16.9902 19.64C17.0612 18.017 17.7062 16.4718 18.8102 15.28C18.8602 15.21 18.9302 15.15 18.9902 15.08V24.91ZM29.1702 24.7C29.1161 24.7749 29.0559 24.8451 28.9902 24.91V15.09C29.0554 15.1518 29.1156 15.2187 29.1702 15.29C30.2882 16.5039 30.9309 18.0804 30.9802 19.73C30.9668 19.9098 30.9668 20.0903 30.9802 20.27C30.9289 21.9162 30.2863 23.4889 29.1702 24.7Z" fill="#418FDE"/>
</g>
<defs>
<clipPath id="clip0_4_3647">
<rect width="47.98" height="32" fill="white"/>
</clipPath>
</defs>
</svg>
