<svg width="80" height="80" viewBox="0 0 80 80" fill="none" xmlns="http://www.w3.org/2000/svg">
<path d="M72.96 10.88H7.04C4.96 10.88 3.2 12.48 3.2 14.56V65.44C3.2 67.52 4.8 69.12 6.88 69.12H72.96C75.04 69.12 76.64 67.52 76.64 65.44V14.56C76.8 12.48 75.04 10.88 72.96 10.88ZM75.52 65.44C75.52 66.88 74.4 68 72.96 68H7.04C5.6 68 4.48 66.88 4.48 65.44V21.6H28.32V20.48H4.48V14.56C4.48 13.12 5.6 12 7.04 12H73.12C74.56 12 75.68 13.12 75.68 14.56V20.48H51.68V21.6H75.52V65.44Z" fill="#418FDE"/>
<path d="M71.68 19.36C72.96 19.36 74.08 18.24 74.08 16.96C74.08 15.68 72.96 14.56 71.68 14.56C70.4 14.56 69.28 15.68 69.28 16.96C69.28 18.4 70.4 19.36 71.68 19.36ZM71.68 15.84C72.32 15.84 72.96 16.32 72.96 17.12C72.96 17.76 72.48 18.4 71.68 18.4C70.88 18.4 70.4 17.76 70.4 16.96C70.4 16.32 71.04 15.84 71.68 15.84ZM65.12 19.36C66.4 19.36 67.52 18.24 67.52 16.96C67.52 15.68 66.4 14.56 65.12 14.56C63.84 14.56 62.72 15.68 62.72 16.96C62.72 18.4 63.68 19.36 65.12 19.36ZM65.12 15.84C65.76 15.84 66.4 16.32 66.4 17.12C66.4 17.76 65.92 18.4 65.12 18.4C64.48 18.4 63.84 17.92 63.84 17.12C63.84 16.32 64.32 15.84 65.12 15.84ZM58.4 19.36C59.68 19.36 60.8 18.24 60.8 16.96C60.8 15.68 59.68 14.56 58.4 14.56C57.12 14.56 56 15.68 56 16.96C56 18.4 57.12 19.36 58.4 19.36ZM58.4 15.84C59.04 15.84 59.68 16.32 59.68 17.12C59.68 17.76 59.2 18.4 58.4 18.4C57.6 18.4 57.12 17.92 57.12 17.12C57.12 16.32 57.76 15.84 58.4 15.84ZM44 28.96C44.96 28 45.6 26.56 45.6 24.96C45.6 23.36 44.96 21.92 44 20.96C43.04 20 41.6 19.36 40 19.36C38.4 19.36 36.96 20 36 20.96C35.04 21.92 34.4 23.36 34.4 24.96C34.4 26.56 35.04 28 36 28.96C36.96 29.92 38.4 30.56 40 30.56C41.6 30.72 43.04 30.08 44 28.96ZM35.68 24.96C35.68 23.68 36.16 22.72 36.96 21.92C37.76 21.12 38.88 20.64 40 20.64C41.28 20.64 42.24 21.12 43.04 21.92C43.84 22.72 44.32 23.84 44.32 24.96C44.32 26.24 43.84 27.2 43.04 28C42.24 28.8 41.12 29.28 40 29.28C38.72 29.28 37.76 28.8 36.96 28C36.16 27.36 35.68 26.24 35.68 24.96Z" fill="#418FDE"/>
<path d="M48.96 30.24L49.6 29.12L50.08 27.68V27.52C50.24 26.88 50.24 26.08 50.24 25.44C50.24 22.56 49.12 20.16 47.2 18.24C45.28 16.32 42.88 15.2 40 15.2C37.12 15.2 34.72 16.32 32.8 18.24L32.32 18.72L31.52 19.84C30.4 21.44 29.76 23.36 29.76 25.44C29.76 26.24 29.76 26.88 29.92 27.52C30.08 28.16 30.24 28.8 30.56 29.44V29.6L36 40.16L27.2 44.8C26.4 45.44 26.24 46.88 27.2 47.36L38.72 52.48C39.68 52.96 40.16 52.96 41.28 52.48L52.8 47.36C53.6 47.04 53.6 45.28 52.8 44.8L43.84 40L48.96 30.24ZM32 27.04C31.84 26.56 31.84 25.92 31.84 25.28C31.84 23.04 32.8 20.96 34.24 19.52C35.68 18.08 37.76 17.12 40 17.12C42.24 17.12 44.32 18.08 45.76 19.52C47.2 20.96 48.16 23.04 48.16 25.28C48.16 25.92 48.16 26.4 48 27.04C47.84 27.52 47.68 28.16 47.52 28.64L40 43.2L32.48 28.64C32.32 28.16 32.16 27.52 32 27.04ZM51.68 46.08L40 50.88L28.32 45.92L36.96 41.28L39.2 45.6C39.36 45.76 39.36 45.92 39.68 46.08C40.16 46.4 40.8 46.08 40.96 45.6L43.2 41.28L51.68 46.08Z" fill="#418FDE"/>
<path d="M40 56.8L28.32 51.36C28.32 51.36 27.36 50.88 26.56 50.4C26.56 51.04 26.72 52.32 27.36 52.64L38.88 57.76C39.84 58.24 40.32 58.24 41.44 57.76L52.96 52.64C53.6 52.32 53.76 51.2 53.76 50.4C52.96 50.72 52 51.36 52 51.36L40 56.8Z" fill="#418FDE"/>
<path d="M40 62.24L28.32 56.8C28.32 56.8 27.36 56.32 26.56 55.84C26.56 56.48 26.72 57.76 27.36 58.08L38.88 63.2C39.84 63.68 40.32 63.68 41.44 63.2L52.96 58.08C53.6 57.76 53.76 56.64 53.76 55.84C52.96 56.16 52 56.8 52 56.8L40 62.24Z" fill="#418FDE"/>
</svg>
