<svg width="80" height="80" viewBox="0 0 80 80" fill="none" xmlns="http://www.w3.org/2000/svg">
<path d="M64.9481 5.98001H51.3401C50.7129 5.98001 50.2061 6.48829 50.2061 7.11401V10.516H46.7019C46.1587 7.30335 43.3647 4.84601 40.0001 4.84601C36.6356 4.84601 33.8415 7.30335 33.2984 10.516H29.7941V7.11401C29.7941 6.48829 29.2874 5.98001 28.6601 5.98001H15.0521C14.4249 5.98001 13.9181 6.48829 13.9181 7.11401V16.186C13.9181 16.8117 14.4249 17.32 15.0521 17.32H28.6601C29.2874 17.32 29.7941 16.8117 29.7941 16.186V12.784H33.2984C33.5991 14.5645 34.5898 16.1076 35.9897 17.1342L29.9136 29.2862L31.9421 30.3013L38.0145 18.1574C38.6428 18.3487 39.3095 18.454 40 18.454C40.6905 18.454 41.3573 18.3487 41.9855 18.1568L48.0579 30.3008L50.0864 29.2857L44.0103 17.1337C45.4091 16.1075 46.4013 14.5645 46.7016 12.784H50.2059V16.186C50.2059 16.8117 50.7126 17.32 51.3399 17.32H64.9479C65.5751 17.32 66.0819 16.8117 66.0819 16.186V7.11402C66.0819 6.4883 65.5751 5.98002 64.9479 5.98002L64.9481 5.98001ZM27.5261 10.516H25.2581V8.24801H27.5261V10.516ZM20.7221 10.516V8.24801H22.9901V10.516H20.7221ZM22.9901 12.784V15.052H20.7221V12.784H22.9901ZM18.4541 8.24801V10.516H16.1861V8.24801H18.4541ZM16.1861 12.784H18.4541V15.052H16.1861V12.784ZM27.5261 15.052H25.2581V12.784H27.5261V15.052ZM40.0001 16.186C37.4987 16.186 35.4641 14.1514 35.4641 11.65C35.4641 9.1486 37.4987 7.11401 40.0001 7.11401C42.5015 7.11401 44.5361 9.1486 44.5361 11.65C44.5361 14.1514 42.5015 16.186 40.0001 16.186ZM63.8141 10.516H61.5461V8.24801H63.8141V10.516ZM57.0101 10.516V8.24801H59.2781V10.516H57.0101ZM59.2781 12.784V15.052H57.0101V12.784H59.2781ZM52.4741 8.24801H54.7421V10.516H52.4741V8.24801ZM52.4741 12.784H54.7421V15.052H52.4741V12.784ZM61.5461 15.052V12.784H63.8141V15.052H61.5461Z" fill="#418FDE"/>
<path d="M38.8661 22.99H41.1341V29.794H38.8661V22.99Z" fill="#418FDE"/>
<path d="M62.0064 42.9315H17.9936C17.4403 42.9315 16.9933 43.3799 16.9933 43.9318V71.9399C16.9933 72.4919 17.4403 72.9402 17.9936 72.9402C43.7461 72.9278 43.8977 72.9402 62.0064 72.9402C62.5597 72.9402 63.0067 72.4919 63.0067 71.9399V43.9318C63.0067 43.3799 62.5597 42.9315 62.0064 42.9315ZM37.9743 54.0097L37.162 54.5898C36.6886 54.0615 36.1746 53.5663 35.5995 53.1345C33.3439 51.4429 31.9975 48.7501 31.9975 45.9324V44.9321H42.9587C42.7489 48.5403 40.9322 51.8962 37.9742 54.0097L37.9743 54.0097ZM18.9939 44.9321H29.9971V45.9324C29.9971 49.3762 31.6427 52.6674 34.3974 54.7349C36.5351 56.3385 37.8404 58.841 37.9725 61.4967L36.8263 60.3504C35.2696 58.7933 33.1989 57.9359 30.9974 57.9359C29.3299 57.9359 27.7625 57.2866 26.5823 56.1072L25.703 55.228L24.2888 56.6422L25.168 57.5215C26.7252 59.0791 28.7958 59.9365 30.9974 59.9365C32.6648 59.9365 34.2323 60.5857 35.4125 61.7651L37.9994 64.3516V70.9396H18.9939V44.9321ZM61.0061 70.9396H40V61.937C40 59.8913 39.4079 57.9059 38.3593 56.1934L39.1363 55.6383C41.0239 54.2911 42.5113 52.5066 43.5207 50.482L46.6667 52.5795C47.5031 53.1364 48.0024 54.0697 48.0024 55.0762V56.0136C48.0024 57.5399 48.6865 58.9644 49.8788 59.9187L53.3789 62.7186L54.6294 61.1561L51.1293 58.3562C50.413 57.7841 50.003 56.9298 50.003 56.0136V55.0762C50.003 53.3999 49.1707 51.8444 47.7757 50.9153L44.2845 48.5878C44.6694 47.4142 44.8976 46.1881 44.9597 44.9327L61.0066 44.9323L61.0061 70.9396Z" fill="#418FDE"/>
<path d="M22.9951 48.9333H27.9965V46.9327H21.9948C21.4415 46.9327 20.9945 47.381 20.9945 47.933V53.9347H22.9951V48.9333Z" fill="#418FDE"/>
<path d="M57.0049 53.9347H59.0055V47.933C59.0055 47.381 58.5585 46.9327 58.0052 46.9327H52.0035V48.9333H57.0049V53.9347Z" fill="#418FDE"/>
<path d="M22.9951 61.937H20.9945V67.9387C20.9945 68.4907 21.4415 68.939 21.9948 68.939H27.9965V66.9385H22.9951V61.937Z" fill="#418FDE"/>
<path d="M57.0049 66.9385H52.0035V68.939H58.0052C58.5585 68.939 59.0055 68.4907 59.0055 67.9387V61.937H57.0049V66.9385Z" fill="#418FDE"/>
<path d="M43.7085 60.2291C43.4223 59.9429 42.9922 59.858 42.618 60.0121C42.2438 60.1671 42.0009 60.5323 42.0009 60.9365V67.9385C42.0009 68.3426 42.2438 68.7079 42.618 68.8629C42.7421 68.9138 42.8721 68.9388 43.0011 68.9388C43.261 68.9388 43.5174 68.837 43.7085 68.6458L45.4157 66.9382H48.0027C48.4068 66.9382 48.773 66.6939 48.927 66.321C49.082 65.9468 48.9962 65.5168 48.71 65.2305L43.7085 60.2291ZM45.0017 64.9377C44.7355 64.9377 44.4814 65.0426 44.2943 65.2306L44.0014 65.524V63.3515L45.588 64.9377L45.0017 64.9377Z" fill="#418FDE"/>
<path d="M64.0605 32.9742H15.94C14.4379 32.9742 13.2155 34.1966 13.2155 35.6987V72.7648C13.2155 74.2673 14.4379 75.4893 15.94 75.4893H64.0597C65.5622 75.4893 66.7845 74.2673 66.7845 72.7648V35.6987C66.7845 34.1966 65.5621 32.9742 64.06 32.9742H64.0605ZM15.94 33.8246H64.0597C65.0935 33.8246 65.9344 34.6652 65.9344 35.6986V40.0033H14.0656V35.6986C14.0656 34.6652 14.9064 33.8246 15.9399 33.8246H15.94ZM64.0605 74.639H15.94C14.9066 74.639 14.0657 73.7982 14.0657 72.7647V40.8535H65.9345V72.7647C65.9348 73.7982 65.0939 74.639 64.0605 74.639Z" fill="#418FDE"/>
<path d="M63.0926 39.2204C64.0537 39.2204 64.8356 38.4384 64.8356 37.4774C64.8356 36.5163 64.0536 35.7343 63.0926 35.7343C62.1314 35.7343 61.3495 36.516 61.3495 37.4774C61.3495 38.4385 62.1312 39.2204 63.0926 39.2204ZM63.0926 36.5845C63.5849 36.5845 63.9855 36.985 63.9855 37.4771C63.9855 37.9694 63.5849 38.37 63.0926 38.37C62.6002 38.37 62.1996 37.9694 62.1996 37.4771C62.1996 36.985 62.6002 36.5845 63.0926 36.5845Z" fill="#418FDE"/>
<path d="M58.2599 39.2204C59.221 39.2204 60.0029 38.4384 60.0029 37.4774C60.0029 36.5163 59.2209 35.7343 58.2599 35.7343C57.2988 35.7343 56.5168 36.516 56.5168 37.4774C56.5168 38.4385 57.2988 39.2204 58.2599 39.2204ZM58.2599 36.5845C58.7522 36.5845 59.1528 36.985 59.1528 37.4771C59.1528 37.9694 58.7522 38.37 58.2599 38.37C57.7675 38.37 57.3669 37.9694 57.3669 37.4771C57.3669 36.985 57.7675 36.5845 58.2599 36.5845Z" fill="#418FDE"/>
<path d="M53.4271 39.2204C54.3882 39.2204 55.1702 38.4384 55.1702 37.4774C55.1702 36.5163 54.3882 35.7343 53.4271 35.7343C52.4661 35.7343 51.6841 36.516 51.6841 37.4774C51.6841 38.4385 52.4661 39.2204 53.4271 39.2204ZM53.4271 36.5845C53.9195 36.5845 54.32 36.985 54.32 37.4771C54.32 37.9694 53.9195 38.37 53.4271 38.37C52.9348 38.37 52.5342 37.9694 52.5342 37.4771C52.5342 36.985 52.9348 36.5845 53.4271 36.5845Z" fill="#418FDE"/>
</svg>
