<?xml version="1.0" encoding="UTF-8" standalone="no"?>
<svg
   xmlns:dc="http://purl.org/dc/elements/1.1/"
   xmlns:cc="http://creativecommons.org/ns#"
   xmlns:rdf="http://www.w3.org/1999/02/22-rdf-syntax-ns#"
   xmlns:svg="http://www.w3.org/2000/svg"
   xmlns="http://www.w3.org/2000/svg"
   xmlns:sodipodi="http://sodipodi.sourceforge.net/DTD/sodipodi-0.dtd"
   xmlns:inkscape="http://www.inkscape.org/namespaces/inkscape"
   width="14.1111mm"
   height="14.111109mm"
   viewBox="0 0 14.1111 14.111109"
   version="1.1"
   id="svg8"
   inkscape:version="1.0.1 (3bc2e813f5, 2020-09-07)"
   sodipodi:docname="esite_doc-icon.svg">
  <defs
     id="defs2" />
  <sodipodi:namedview
     id="base"
     pagecolor="#ffffff"
     bordercolor="#666666"
     borderopacity="1.0"
     inkscape:pageopacity="0.0"
     inkscape:pageshadow="2"
     inkscape:zoom="7.7531263"
     inkscape:cx="-2.6750447"
     inkscape:cy="22.810626"
     inkscape:document-units="mm"
     inkscape:current-layer="layer1"
     inkscape:document-rotation="0"
     showgrid="false"
     fit-margin-top="0"
     fit-margin-left="0"
     fit-margin-right="0"
     fit-margin-bottom="0"
     inkscape:window-width="1920"
     inkscape:window-height="1017"
     inkscape:window-x="-8"
     inkscape:window-y="-8"
     inkscape:window-maximized="1" />
  <metadata
     id="metadata5">
    <rdf:RDF>
      <cc:Work
         rdf:about="">
        <dc:format>image/svg+xml</dc:format>
        <dc:type
           rdf:resource="http://purl.org/dc/dcmitype/StillImage" />
        <dc:title></dc:title>
      </cc:Work>
    </rdf:RDF>
  </metadata>
  <g
     inkscape:label="Capa 1"
     inkscape:groupmode="layer"
     id="layer1"
     transform="translate(-107.09326,-90.462303)">
    <ellipse
       style="fill:#0072bc;fill-opacity:1;stroke-width:0.427741"
       id="path836"
       cx="114.14881"
       cy="97.51786"
       rx="7.0505252"
       ry="7.0478306" />
    <path
       d="m 117.01457,94.8287 -1.23412,-1.234281 c -0.19959,-0.198404 -0.46914,-0.309893 -0.7486,-0.309893 l -2.99972,-2e-6 c -0.58456,0 -1.05833,0.47377 -1.05833,1.058334 l 1.2e-4,6.350002 c 0,0.58439 0.47377,1.05833 1.05834,1.05833 h 4.23323 c 0.58208,0 1.05833,-0.47625 1.05833,-1.05833 v -5.116381 c 0,-0.279466 -0.1108,-0.549011 -0.30923,-0.747779 z m -0.48452,5.86416 c 0,0.14611 -0.11847,0.26458 -0.26458,0.26458 h -4.23301 c -0.14614,0 -0.26458,-0.11847 -0.26458,-0.26458 l -2.5e-4,-6.347851 c 0,-0.146116 0.11847,-0.264583 0.26458,-0.264583 h 2.64584 v 1.320767 c 0,0.292198 0.23697,0.529166 0.52916,0.529166 h 1.30804 v 4.762501 z m -3.96875,-2.778126 c 0,0.219934 0.17859,0.396874 0.39688,0.396874 h 2.38125 c 0.21993,0 0.39688,-0.17694 0.39688,-0.396874 0,-0.219935 -0.17695,-0.396875 -0.39688,-0.396875 h -2.38125 c -0.21829,0 -0.39688,0.178594 -0.39688,0.396875 z m 2.77813,1.190625 h -2.38125 c -0.21829,0 -0.39688,0.178595 -0.39688,0.396872 0,0.21828 0.17777,0.39688 0.39688,0.39688 h 2.38125 c 0.2191,0 0.39688,-0.17777 0.39688,-0.39688 0,-0.219107 -0.17695,-0.396872 -0.39688,-0.396872 z"
       id="path2"
       style="stroke-width:0.0165364;stroke:#ffffff;stroke-opacity:1;fill:#ffffff;fill-opacity:1" />
  </g>
</svg>
