<svg width="48" height="48" viewBox="0 0 48 48" fill="none" xmlns="http://www.w3.org/2000/svg">
<path fill-rule="evenodd" clip-rule="evenodd" d="M38 6C39.6569 6 41 4.65685 41 3C41 1.34315 39.6569 0 38 0C36.3431 0 35 1.34315 35 3C35 4.65685 36.3431 6 38 6ZM38 8.026C34.5081 7.92643 31.2215 9.67157 29.348 12.62C28.0808 10.9435 26.1008 9.95823 23.9993 9.95843C21.8977 9.95862 19.9179 10.9443 18.651 12.621C16.7776 9.67188 13.4904 7.92629 9.998 8.026C4.298 8.026 0 12.09 0 17.479C0 18.3074 0.671573 18.979 1.5 18.979C2.32843 18.979 3 18.3074 3 17.479C2.98612 15.2886 4.12573 13.2526 6 12.119V20.999C6 23.2081 7.79086 24.999 10 24.999C12.2091 24.999 14 23.2081 14 20.999V12.121C15.8725 13.2549 17.0108 15.29 16.997 17.479C16.997 18.3074 17.6686 18.979 18.497 18.979C19.3254 18.979 19.997 18.3074 19.997 17.479L19.995 17.453L19.997 17.44C19.9936 16.3762 20.3472 15.3421 21.001 14.503V18C21.001 19.6563 22.3437 20.999 24 20.999C25.6563 20.999 26.999 19.6563 26.999 18V14.5C27.6535 15.3395 28.0074 16.3745 28.004 17.439L28.002 17.478C28.002 18.3064 28.6736 18.978 29.502 18.978C30.3304 18.978 31.002 18.3064 31.002 17.478C30.991 15.0412 32.3958 12.8197 34.602 11.785L32.998 19C32.6324 21.0058 33.499 23.0363 35.2003 24.16C36.9017 25.2836 39.1093 25.2836 40.8107 24.16C42.512 23.0363 43.3786 21.0058 43.013 19L41.398 11.786C43.604 12.8209 45.0087 15.0423 44.998 17.479C44.998 18.3074 45.6696 18.979 46.498 18.979C47.3264 18.979 47.998 18.3074 47.998 17.479C47.998 12.09 43.7 8.026 38 8.026ZM20.498 37.621L28.438 45.561C28.7262 45.8481 29.1193 46.0049 29.526 45.995C29.8971 46.0048 30.256 45.862 30.519 45.6L44.998 34.12V40.5C44.998 41.3284 45.6696 42 46.498 42C47.3264 42 47.998 41.3284 47.998 40.5V30.5C47.998 29.6716 47.3264 29 46.498 29H36.498C35.6696 29 34.998 29.6716 34.998 30.5C34.998 31.3284 35.6696 32 36.498 32H42.877L29.498 42.379L21.619 34.5C20.9803 33.9302 20.0157 33.9302 19.377 34.5L0.437 45.44C-0.131187 46.0288 -0.122619 46.9644 0.456257 47.5427C1.03513 48.1211 1.9707 48.1287 2.559 47.56L20.498 37.621ZM12.999 3C12.999 4.65685 11.6559 6 9.999 6C8.34215 6 6.999 4.65685 6.999 3C6.999 1.34315 8.34215 0 9.999 0C11.6559 0 12.999 1.34315 12.999 3ZM23.9997 7.999C22.6163 7.99937 21.4946 6.87834 21.494 5.495C21.4937 4.83046 21.7575 4.19305 22.2273 3.72305C22.6972 3.25306 23.3345 2.989 23.999 2.989C25.3823 2.989 26.5038 4.11032 26.504 5.49367C26.5042 6.87701 25.383 7.99863 23.9997 7.999Z" fill="#418FDE"/>
</svg>
