<svg width="120" height="120" viewBox="0 0 120 120" fill="none" xmlns="http://www.w3.org/2000/svg">
<path d="M52.9517 58.1913L40.8912 81.5258C40.5135 82.2547 39.6191 82.5406 38.8871 82.1659C38.6012 82.0168 38.3838 81.7882 38.247 81.5196L25.6659 57.1847C25.6342 57.1244 25.6088 57.0642 25.5863 57.0049C25.1748 56.0616 24.8573 55.0835 24.646 54.0809C24.4255 53.0487 24.3111 51.9879 24.3111 50.9077C24.3111 47.7633 25.2626 44.8392 26.8951 42.4114L24.5082 40.9647L13.4228 47.7V87.5548H101.441L80.4792 74.8563C80.4394 74.8359 80.4046 74.8165 80.3679 74.791L52.9539 58.1904L52.9517 58.1913ZM13.4236 45.9646L23.0777 40.0984L13.4236 34.2494V45.9646ZM15.979 33.4868L28.1108 40.8333C28.3283 40.5873 28.5508 40.3504 28.7826 40.1187C31.5412 37.3571 35.3573 35.651 39.5707 35.651C43.781 35.651 47.5973 37.358 50.3589 40.1187C53.1175 42.8802 54.8266 46.6934 54.8266 50.9068C54.8266 51.987 54.7122 53.0477 54.4917 54.08C54.4713 54.1719 54.4519 54.2627 54.4315 54.3546L91.1735 33.4866H15.9776L15.979 33.4868ZM92.3614 33.4868C92.3961 33.5235 92.4268 33.5695 92.4533 33.6154C92.6565 33.9727 92.5309 34.427 92.1736 34.6271L53.8295 56.4068L80.8567 72.7755L93.0089 63.1358V63.1389C93.2029 62.9847 93.452 62.902 93.7174 62.9276L106.584 64.1649V33.4864H92.3625L92.3614 33.4868ZM106.583 66.1541L93.9275 64.9362L82.6645 73.8694L105.259 87.554H106.582V66.1541L106.583 66.1541ZM105.276 89.5406C105.125 89.5754 104.965 89.5774 104.813 89.5406H12.4273C11.878 89.5406 11.4329 89.0945 11.4329 88.5462V32.4924C11.4329 31.9431 11.879 31.5 12.4273 31.5H107.573C108.122 31.5 108.567 31.9431 108.567 32.4924V88.5462C108.567 89.0955 108.121 89.5406 107.573 89.5406H105.276ZM39.57 41.7895C41.9366 41.7895 44.0806 42.7502 45.6333 44.302C47.1831 45.8539 48.1428 47.9979 48.1428 50.3653C48.1428 52.7319 47.1852 54.8759 45.6333 56.4286C44.0815 57.9784 41.9374 58.9381 39.57 58.9381C37.2004 58.9381 35.0563 57.9774 33.5067 56.4286C31.9549 54.8768 30.9942 52.7327 30.9942 50.3653C30.9942 47.9988 31.9549 45.8548 33.5067 44.302C35.0565 42.7502 37.2006 41.7895 39.57 41.7895ZM44.2264 45.7057C43.034 44.5133 41.3883 43.7762 39.57 43.7762C37.7487 43.7762 36.1028 44.5133 34.9105 45.7057C33.7182 46.8982 32.981 48.5438 32.981 50.3653C32.981 52.1835 33.7181 53.8304 34.9105 55.0216C36.103 56.2141 37.7486 56.9512 39.57 56.9512C41.3883 56.9512 43.0352 56.2141 44.2264 55.0216C45.4189 53.8292 46.156 52.1835 46.156 50.3653C46.156 48.5439 45.4189 46.898 44.2264 45.7057ZM39.57 77.6073L50.83 55.8217C51.1526 55.0846 51.4047 54.2954 51.5814 53.4633C51.7529 52.6455 51.8448 51.7941 51.8448 50.9079C51.8448 47.5173 50.4726 44.4505 48.249 42.2289C46.0274 40.0053 42.9575 38.6331 39.57 38.6331C36.1794 38.6331 33.1094 40.0053 30.8879 42.2289C28.6663 44.4505 27.2921 47.5173 27.2921 50.9079C27.2921 51.7941 27.3839 52.6455 27.5555 53.4633C27.73 54.2893 27.9843 55.0784 28.3048 55.8135L39.5708 77.6075L39.57 77.6073Z" fill="#0072BC"/>
</svg>
