<?xml version="1.0" encoding="UTF-8" standalone="no"?>
<svg
   xmlns:dc="http://purl.org/dc/elements/1.1/"
   xmlns:cc="http://creativecommons.org/ns#"
   xmlns:rdf="http://www.w3.org/1999/02/22-rdf-syntax-ns#"
   xmlns:svg="http://www.w3.org/2000/svg"
   xmlns="http://www.w3.org/2000/svg"
   xmlns:sodipodi="http://sodipodi.sourceforge.net/DTD/sodipodi-0.dtd"
   xmlns:inkscape="http://www.inkscape.org/namespaces/inkscape"
   width="80"
   height="80"
   viewBox="0 0 80 80"
   fill="none"
   version="1.1"
   id="svg20"
   sodipodi:docname="esite_icon-thematic-data_transparent.svg"
   inkscape:version="1.0.1 (3bc2e813f5, 2020-09-07)">
  <metadata
     id="metadata26">
    <rdf:RDF>
      <cc:Work
         rdf:about="">
        <dc:format>image/svg+xml</dc:format>
        <dc:type
           rdf:resource="http://purl.org/dc/dcmitype/StillImage" />
        <dc:title />
      </cc:Work>
    </rdf:RDF>
  </metadata>
  <defs
     id="defs24">
    <clipPath
       clipPathUnits="userSpaceOnUse"
       id="clipPath932">
      <path
         style="fill:none;stroke:#000000;stroke-width:1px;stroke-linecap:butt;stroke-linejoin:miter;stroke-opacity:1"
         d="m 114.46811,126.84664 0.66551,-13.97576 41.00756,2.90986 0.32109,12.626 20.76126,-0.21851 -0.59658,-67.360409 -81.325594,-0.931718 0.532409,70.943607 z"
         id="path934" />
    </clipPath>
  </defs>
  <sodipodi:namedview
     pagecolor="#ffffff"
     bordercolor="#666666"
     borderopacity="1"
     objecttolerance="10"
     gridtolerance="10"
     guidetolerance="10"
     inkscape:pageopacity="0"
     inkscape:pageshadow="2"
     inkscape:window-width="1920"
     inkscape:window-height="1017"
     id="namedview22"
     showgrid="false"
     inkscape:zoom="7.5130096"
     inkscape:cx="49.019296"
     inkscape:cy="52.017941"
     inkscape:window-x="-8"
     inkscape:window-y="-8"
     inkscape:window-maximized="1"
     inkscape:current-layer="svg20"
     inkscape:document-rotation="0" />
  <path
     d="M71.6259 19.3899C72.909 19.3899 73.9587 18.3401 73.9587 17.0571C73.9587 15.7741 72.909 14.7243 71.6259 14.7243C70.3429 14.7243 69.2931 15.7741 69.2931 17.0571C69.2931 18.3401 70.3429 19.3899 71.6259 19.3899ZM71.6259 15.7741C72.3258 15.7741 72.909 16.3573 72.909 16.9405C72.909 17.6403 72.3258 18.2235 71.6259 18.2235C70.9261 18.2235 70.3429 17.6403 70.3429 16.9405C70.4595 16.3573 71.0427 15.7741 71.6259 15.7741Z"
     fill="#418FDE"
     id="path4" />
  <path
     d="M65.0941 19.3899C66.3771 19.3899 67.4269 18.3401 67.4269 17.0571C67.4269 15.7741 66.3771 14.7243 65.0941 14.7243C63.811 14.7243 62.7613 15.7741 62.7613 17.0571C62.6446 18.3401 63.6944 19.3899 65.0941 19.3899ZM65.0941 15.7741C65.7939 15.7741 66.3771 16.3573 66.3771 16.9405C66.3771 17.6403 65.7939 18.2235 65.0941 18.2235C64.3942 18.2235 63.811 17.6403 63.811 16.9405C63.811 16.3573 64.3942 15.7741 65.0941 15.7741Z"
     fill="#418FDE"
     id="path6" />
  <path
     d="M58.4456 19.3899C59.7286 19.3899 60.7784 18.3401 60.7784 17.0571C60.7784 15.7741 59.7286 14.7243 58.4456 14.7243C57.1626 14.7243 56.1128 15.7741 56.1128 17.0571C55.9962 18.3401 57.0459 19.3899 58.4456 19.3899ZM58.4456 15.7741C59.1454 15.7741 59.7286 16.3573 59.7286 16.9405C59.7286 17.6403 59.1454 18.2235 58.4456 18.2235C57.7458 18.2235 57.1626 17.6403 57.1626 16.9405C57.1626 16.3573 57.7458 15.7741 58.4456 15.7741Z"
     fill="#418FDE"
     id="path8" />
  <path
     d="M62.88 35.04L55.36 34.08V60.48C55.36 61.76 54.24 62.88 52.96 62.88H47.2L47.84 67.2L58.08 68.48C58.4 68.48 59.04 68.16 59.04 67.68L63.36 35.36C63.36 35.2 63.2 35.04 62.88 35.04Z"
     fill="white"
     id="path10"
     style="fill:#ffffff;fill-opacity:0" />
  <path
     d="M63.2 33.12L55.36 32V27.52C55.36 26.24 54.24 25.12 52.96 25.12H28.32C27.04 25.12 25.92 26.24 25.92 27.52V37.44L16.8 38.56C16.16 38.72 15.52 39.04 15.04 39.52C14.72 40 14.56 40.48 14.56 41.12L18.88 73.44C19.04 74.88 20.32 76 21.76 76H22.08L45.76 72.96C46.4 72.8 47.04 72.48 47.52 71.84C48 71.2 48.32 70.4 48.16 69.6V69.12L57.92 70.4H58.24C59.68 70.4 60.96 69.28 61.12 67.84L65.44 35.52C65.44 34.4 64.64 33.28 63.2 33.12ZM58.08 68.48L47.84 67.2L47.2 62.88H52.96C54.24 62.88 55.36 61.76 55.36 60.48V34.08L62.88 35.04C63.04 35.04 63.36 35.2 63.36 35.36L59.04 67.68C59.04 68.16 58.56 68.64 58.08 68.48ZM46.24 69.92C46.24 70.24 46.24 70.56 46.08 70.72C45.92 70.88 45.92 71.04 45.6 71.04L21.92 74.08C21.44 74.08 20.96 73.76 20.96 73.28L16.64 40.96C16.64 40.96 16.8 40.8 16.96 40.8L25.76 39.68V60.64C25.76 61.92 26.88 63.04 28.16 63.04H45.28L46.24 69.92ZM28.32 27.2H53.12C53.28 27.2 53.44 27.36 53.44 27.52V60.48C53.44 60.64 53.28 60.8 53.12 60.8H28.32C28.16 60.8 28 60.64 28 60.48V27.52C27.84 27.36 28 27.2 28.32 27.2Z"
     fill="#418FDE"
     id="path12"
     style="stroke-width:1;stroke-miterlimit:4;stroke-dasharray:none" />
  <path
     d="M45.28 62.88H28.32C27.04 62.88 25.92 61.76 25.92 60.48V39.52L17.12 40.64C16.96 40.64 16.8 40.8 16.8 40.8L21.12 73.12C21.12 73.6 21.76 74.08 22.08 73.92L45.76 70.88C45.92 70.88 46.08 70.72 46.24 70.56C46.4 70.4 46.56 70.08 46.4 69.76L45.28 62.88Z"
     fill="white"
     id="path14"
     style="fill:#ffffff;fill-opacity:0" />
  <path
     d="M27.84 60.48C27.84 60.64 28 60.8 28.16 60.8H52.96C53.12 60.8 53.28 60.64 53.28 60.48V27.52C53.28 27.36 53.12 27.2 52.96 27.2H28.32C28.16 27.2 28 27.36 28 27.52V60.48H27.84Z"
     fill="white"
     id="path16"
     style="fill:#ffffff;fill-opacity:0" />
  <path
     d="M47.2 36.48C46.72 36.48 46.24 36.96 46.24 37.44V42.4L44.8 44C44.8 44.16 44.48 44.16 44.32 44.16H44.16C44 44 44 43.84 44.16 43.68L45.44 42.4C45.76 42.08 45.76 41.76 45.44 41.44C45.12 41.12 44.8 41.12 44.48 41.44L42.08 44C41.76 44.48 41.44 44.96 41.44 45.6V50.24H44.32V47.2C44.48 47.04 44.64 47.04 44.8 46.88L47.84 43.84C48 43.68 48.16 43.36 48.16 43.2V37.76C48.16 36.96 47.68 36.48 47.2 36.48ZM39.04 43.84L36.64 41.28C36.32 40.96 36 40.96 35.68 41.28C35.36 41.6 35.36 41.92 35.68 42.24L36.96 43.52C37.12 43.68 37.12 43.84 36.96 44C36.8 44.16 36.64 44.16 36.48 44L35.04 42.4V37.44C35.04 36.96 34.56 36.48 34.08 36.48C33.6 36.48 33.12 36.96 33.12 37.44V42.88C33.12 43.2 33.28 43.36 33.44 43.52L36.48 46.56C36.64 46.72 36.8 46.88 36.96 46.88V49.92H39.84V45.28C39.68 44.8 39.52 44.16 39.04 43.84Z"
     fill="#418FDE"
     id="path18" />
  <path
     d="m 169.03982,63.946103 h -66.01824 c -2.09952,0 -3.732484,1.6329 -3.732484,3.7325 V 118.5336 c 0,2.0995 1.632964,3.7325 3.732484,3.7325 h 11.25146 42.32941 12.43737 c 2.0995,0 3.7325,-1.633 3.7325,-3.7325 V 67.678603 c 0,-2.0996 -1.7496,-3.7325 -3.7325,-3.7325 z m -66.01824,1.1664 h 66.01824 c 1.3997,0 2.5661,1.1664 2.5661,2.5661 v 5.9486 H 100.4555 v -5.9486 c 0,-1.3997 1.1664,-2.5661 2.56608,-2.5661 z M 169.03982,121.0997 H 157.1201 114.13186 103.02158 c -1.39968,0 -2.56608,-1.1664 -2.56608,-2.5661 V 74.677003 h 71.15042 V 118.417 c 0,1.5163 -1.1664,2.6827 -2.5661,2.6827 z"
     fill="#418fde"
     id="path2-0"
     sodipodi:nodetypes="sssssccsssssssccsssccssccss"
     clip-path="url(#clipPath932)"
     transform="translate(-96.01422,-53.070903)" />
</svg>
