<?xml version="1.0" encoding="UTF-8" standalone="no"?>
<svg
   width="50pt"
   height="50pt"
   version="1.1"
   viewBox="0 0 50 50"
   id="svg92"
   sodipodi:docname="noun-satellite-imagery-monitor-2876672.svg"
   inkscape:version="1.1.1 (3bf5ae0d25, 2021-09-20)"
   xmlns:inkscape="http://www.inkscape.org/namespaces/inkscape"
   xmlns:sodipodi="http://sodipodi.sourceforge.net/DTD/sodipodi-0.dtd"
   xmlns="http://www.w3.org/2000/svg"
   xmlns:svg="http://www.w3.org/2000/svg">
  <sodipodi:namedview
     id="namedview94"
     pagecolor="#ffffff"
     bordercolor="#666666"
     borderopacity="1.0"
     inkscape:pageshadow="2"
     inkscape:pageopacity="0.0"
     inkscape:pagecheckerboard="0"
     inkscape:document-units="pt"
     showgrid="false"
     width="50pt"
     inkscape:zoom="4.9214632"
     inkscape:cx="69.69472"
     inkscape:cy="35.253743"
     inkscape:window-width="1920"
     inkscape:window-height="1001"
     inkscape:window-x="1271"
     inkscape:window-y="-9"
     inkscape:window-maximized="1"
     inkscape:current-layer="svg92" />
  <defs
     id="defs38">
    <symbol
       id="l"
       overflow="visible">
      <path
         d="m 29.312,-1.75 c -1.5117,0.78125 -3.0898,1.3711 -4.7344,1.7656 -1.6367,0.40625 -3.3398,0.60938 -5.1094,0.60938 -5.3125,0 -9.5273,-1.4844 -12.641,-4.4531 -3.1055,-2.9688 -4.6562,-7 -4.6562,-12.094 0,-5.094 1.5508,-9.125 4.6562,-12.094 3.1133,-2.9688 7.3281,-4.4531 12.641,-4.4531 1.7695,0 3.4727,0.19922 5.1094,0.59375 1.6445,0.39844 3.2227,0.99219 4.7344,1.7812 v 6.5938 c -1.5312,-1.0391 -3.0391,-1.8008 -4.5156,-2.2812 -1.4805,-0.48828 -3.0391,-0.73438 -4.6719,-0.73438 -2.9375,0 -5.2461,0.94531 -6.9219,2.8281 -1.6797,1.875 -2.5156,4.4648 -2.5156,7.7656 0,3.293 0.83594,5.8828 2.5156,7.7656 1.6758,1.875 3.9844,2.8125 6.9219,2.8125 1.6328,0 3.1914,-0.23828 4.6719,-0.71875 1.4766,-0.48828 2.9844,-1.2539 4.5156,-2.2969 z"
         id="path2" />
    </symbol>
    <symbol
       id="h"
       overflow="visible">
      <path
         d="m 21.453,-17.406 c -0.67969,-0.3125 -1.3516,-0.53906 -2.0156,-0.6875 -0.65625,-0.15625 -1.3203,-0.23438 -1.9844,-0.23438 -1.9688,0 -3.4844,0.63281 -4.5469,1.8906 -1.0547,1.2617 -1.5781,3.0703 -1.5781,5.4219 V 6.2e-4 H 3.6718 v -23.922 h 7.6562 v 3.9219 c 0.97656,-1.5625 2.1016,-2.7031 3.375,-3.4219 1.2812,-0.71875 2.8125,-1.0781 4.5938,-1.0781 0.25,0 0.52344,0.01172 0.82812,0.03125 0.30078,0.02344 0.73438,0.07031 1.2969,0.14062 z"
         id="path5" />
    </symbol>
    <symbol
       id="a"
       overflow="visible">
      <path
         d="m 27.562,-12.031 v 2.1875 H 9.671 c 0.1875,1.793 0.83203,3.1367 1.9375,4.0312 1.1133,0.89844 2.6719,1.3438 4.6719,1.3438 1.6016,0 3.25,-0.23438 4.9375,-0.70312 1.6875,-0.47656 3.4219,-1.2031 5.2031,-2.1719 v 5.8906 c -1.8047,0.6875 -3.6094,1.2031 -5.4219,1.5469 -1.8125,0.35156 -3.6211,0.53125 -5.4219,0.53125 -4.3359,0 -7.7031,-1.0977 -10.109,-3.2969 -2.3984,-2.207 -3.5938,-5.2969 -3.5938,-9.2656 0,-3.9062 1.1758,-6.9727 3.5312,-9.2031 2.3633,-2.2383 5.6094,-3.3594 9.7344,-3.3594 3.7578,0 6.7695,1.1367 9.0312,3.4062 2.2578,2.2617 3.3906,5.2812 3.3906,9.0625 z m -7.8594,-2.5312 c 0,-1.457 -0.42969,-2.6289 -1.2812,-3.5156 -0.84375,-0.89453 -1.9492,-1.3438 -3.3125,-1.3438 -1.4922,0 -2.6992,0.41797 -3.625,1.25 -0.91797,0.83594 -1.4922,2.0391 -1.7188,3.6094 z"
         id="path8" />
    </symbol>
    <symbol
       id="c"
       overflow="visible">
      <path
         d="m 14.391,-10.766 c -1.5938,0 -2.793,0.27344 -3.5938,0.8125 -0.80469,0.54297 -1.2031,1.3398 -1.2031,2.3906 0,0.96875 0.32031,1.7305 0.96875,2.2812 0.64453,0.54297 1.5469,0.8125 2.7031,0.8125 1.4375,0 2.6445,-0.51562 3.625,-1.5469 0.98828,-1.0312 1.4844,-2.3203 1.4844,-3.875 v -0.875 z m 11.688,-2.8906 V -6e-4 h -7.7031 v -3.5469 c -1.0312,1.4492 -2.1875,2.5078 -3.4688,3.1719 -1.2813,0.6641 -2.8398,1 -4.6719,1 -2.4805,0 -4.4961,-0.72266 -6.0469,-2.1719 -1.543,-1.4453 -2.3125,-3.3203 -2.3125,-5.625 0,-2.8125 0.96094,-4.8672 2.8906,-6.1719 1.9375,-1.3125 4.9688,-1.9688 9.0938,-1.9688 h 4.5156 v -0.60938 c 0,-1.207 -0.48047,-2.0938 -1.4375,-2.6562 -0.94922,-0.5625 -2.4375,-0.84375 -4.4688,-0.84375 -1.6367,0 -3.1562,0.16797 -4.5625,0.5 -1.4062,0.32422 -2.7188,0.8125 -3.9375,1.4688 v -5.8281 c 1.6445,-0.40625 3.2891,-0.70703 4.9375,-0.90625 1.6562,-0.20703 3.3047,-0.3125 4.9531,-0.3125 4.3203,0 7.4375,0.85547 9.3438,2.5625 1.9141,1.6992 2.875,4.4609 2.875,8.2812 z"
         id="path11" />
    </symbol>
    <symbol
       id="b"
       overflow="visible">
      <path
         d="m 12.031,-30.719 v 6.7969 h 7.875 v 5.4688 h -7.875 v 10.141 c 0,1.1172 0.21875,1.8711 0.65625,2.2656 0.4375,0.38672 1.3125,0.57812 2.625,0.57812 h 3.9375 v 5.4688 h -6.5625 c -3.0234,0 -5.1641,-0.62891 -6.4219,-1.8906 -1.2617,-1.2578 -1.8906,-3.3984 -1.8906,-6.4219 v -10.141 h -3.7969 v -5.4688 h 3.7969 v -6.7969 z"
         id="path14" />
    </symbol>
    <symbol
       id="g"
       overflow="visible">
      <path
         d="m 19.953,-20.422 v -12.812 h 7.6875 V 0 H 19.953 v -3.4531 c -1.0547,1.4062 -2.2148,2.4375 -3.4844,3.0938 -1.2734,0.65625 -2.7422,0.98438 -4.4062,0.98438 -2.9492,0 -5.3711,-1.1719 -7.2656,-3.5156 -1.8867,-2.3438 -2.8281,-5.3594 -2.8281,-9.0469 0,-3.6875 0.94141,-6.7031 2.8281,-9.0469 1.8945,-2.3438 4.3164,-3.5156 7.2656,-3.5156 1.6562,0 3.1172,0.33594 4.3906,1 1.2812,0.65625 2.4453,1.6836 3.5,3.0781 z m -5.0469,15.484 c 1.6445,0 2.8945,-0.59766 3.75,-1.7969 0.86328,-1.1953 1.2969,-2.9297 1.2969,-5.2031 0,-2.2812 -0.43359,-4.0195 -1.2969,-5.2188 -0.85547,-1.1953 -2.1055,-1.7969 -3.75,-1.7969 -1.625,0 -2.8711,0.60156 -3.7344,1.7969 -0.85547,1.1992 -1.2812,2.9375 -1.2812,5.2188 0,2.2734 0.42578,4.0078 1.2812,5.2031 0.86328,1.1992 2.1094,1.7969 3.7344,1.7969 z"
         id="path17" />
    </symbol>
    <symbol
       id="f"
       overflow="visible">
      <path
         d="m 16.406,-4.9375 c 1.6328,0 2.8828,-0.59766 3.75,-1.7969 0.86328,-1.1953 1.2969,-2.9297 1.2969,-5.2031 0,-2.2812 -0.43359,-4.0195 -1.2969,-5.2188 -0.86719,-1.1953 -2.1172,-1.7969 -3.75,-1.7969 -1.6367,0 -2.8906,0.60547 -3.7656,1.8125 -0.875,1.1992 -1.3125,2.9336 -1.3125,5.2031 0,2.2617 0.4375,3.9961 1.3125,5.2031 0.875,1.1992 2.1289,1.7969 3.7656,1.7969 z m -5.0781,-15.484 c 1.0508,-1.3945 2.2188,-2.4219 3.5,-3.0781 1.2812,-0.66406 2.7539,-1 4.4219,-1 2.9453,0 5.3672,1.1719 7.2656,3.5156 1.8945,2.3438 2.8438,5.3594 2.8438,9.0469 0,3.6875 -0.94922,6.7031 -2.8438,9.0469 -1.8984,2.3438 -4.3203,3.5156 -7.2656,3.5156 -1.668,0 -3.1406,-0.33594 -4.4219,-1 -1.2813,-0.66406 -2.4492,-1.6914 -3.5,-3.0781 V 4e-4 H 3.6717 v -33.234 h 7.6562 z"
         id="path20" />
    </symbol>
    <symbol
       id="e"
       overflow="visible">
      <path
         d="m 0.53125,-23.922 h 7.6562 l 6.4219,16.234 5.4688,-16.234 h 7.6562 l -10.062,26.188 c -1.0117,2.6641 -2.1953,4.5234 -3.5469,5.5781 -1.3438,1.0625 -3.1211,1.5938 -5.3281,1.5938 H 4.37545 V 4.4223 h 2.3906 c 1.3008,0 2.2422,-0.21094 2.8281,-0.625 0.59375,-0.40625 1.0547,-1.1484 1.3906,-2.2188 l 0.20312,-0.65625 z"
         id="path23" />
    </symbol>
    <symbol
       id="d"
       overflow="visible">
      <path
         d="m 0.21875,-31.891 h 29.391 v 6.2188 h -10.578 V -2e-4 h -8.2188 v -25.672 h -10.594 z"
         id="path26" />
    </symbol>
    <symbol
       id="k"
       overflow="visible">
      <path
         d="m 25.844,-19.953 c 0.96875,-1.4766 2.1172,-2.6016 3.4531,-3.375 1.332,-0.78125 2.7969,-1.1719 4.3906,-1.1719 2.75,0 4.8438,0.85156 6.2812,2.5469 1.4375,1.6875 2.1562,4.1523 2.1562,7.3906 V -4e-4 h -7.6875 v -12.469 c 0.0078,-0.1875 0.01953,-0.37891 0.03125,-0.57812 0.0078,-0.19531 0.01563,-0.48438 0.01563,-0.85938 0,-1.6953 -0.25,-2.9258 -0.75,-3.6875 -0.5,-0.75781 -1.3086,-1.1406 -2.4219,-1.1406 -1.4492,0 -2.5703,0.60156 -3.3594,1.7969 -0.79297,1.1992 -1.2031,2.9297 -1.2344,5.1875 v 11.75 h -7.6875 v -12.469 c 0,-2.6562 -0.23047,-4.3633 -0.6875,-5.125 -0.44922,-0.75781 -1.2578,-1.1406 -2.4219,-1.1406 -1.4688,0 -2.6055,0.60547 -3.4062,1.8125 -0.79297,1.1992 -1.1875,2.918 -1.1875,5.1562 V -5e-4 h -7.7031 v -23.922 h 7.7031 v 3.5 c 0.9375,-1.3516 2.0156,-2.3672 3.2344,-3.0469 1.2188,-0.6875 2.5547,-1.0312 4.0156,-1.0312 1.6562,0 3.1133,0.40234 4.375,1.2031 1.2695,0.79297 2.2344,1.9062 2.8906,3.3438 z"
         id="path29" />
    </symbol>
    <symbol
       id="j"
       overflow="visible">
      <path
         d="M 11.328,-3.4531 V 9.0939 H 3.6718 v -33.016 h 7.6562 v 3.5 c 1.0508,-1.3945 2.2188,-2.4219 3.5,-3.0781 1.2812,-0.66406 2.7539,-1 4.4219,-1 2.9453,0 5.3672,1.1719 7.2656,3.5156 1.8945,2.3438 2.8438,5.3594 2.8438,9.0469 0,3.6875 -0.94922,6.7031 -2.8438,9.0469 -1.8984,2.3438 -4.3203,3.5156 -7.2656,3.5156 -1.668,0 -3.1406,-0.33594 -4.4219,-1 -1.2813,-0.66406 -2.4492,-1.6914 -3.5,-3.0781 z m 5.0781,-15.5 c -1.6367,0 -2.8906,0.60547 -3.7656,1.8125 -0.875,1.1992 -1.3125,2.9336 -1.3125,5.2031 0,2.2617 0.4375,3.9961 1.3125,5.2031 0.875,1.1992 2.1289,1.7969 3.7656,1.7969 1.6328,0 2.8828,-0.59766 3.75,-1.7969 0.86328,-1.1953 1.2969,-2.9297 1.2969,-5.2031 0,-2.2812 -0.43359,-4.0195 -1.2969,-5.2188 -0.86719,-1.1953 -2.1172,-1.7969 -3.75,-1.7969 z"
         id="path32" />
    </symbol>
    <symbol
       id="i"
       overflow="visible">
      <path
         d="m 3.6719,-33.234 h 7.6562 V 0 H 3.6719 Z"
         id="path35" />
    </symbol>
  </defs>
  <g
     id="g1755">
    <g
       id="g1216"
       transform="translate(8.1e-5)">
      <path
         d="m 40.5925,3.7375001 h -8.505 c -0.392024,0 -0.70875,0.3176739 -0.70875,0.70875 v 2.12625 H 29.188591 C 28.849088,4.5645911 27.102841,3.0287501 25,3.0287501 c -2.102841,0 -3.84912,1.535841 -4.188591,3.54375 H 18.62125 v -2.12625 c 0,-0.3910761 -0.316726,-0.70875 -0.70875,-0.70875 h -8.505 c -0.392024,0 -0.70875,0.3176739 -0.70875,0.70875 V 10.11625 c 0,0.391076 0.316726,0.70875 0.70875,0.70875 h 8.505 c 0.392024,0 0.70875,-0.317674 0.70875,-0.70875 V 7.9900001 h 2.190159 c 0.187944,1.112778 0.807149,2.0772449 1.682046,2.7188459 l -3.797523,7.595046 1.267812,0.634392 3.795255,-7.589943 c 0.392664,0.119605 0.809368,0.185417 1.24092,0.185417 0.431552,0 0.848313,-0.06581 1.24092,-0.185733 l 3.795255,7.589943 1.267812,-0.634392 -3.797523,-7.595046 c 0.874233,-0.641358 1.494369,-1.6057438 1.682046,-2.7185218 h 2.190159 v 2.1262498 c 0,0.391076 0.316726,0.70875 0.70875,0.70875 h 8.505 c 0.392024,0 0.70875,-0.317674 0.70875,-0.70875 V 4.4462582 c 0,-0.3910761 -0.316726,-0.70875 -0.70875,-0.70875 z m -23.38875,2.835 h -1.4175 v -1.4175 h 1.4175 z m -4.2525,0 v -1.4175 h 1.4175 v 1.4175 z m 1.4175,1.4175 v 1.4175 h -1.4175 v -1.4175 z m -2.835,-2.835 v 1.4175 h -1.4175 v -1.4175 z m -1.4175,2.835 h 1.4175 v 1.4175 h -1.4175 z m 7.0875,1.4175 h -1.4175 v -1.4175 h 1.4175 z M 25,10.11625 c -1.563381,0 -2.835,-1.2716189 -2.835,-2.8349999 0,-1.563381 1.271619,-2.835 2.835,-2.835 1.563381,0 2.835,1.271619 2.835,2.835 0,1.563381 -1.271619,2.8349999 -2.835,2.8349999 z M 39.88375,6.5725001 h -1.4175 v -1.4175 h 1.4175 z m -4.2525,0 v -1.4175 h 1.4175 v 1.4175 z m 1.4175,1.4175 v 1.4175 h -1.4175 v -1.4175 z m -4.2525,-2.835 h 1.4175 v 1.4175 h -1.4175 z m 0,2.835 h 1.4175 v 1.4175 h -1.4175 z m 5.67,1.4175 v -1.4175 h 1.4175 v 1.4175 z"
         id="path40"
         style="fill:#418fde;fill-opacity:1;stroke-width:0.081" />
      <path
         d="m 24.29125,14.36875 h 1.4175 v 4.2525 h -1.4175 z"
         id="path54"
         style="fill:#418fde;fill-opacity:1;stroke-width:0.081" />
    </g>
    <g
       id="g1738"
       transform="matrix(0.729,0,0,0.729,-32.66013,7.1857927)">
      <g
         id="g1725"
         transform="matrix(1.21,0,0,1.21,48.844829,2.7029221)">
        <path
           d="M 40.5925,20.03875 H 9.4075 c -0.392024,0 -0.70875,0.317674 -0.70875,0.70875 v 19.845 c 0,0.391076 0.316726,0.70875 0.70875,0.70875 18.246771,-0.0088 18.354229,0 31.185,0 0.392024,0 0.70875,-0.317674 0.70875,-0.70875 v -19.845 c 0,-0.391076 -0.316726,-0.70875 -0.70875,-0.70875 z m -17.02782,7.849386 -0.575546,0.41101 c -0.335388,-0.374309 -0.699572,-0.725201 -1.107108,-1.03113 -1.59813,-1.198557 -2.552148,-3.106512 -2.552148,-5.103 v -0.70875 h 7.766523 c -0.148707,2.556522 -1.435887,4.934358 -3.531762,6.431886 z M 10.11625,21.45625 H 17.9125 V 22.165 c 0,2.440125 1.165995,4.772034 3.117852,6.237 1.514619,1.136187 2.439477,2.909358 2.533113,4.790988 L 22.751278,32.380801 C 21.648301,31.2775 20.181148,30.67 18.62125,30.67 c -1.181466,0 -2.292057,-0.460056 -3.128301,-1.295676 l -0.623003,-0.623003 -1.002051,1.002051 0.623003,0.623003 C 15.594199,31.48 17.061352,32.0875 18.62125,32.0875 c 1.181466,0 2.292057,0.460056 3.128301,1.295676 L 23.5825,35.215801 V 39.88375 H 10.11625 Z m 29.7675,18.4275 H 25 V 33.505 c 0,-1.449495 -0.419556,-2.856222 -1.162512,-4.069602 l 0.550549,-0.393295 c 1.337472,-0.954585 2.391363,-2.218995 3.106512,-3.653505 l 2.22912,1.486188 c 0.592628,0.394559 0.946404,1.055835 0.946404,1.76904 v 0.664135 c 0,1.081512 0.484736,2.090772 1.329534,2.76696 l 2.479977,1.983852 0.885978,-1.107108 -2.479977,-1.983852 c -0.507514,-0.405316 -0.79798,-1.010637 -0.79798,-1.659852 v -0.664135 c 0,-1.187784 -0.589777,-2.28987 -1.578204,-2.948238 l -2.473659,-1.649079 c 0.272743,-0.831546 0.434428,-1.700352 0.478402,-2.589813 l 11.369971,-3.24e-4 z"
           id="path42"
           style="fill:#418fde;fill-opacity:1;stroke-width:0.081"
           sodipodi:nodetypes="ssssccssscccsccccccscccsccccscccccccsccccssccccssccccc" />
        <path
           d="M 12.95125,24.29125 H 16.495 v -1.4175 h -4.2525 c -0.392024,0 -0.70875,0.317674 -0.70875,0.70875 v 4.2525 h 1.4175 z"
           id="path44"
           style="fill:#418fde;fill-opacity:1;stroke-width:0.081" />
        <path
           d="m 37.04875,27.835 h 1.4175 v -4.2525 c 0,-0.391076 -0.316726,-0.70875 -0.70875,-0.70875 H 33.505 v 1.4175 h 3.54375 z"
           id="path46"
           style="fill:#418fde;fill-opacity:1;stroke-width:0.081" />
        <path
           d="m 12.95125,33.505 h -1.4175 v 4.2525 c 0,0.391076 0.316726,0.70875 0.70875,0.70875 h 4.2525 v -1.4175 h -3.54375 z"
           id="path48"
           style="fill:#418fde;fill-opacity:1;stroke-width:0.081" />
        <path
           d="M 37.04875,37.04875 H 33.505 v 1.4175 h 4.2525 c 0.392024,0 0.70875,-0.317674 0.70875,-0.70875 V 33.505 h -1.4175 z"
           id="path50"
           style="fill:#418fde;fill-opacity:1;stroke-width:0.081" />
        <path
           d="m 27.62764,32.29486 c -0.202816,-0.202816 -0.507514,-0.262934 -0.772667,-0.15377 -0.265146,0.109795 -0.437271,0.368615 -0.437271,0.654958 v 4.96125 c 0,0.286351 0.172125,0.54517 0.437271,0.654958 0.08796,0.03607 0.180039,0.05379 0.271479,0.05379 0.184146,0 0.365764,-0.07214 0.501188,-0.207562 l 1.209654,-1.209978 h 1.832949 c 0.286351,0 0.545802,-0.173073 0.654958,-0.43727 0.109795,-0.265146 0.04904,-0.569852 -0.15377,-0.772668 z m 0.916272,3.336228 c -0.188576,0 -0.368615,0.07436 -0.501187,0.207563 l -0.207563,0.207878 v -1.539324 l 1.124199,1.123875 z"
           id="path52"
           style="fill:#418fde;fill-opacity:1;stroke-width:0.081" />
      </g>
      <path
         d="M 99.722841,18.412982 H 58.467274 c -1.287859,0 -2.335847,1.047989 -2.335847,2.335848 v 31.778203 c 0,1.288121 1.047988,2.335847 2.335847,2.335847 h 41.254911 c 1.288125,0 2.336045,-1.047726 2.336045,-2.335847 V 20.74883 c 0,-1.287859 -1.04799,-2.335848 -2.335848,-2.335848 z m -41.255567,0.729124 h 41.254911 c 0.886255,0 1.607185,0.72066 1.607185,1.606658 v 3.690563 H 56.860222 v -3.690563 c 0,-0.885998 0.720923,-1.606658 1.606921,-1.606658 z M 99.722841,54.133888 H 58.467274 c -0.885998,0 -1.60692,-0.720923 -1.60692,-1.60692 V 25.168254 H 101.3295 v 27.358714 c 2.6e-4,0.885997 -0.72066,1.60692 -1.606659,1.60692 z"
         id="path70"
         style="fill:#418fde;fill-opacity:1;stroke-width:0.06561" />
      <path
         d="m 98.892972,23.768138 c 0.823996,0 1.494398,-0.670469 1.494398,-1.494399 0,-0.823996 -0.670467,-1.494399 -1.494398,-1.494399 -0.823995,0 -1.494398,0.670206 -1.494398,1.494399 0,0.823996 0.670206,1.494399 1.494398,1.494399 z m 0,-2.259937 c 0.422109,0 0.765538,0.343429 0.765538,0.765275 0,0.422109 -0.343429,0.765538 -0.765538,0.765538 -0.422108,0 -0.765537,-0.343429 -0.765537,-0.765538 0,-0.421852 0.343429,-0.765275 0.765537,-0.765275 z"
         id="path72"
         style="fill:#418fde;fill-opacity:1;stroke-width:0.06561" />
      <path
         d="m 94.749701,23.768138 c 0.823996,0 1.494399,-0.670469 1.494399,-1.494399 0,-0.823996 -0.670469,-1.494399 -1.494399,-1.494399 -0.82393,0 -1.494399,0.670206 -1.494399,1.494399 0,0.823996 0.670469,1.494399 1.494399,1.494399 z m 0,-2.259937 c 0.422108,0 0.765537,0.343429 0.765537,0.765275 0,0.422109 -0.343429,0.765538 -0.765537,0.765538 -0.422108,0 -0.765537,-0.343429 -0.765537,-0.765538 0,-0.421852 0.343429,-0.765275 0.765537,-0.765275 z"
         id="path74"
         style="fill:#418fde;fill-opacity:1;stroke-width:0.06561" />
      <path
         d="m 90.606429,23.768138 c 0.823996,0 1.494399,-0.670469 1.494399,-1.494399 0,-0.823996 -0.670468,-1.494399 -1.494399,-1.494399 -0.82393,0 -1.494398,0.670206 -1.494398,1.494399 0,0.823996 0.670468,1.494399 1.494398,1.494399 z m 0,-2.259937 c 0.422109,0 0.765538,0.343429 0.765538,0.765275 0,0.422109 -0.343429,0.765538 -0.765538,0.765538 -0.422108,0 -0.765537,-0.343429 -0.765537,-0.765538 0,-0.421852 0.343429,-0.765275 0.765537,-0.765275 z"
         id="path76"
         style="fill:#418fde;fill-opacity:1;stroke-width:0.06561" />
    </g>
  </g>
</svg>
