<?xml version="1.0" encoding="UTF-8" standalone="no"?>
<svg
   width="50pt"
   height="50pt"
   version="1.1"
   viewBox="0 0 50 50"
   id="svg98"
   sodipodi:docname="noun-book-map-2642625.svg"
   inkscape:version="1.1.1 (3bf5ae0d25, 2021-09-20)"
   xmlns:inkscape="http://www.inkscape.org/namespaces/inkscape"
   xmlns:sodipodi="http://sodipodi.sourceforge.net/DTD/sodipodi-0.dtd"
   xmlns="http://www.w3.org/2000/svg"
   xmlns:svg="http://www.w3.org/2000/svg">
  <sodipodi:namedview
     id="namedview100"
     pagecolor="#ffffff"
     bordercolor="#666666"
     borderopacity="1.0"
     inkscape:pageshadow="2"
     inkscape:pageopacity="0.0"
     inkscape:pagecheckerboard="0"
     inkscape:document-units="pt"
     showgrid="false"
     width="50pt"
     inkscape:zoom="6.96"
     inkscape:cx="58.477012"
     inkscape:cy="49.928161"
     inkscape:window-width="1920"
     inkscape:window-height="1001"
     inkscape:window-x="1271"
     inkscape:window-y="-9"
     inkscape:window-maximized="1"
     inkscape:current-layer="svg98" />
  <defs
     id="defs38">
    <symbol
       id="l"
       overflow="visible">
      <path
         d="m 29.312,-1.75 c -1.5117,0.78125 -3.0898,1.3711 -4.7344,1.7656 -1.6367,0.40625 -3.3398,0.60938 -5.1094,0.60938 -5.3125,0 -9.5273,-1.4844 -12.641,-4.4531 -3.1055,-2.9688 -4.6562,-7 -4.6562,-12.094 0,-5.094 1.5508,-9.125 4.6562,-12.094 3.1133,-2.9688 7.3281,-4.4531 12.641,-4.4531 1.7695,0 3.4727,0.19922 5.1094,0.59375 1.6445,0.39844 3.2227,0.99219 4.7344,1.7812 v 6.5938 c -1.5312,-1.0391 -3.0391,-1.8008 -4.5156,-2.2812 -1.4805,-0.48828 -3.0391,-0.73438 -4.6719,-0.73438 -2.9375,0 -5.2461,0.94531 -6.9219,2.8281 -1.6797,1.875 -2.5156,4.4648 -2.5156,7.7656 0,3.293 0.83594,5.8828 2.5156,7.7656 1.6758,1.875 3.9844,2.8125 6.9219,2.8125 1.6328,0 3.1914,-0.23828 4.6719,-0.71875 1.4766,-0.48828 2.9844,-1.2539 4.5156,-2.2969 z"
         id="path2" />
    </symbol>
    <symbol
       id="d"
       overflow="visible">
      <path
         d="m 21.453,-17.406 c -0.67969,-0.3125 -1.3516,-0.53906 -2.0156,-0.6875 -0.65625,-0.15625 -1.3203,-0.23438 -1.9844,-0.23438 -1.9688,0 -3.4844,0.63281 -4.5469,1.8906 -1.0547,1.2617 -1.5781,3.0703 -1.5781,5.4219 V 6.2e-4 H 3.6718 v -23.922 h 7.6562 v 3.9219 c 0.97656,-1.5625 2.1016,-2.7031 3.375,-3.4219 1.2812,-0.71875 2.8125,-1.0781 4.5938,-1.0781 0.25,0 0.52344,0.01172 0.82812,0.03125 0.30078,0.02344 0.73438,0.07031 1.2969,0.14062 z"
         id="path5" />
    </symbol>
    <symbol
       id="c"
       overflow="visible">
      <path
         d="m 27.562,-12.031 v 2.1875 H 9.671 c 0.1875,1.793 0.83203,3.1367 1.9375,4.0312 1.1133,0.89844 2.6719,1.3438 4.6719,1.3438 1.6016,0 3.25,-0.23438 4.9375,-0.70312 1.6875,-0.47656 3.4219,-1.2031 5.2031,-2.1719 v 5.8906 c -1.8047,0.6875 -3.6094,1.2031 -5.4219,1.5469 -1.8125,0.35156 -3.6211,0.53125 -5.4219,0.53125 -4.3359,0 -7.7031,-1.0977 -10.109,-3.2969 -2.3984,-2.207 -3.5938,-5.2969 -3.5938,-9.2656 0,-3.9062 1.1758,-6.9727 3.5312,-9.2031 2.3633,-2.2383 5.6094,-3.3594 9.7344,-3.3594 3.7578,0 6.7695,1.1367 9.0312,3.4062 2.2578,2.2617 3.3906,5.2812 3.3906,9.0625 z m -7.8594,-2.5312 c 0,-1.457 -0.42969,-2.6289 -1.2812,-3.5156 -0.84375,-0.89453 -1.9492,-1.3438 -3.3125,-1.3438 -1.4922,0 -2.6992,0.41797 -3.625,1.25 -0.91797,0.83594 -1.4922,2.0391 -1.7188,3.6094 z"
         id="path8" />
    </symbol>
    <symbol
       id="b"
       overflow="visible">
      <path
         d="m 14.391,-10.766 c -1.5938,0 -2.793,0.27344 -3.5938,0.8125 -0.80469,0.54297 -1.2031,1.3398 -1.2031,2.3906 0,0.96875 0.32031,1.7305 0.96875,2.2812 0.64453,0.54297 1.5469,0.8125 2.7031,0.8125 1.4375,0 2.6445,-0.51562 3.625,-1.5469 0.98828,-1.0312 1.4844,-2.3203 1.4844,-3.875 v -0.875 z m 11.688,-2.8906 V -6e-4 h -7.7031 v -3.5469 c -1.0312,1.4492 -2.1875,2.5078 -3.4688,3.1719 -1.2813,0.6641 -2.8398,1 -4.6719,1 -2.4805,0 -4.4961,-0.72266 -6.0469,-2.1719 -1.543,-1.4453 -2.3125,-3.3203 -2.3125,-5.625 0,-2.8125 0.96094,-4.8672 2.8906,-6.1719 1.9375,-1.3125 4.9688,-1.9688 9.0938,-1.9688 h 4.5156 v -0.60938 c 0,-1.207 -0.48047,-2.0938 -1.4375,-2.6562 -0.94922,-0.5625 -2.4375,-0.84375 -4.4688,-0.84375 -1.6367,0 -3.1562,0.16797 -4.5625,0.5 -1.4062,0.32422 -2.7188,0.8125 -3.9375,1.4688 v -5.8281 c 1.6445,-0.40625 3.2891,-0.70703 4.9375,-0.90625 1.6562,-0.20703 3.3047,-0.3125 4.9531,-0.3125 4.3203,0 7.4375,0.85547 9.3438,2.5625 1.9141,1.6992 2.875,4.4609 2.875,8.2812 z"
         id="path11" />
    </symbol>
    <symbol
       id="a"
       overflow="visible">
      <path
         d="m 12.031,-30.719 v 6.7969 h 7.875 v 5.4688 h -7.875 v 10.141 c 0,1.1172 0.21875,1.8711 0.65625,2.2656 0.4375,0.38672 1.3125,0.57812 2.625,0.57812 h 3.9375 v 5.4688 h -6.5625 c -3.0234,0 -5.1641,-0.62891 -6.4219,-1.8906 -1.2617,-1.2578 -1.8906,-3.3984 -1.8906,-6.4219 v -10.141 h -3.7969 v -5.4688 h 3.7969 v -6.7969 z"
         id="path14" />
    </symbol>
    <symbol
       id="h"
       overflow="visible">
      <path
         d="m 19.953,-20.422 v -12.812 h 7.6875 V 0 H 19.953 v -3.4531 c -1.0547,1.4062 -2.2148,2.4375 -3.4844,3.0938 -1.2734,0.65625 -2.7422,0.98438 -4.4062,0.98438 -2.9492,0 -5.3711,-1.1719 -7.2656,-3.5156 -1.8867,-2.3438 -2.8281,-5.3594 -2.8281,-9.0469 0,-3.6875 0.94141,-6.7031 2.8281,-9.0469 1.8945,-2.3438 4.3164,-3.5156 7.2656,-3.5156 1.6562,0 3.1172,0.33594 4.3906,1 1.2812,0.65625 2.4453,1.6836 3.5,3.0781 z m -5.0469,15.484 c 1.6445,0 2.8945,-0.59766 3.75,-1.7969 0.86328,-1.1953 1.2969,-2.9297 1.2969,-5.2031 0,-2.2812 -0.43359,-4.0195 -1.2969,-5.2188 -0.85547,-1.1953 -2.1055,-1.7969 -3.75,-1.7969 -1.625,0 -2.8711,0.60156 -3.7344,1.7969 -0.85547,1.1992 -1.2812,2.9375 -1.2812,5.2188 0,2.2734 0.42578,4.0078 1.2812,5.2031 0.86328,1.1992 2.1094,1.7969 3.7344,1.7969 z"
         id="path17" />
    </symbol>
    <symbol
       id="g"
       overflow="visible">
      <path
         d="m 16.406,-4.9375 c 1.6328,0 2.8828,-0.59766 3.75,-1.7969 0.86328,-1.1953 1.2969,-2.9297 1.2969,-5.2031 0,-2.2812 -0.43359,-4.0195 -1.2969,-5.2188 -0.86719,-1.1953 -2.1172,-1.7969 -3.75,-1.7969 -1.6367,0 -2.8906,0.60547 -3.7656,1.8125 -0.875,1.1992 -1.3125,2.9336 -1.3125,5.2031 0,2.2617 0.4375,3.9961 1.3125,5.2031 0.875,1.1992 2.1289,1.7969 3.7656,1.7969 z m -5.0781,-15.484 c 1.0508,-1.3945 2.2188,-2.4219 3.5,-3.0781 1.2812,-0.66406 2.7539,-1 4.4219,-1 2.9453,0 5.3672,1.1719 7.2656,3.5156 1.8945,2.3438 2.8438,5.3594 2.8438,9.0469 0,3.6875 -0.94922,6.7031 -2.8438,9.0469 -1.8984,2.3438 -4.3203,3.5156 -7.2656,3.5156 -1.668,0 -3.1406,-0.33594 -4.4219,-1 -1.2813,-0.66406 -2.4492,-1.6914 -3.5,-3.0781 V 4e-4 H 3.6717 v -33.234 h 7.6562 z"
         id="path20" />
    </symbol>
    <symbol
       id="f"
       overflow="visible">
      <path
         d="m 0.53125,-23.922 h 7.6562 l 6.4219,16.234 5.4688,-16.234 h 7.6562 l -10.062,26.188 c -1.0117,2.6641 -2.1953,4.5234 -3.5469,5.5781 -1.3438,1.0625 -3.1211,1.5938 -5.3281,1.5938 H 4.37545 V 4.4223 h 2.3906 c 1.3008,0 2.2422,-0.21094 2.8281,-0.625 0.59375,-0.40625 1.0547,-1.1484 1.3906,-2.2188 l 0.20312,-0.65625 z"
         id="path23" />
    </symbol>
    <symbol
       id="e"
       overflow="visible">
      <path
         d="m 2.5,-23.922 h 20.875 v 5.3438 L 10.766,-5.4692 H 23.375 V -4e-4 H 1.969 v -5.3438 l 12.594,-13.109 H 2.501 Z"
         id="path26" />
    </symbol>
    <symbol
       id="k"
       overflow="visible">
      <path
         d="M 27.734,-14.562 V 0 h -7.7031 v -11.156 c 0,-2.0625 -0.04687,-3.4844 -0.14062,-4.2656 -0.08594,-0.78125 -0.24219,-1.3594 -0.46875,-1.7344 -0.30469,-0.5 -0.71094,-0.88281 -1.2188,-1.1562 -0.51172,-0.28125 -1.0938,-0.42188 -1.75,-0.42188 -1.5938,0 -2.8516,0.61719 -3.7656,1.8438 -0.90625,1.2305 -1.3594,2.9375 -1.3594,5.125 v 11.766 h -7.6562 v -23.922 h 7.6562 v 3.5 c 1.1445,-1.3945 2.3633,-2.4219 3.6562,-3.0781 1.3008,-0.66406 2.7383,-1 4.3125,-1 2.7578,0 4.8516,0.85156 6.2812,2.5469 1.4375,1.6875 2.1562,4.1523 2.1562,7.3906 z"
         id="path29" />
    </symbol>
    <symbol
       id="j"
       overflow="visible">
      <path
         d="m 3.4219,-9.3125 v -14.609 h 7.6875 v 2.3906 c 0,1.293 -0.01172,2.918 -0.03125,4.875 -0.01172,1.9609 -0.01563,3.2656 -0.01563,3.9219 0,1.9297 0.04687,3.3125 0.14062,4.1562 0.10156,0.84375 0.28125,1.4609 0.53125,1.8438 0.3125,0.5 0.71875,0.88672 1.2188,1.1562 0.50781,0.27344 1.0938,0.40625 1.75,0.40625 1.5938,0 2.8438,-0.60938 3.75,-1.8281 0.91406,-1.2266 1.375,-2.9297 1.375,-5.1094 v -11.812 h 7.6406 v 23.922 h -7.6406 v -3.4531 c -1.1562,1.3867 -2.3828,2.4141 -3.6719,3.0781 -1.2812,0.66406 -2.6992,1 -4.25,1 -2.7734,0 -4.8828,-0.84766 -6.3281,-2.5469 -1.4375,-1.6953 -2.1562,-4.1602 -2.1562,-7.3906 z"
         id="path32" />
    </symbol>
    <symbol
       id="i"
       overflow="visible">
      <path
         d="m 3.6719,-33.234 h 7.6562 V 0 H 3.6719 Z"
         id="path35" />
    </symbol>
  </defs>
  <g
     id="g1410">
    <g
       id="g1295"
       style="fill:#418fde;fill-opacity:1">
      <path
         d="m 25.338547,41.067484 h -0.67762 c -0.670993,-0.0026 -1.313971,-0.268595 -1.790956,-0.740672 -0.259363,-0.258595 -0.609969,-0.404938 -0.975949,-0.407497 H 10.647813 c -0.456705,0 -0.8949864,-0.181451 -1.2178532,-0.504377 C 9.107093,39.092012 8.9255829,38.653731 8.9255829,38.197085 V 18.67811 c 0,-0.456704 0.181451,-0.894986 0.5043769,-1.217852 0.3229259,-0.322867 0.7612072,-0.504377 1.2178532,-0.504377 h 1.148175 c 0.152235,0 0.298322,0.06048 0.405961,0.168125 0.10764,0.107641 0.168126,0.253727 0.168126,0.405962 V 36.474856 H 22.70365 c 0.90345,0 1.75428,0.425441 2.29635,1.148175 0.54205,-0.72276 1.3929,-1.148175 2.29635,-1.148175 H 37.629925 V 17.529968 c 0,-0.317027 0.25706,-0.574087 0.574087,-0.574087 h 1.148175 c 0.456705,0 0.894986,0.181451 1.217853,0.504377 0.322867,0.322925 0.504377,0.761207 0.504377,1.217852 v 19.518975 c 0,0.456705 -0.181451,0.894986 -0.504377,1.217853 -0.322926,0.322867 -0.761207,0.504377 -1.217853,0.504377 h -11.24621 c -0.365979,0.0026 -0.716592,0.148902 -0.975949,0.407497 -0.476951,0.472084 -1.119962,0.738113 -1.790956,0.740672 z m -14.690734,-22.9635 c -0.317028,0 -0.574088,0.25706 -0.574088,0.574087 v 19.518975 c 0,0.152235 0.06048,0.298322 0.168126,0.405962 0.107641,0.10764 0.253727,0.168126 0.405962,0.168126 h 11.246209 c 0.670994,0.0026 1.313972,0.268594 1.790957,0.740671 0.259362,0.258595 0.609969,0.404938 0.975948,0.407497 h 0.67762 c 0.36598,-0.0026 0.716593,-0.148902 0.975949,-0.407497 0.476952,-0.472084 1.119963,-0.738113 1.790956,-0.740671 h 11.24621 c 0.152235,0 0.298323,-0.06049 0.405962,-0.168126 0.10764,-0.107641 0.168126,-0.253727 0.168126,-0.405962 V 18.678071 c 0,-0.152235 -0.06048,-0.298322 -0.168126,-0.405962 -0.10764,-0.10764 -0.253727,-0.168125 -0.405962,-0.168125 h -0.574087 v 18.944887 c 0,0.152235 -0.06048,0.298322 -0.168126,0.405962 -0.10764,0.10764 -0.253727,0.168126 -0.405962,0.168126 H 27.295825 c -0.456705,0 -0.894986,0.181451 -1.217853,0.504376 -0.322867,0.322926 -0.504377,0.761208 -0.504377,1.217853 0,0.317028 -0.25706,0.574088 -0.574087,0.574088 -0.317028,0 -0.574088,-0.25706 -0.574088,-0.574088 0,-0.456704 -0.181451,-0.894986 -0.504377,-1.217853 -0.322925,-0.322866 -0.761207,-0.504376 -1.217852,-0.504376 H 11.795528 c -0.317027,0 -0.574087,-0.25706 -0.574087,-0.574088 V 18.103984 Z"
         id="path40"
         style="stroke-width:0.729;stroke-miterlimit:4;stroke-dasharray:none;fill:#418fde;fill-opacity:1" />
      <path
         d="m 25,39.919309 c -0.317028,0 -0.574088,-0.25706 -0.574088,-0.574088 v -20.66715 c 0,-0.761207 0.302423,-1.491315 0.840596,-2.029842 0.538461,-0.538206 1.268635,-0.840595 2.029842,-0.840595 h 10.907662 c 0.152235,0 0.298322,0.06048 0.405962,0.168125 0.10764,0.107641 0.168126,0.253727 0.168126,0.405962 v 20.66715 c 0,0.152235 -0.06048,0.298322 -0.168126,0.405962 -0.10764,0.10764 -0.253727,0.168126 -0.405962,0.168126 H 27.29635 c -0.456705,0 -0.894986,0.181451 -1.217853,0.504376 -0.322867,0.322926 -0.504377,0.761208 -0.504377,1.217853 0,0.152235 -0.06048,0.298322 -0.168125,0.405962 -0.107641,0.10764 -0.253727,0.168126 -0.405962,0.168126 z m 2.29635,-22.9635 c -0.456705,0 -0.894986,0.181451 -1.217853,0.504376 -0.322867,0.322926 -0.504377,0.761208 -0.504377,1.217853 v 18.3708 c 0.496943,-0.372645 1.101264,-0.574087 1.722263,-0.574087 H 37.629958 V 16.955776 Z"
         id="path42"
         style="stroke-width:0.729;stroke-miterlimit:4;stroke-dasharray:none;fill:#418fde;fill-opacity:1" />
      <path
         d="m 25,39.919309 c -0.317028,0 -0.574088,-0.25706 -0.574088,-0.574088 0,-0.456705 -0.181451,-0.894986 -0.504377,-1.217853 -0.322925,-0.322867 -0.761207,-0.504377 -1.217852,-0.504377 H 11.79602 c -0.317027,0 -0.574087,-0.25706 -0.574087,-0.574087 v -20.66715 c 0,-0.317028 0.25706,-0.574088 0.574087,-0.574088 h 10.907663 c 0.761207,0 1.491315,0.302423 2.029842,0.840596 0.538205,0.538461 0.840595,1.268635 0.840595,2.029842 v 20.66715 c 0,0.152235 -0.06048,0.298322 -0.168125,0.405962 -0.107641,0.10764 -0.253727,0.168125 -0.405962,0.168125 z M 12.370075,36.474784 H 22.70365 c 0.620985,0 1.225332,0.201442 1.722262,0.574087 v -18.3708 c 0,-0.456705 -0.181451,-0.894986 -0.504377,-1.217853 -0.322925,-0.322867 -0.761207,-0.504377 -1.217852,-0.504377 H 12.370108 Z"
         id="path44"
         style="stroke-width:0.729;stroke-miterlimit:4;stroke-dasharray:none;fill:#418fde;fill-opacity:1" />
      <path
         d="m 31.314962,26.853077 -0.235271,-0.109182 c -0.132243,-0.0287 -3.209247,-1.492627 -3.209247,-4.661656 0,-1.23045 0.656625,-2.367602 1.722262,-2.982958 1.065638,-0.615356 2.378888,-0.61535 3.444525,0 1.065638,0.615349 1.722263,1.752508 1.722263,2.982958 0,3.169029 -3.076978,4.5927 -3.209248,4.661656 z m 0,-7.026831 c -0.602024,0 -1.180192,0.236301 -1.609741,0.658396 -0.429542,0.421853 -0.676111,0.995698 -0.686609,1.597735 0,2.003664 1.659212,3.134387 2.29635,3.496291 0.631497,-0.361622 2.29635,-1.492627 2.29635,-3.496291 -0.0105,-0.602024 -0.25706,-1.175862 -0.686608,-1.597735 C 32.495162,20.062534 31.917,19.826246 31.314962,19.826246 Z"
         id="path46"
         style="stroke-width:0.729;stroke-miterlimit:4;stroke-dasharray:none;fill:#418fde;fill-opacity:1" />
      <path
         d="m 31.314962,23.218939 c -0.307547,-2.62e-4 -0.602024,-0.123786 -0.817566,-0.342917 -0.215542,-0.219387 -0.334204,-0.515655 -0.329329,-0.823209 0.0049,-0.307291 0.132755,-0.59997 0.354963,-0.812186 0.222457,-0.212465 0.520523,-0.326771 0.827801,-0.317539 0.307291,0.0095 0.59818,0.141731 0.807069,0.367009 0.209132,0.225534 0.319081,0.525392 0.305237,0.83246 -0.01333,0.295501 -0.140189,0.574343 -0.353933,0.778594 -0.214,0.204263 -0.498485,0.318313 -0.794209,0.317801 z m 0,-1.148175 v 0.05177 z"
         id="path48"
         style="stroke-width:0.729;stroke-miterlimit:4;stroke-dasharray:none;fill:#418fde;fill-opacity:1" />
      <path
         d="M 32.176422,34.752521 H 18.11095 c -1.025419,0 -1.973155,-0.547174 -2.485766,-1.435219 -0.512834,-0.888031 -0.512834,-1.982406 0,-2.870437 0.512578,-0.888032 1.460347,-1.435219 2.485766,-1.435219 h 1.722262 c 0.820388,0 1.578511,-0.437743 1.988771,-1.148175 0.410062,-0.710425 0.410062,-1.585925 0,-2.29635 -0.410319,-0.710425 -1.168449,-1.148175 -1.988771,-1.148175 h -5.740875 c -0.317027,0 -0.574087,-0.25706 -0.574087,-0.574087 0,-0.317028 0.25706,-0.574088 0.574087,-0.574088 h 5.740875 c 1.230713,0 2.367865,0.656625 2.982959,1.722263 0.61535,1.065637 0.61535,2.378887 0,3.444525 -0.615094,1.065637 -1.752246,1.722262 -2.982959,1.722262 H 18.11095 c -0.61535,0 -1.183801,0.328306 -1.491578,0.861131 -0.307547,0.532826 -0.307547,1.189444 0,1.722263 0.307803,0.532825 0.876222,0.861131 1.491578,0.861131 h 14.065472 c 0.92287,0 1.7758,-0.492331 2.237432,-1.29173 0.461317,-0.799392 0.461317,-1.784001 0,-2.583393 -0.46158,-0.799393 -1.314497,-1.29173 -2.237432,-1.29173 h -1.435219 c -0.317028,0 -0.574088,-0.25706 -0.574088,-0.574088 0,-0.317027 0.25706,-0.574087 0.574088,-0.574087 h 1.435219 c 1.333195,0 2.564957,0.711212 3.231555,1.865817 0.666597,1.154605 0.666597,2.576964 0,3.731569 -0.666598,1.154605 -1.89836,1.865817 -3.231555,1.865817 z"
         id="path50"
         style="stroke-width:0.729;stroke-miterlimit:4;stroke-dasharray:none;fill:#418fde;fill-opacity:1" />
    </g>
    <g
       id="g1287"
       transform="translate(-51.185345,-22.198276)"
       style="fill:#418fde;fill-opacity:1">
      <g
         id="g1189"
         transform="matrix(0.729,0,0,0.729,6.4308885,10.770264)"
         style="stroke-width:1;stroke-miterlimit:4;stroke-dasharray:none;fill:#418fde;fill-opacity:1">
        <path
           d="M 123.98144,24.969908 H 67.389442 c -1.76661,0 -3.20418,1.43757 -3.20418,3.20418 v 43.5915 c 0,1.766969 1.43757,3.204179 3.20418,3.204179 h 56.591098 c 1.76697,0 3.20445,-1.43721 3.20445,-3.204179 v -43.5915 c 0,-1.76661 -1.43757,-3.20418 -3.20418,-3.20418 z m -56.591998,1.00017 h 56.591098 c 1.21572,0 2.20464,0.98856 2.20464,2.20392 v 5.062501 H 65.184982 v -5.062501 c 0,-1.21536 0.98892,-2.20392 2.20428,-2.20392 z m 56.591998,47.9997 H 67.389442 c -1.21536,0 -2.20428,-0.98892 -2.20428,-2.20428 V 34.236399 h 61.000198 v 37.529099 c 3.6e-4,1.21536 -0.98856,2.20428 -2.20392,2.20428 z"
           id="path70-7"
           style="stroke-width:0.09;fill:#418fde;fill-opacity:1" />
        <path
           d="m 122.84307,32.315801 c 1.13031,0 2.04993,-0.919711 2.04993,-2.04993 0,-1.130311 -0.91971,-2.049931 -2.04993,-2.049931 -1.1303,0 -2.04992,0.91935 -2.04992,2.049931 0,1.13031 0.91935,2.04993 2.04992,2.04993 z m 0,-3.100051 c 0.57903,0 1.05012,0.471096 1.05012,1.04976 0,0.579025 -0.47109,1.050121 -1.05012,1.050121 -0.57902,0 -1.05012,-0.471096 -1.05012,-1.050121 0,-0.578672 0.4711,-1.04976 1.05012,-1.04976 z"
           id="path72"
           style="stroke-width:0.09;fill:#418fde;fill-opacity:1" />
        <path
           d="m 117.15957,32.315801 c 1.13031,0 2.04993,-0.919711 2.04993,-2.04993 0,-1.130311 -0.91971,-2.049931 -2.04993,-2.049931 -1.13021,0 -2.04993,0.91935 -2.04993,2.049931 0,1.13031 0.91972,2.04993 2.04993,2.04993 z m 0,-3.100051 c 0.57903,0 1.05012,0.471096 1.05012,1.04976 0,0.579025 -0.47109,1.050121 -1.05012,1.050121 -0.57902,0 -1.05011,-0.471096 -1.05011,-1.050121 0,-0.578672 0.47109,-1.04976 1.05011,-1.04976 z"
           id="path74"
           style="stroke-width:0.09;fill:#418fde;fill-opacity:1" />
        <path
           d="m 111.47607,32.315801 c 1.13031,0 2.04993,-0.919711 2.04993,-2.04993 0,-1.130311 -0.9197,-2.049931 -2.04993,-2.049931 -1.13022,0 -2.04992,0.91935 -2.04992,2.049931 0,1.13031 0.9197,2.04993 2.04992,2.04993 z m 0,-3.100051 c 0.57903,0 1.05012,0.471096 1.05012,1.04976 0,0.579025 -0.47109,1.050121 -1.05012,1.050121 -0.57902,0 -1.05012,-0.471096 -1.05012,-1.050121 0,-0.578672 0.4711,-1.04976 1.05012,-1.04976 z"
           id="path76"
           style="stroke-width:0.09;fill:#418fde;fill-opacity:1" />
      </g>
    </g>
  </g>
</svg>
