<?xml version="1.0" encoding="UTF-8" standalone="no"?>
<svg
   width="50pt"
   height="50pt"
   version="1.1"
   viewBox="0 0 50 50"
   id="svg186"
   sodipodi:docname="icon-map-paper.svg"
   inkscape:version="1.1.1 (3bf5ae0d25, 2021-09-20)"
   xmlns:inkscape="http://www.inkscape.org/namespaces/inkscape"
   xmlns:sodipodi="http://sodipodi.sourceforge.net/DTD/sodipodi-0.dtd"
   xmlns="http://www.w3.org/2000/svg"
   xmlns:svg="http://www.w3.org/2000/svg">
  <sodipodi:namedview
     id="namedview188"
     pagecolor="#ffffff"
     bordercolor="#666666"
     borderopacity="1.0"
     inkscape:pageshadow="2"
     inkscape:pageopacity="0.0"
     inkscape:pagecheckerboard="0"
     inkscape:document-units="pt"
     showgrid="false"
     width="50pt"
     inkscape:zoom="3.48"
     inkscape:cx="65.229885"
     inkscape:cy="79.166667"
     inkscape:window-width="1920"
     inkscape:window-height="1001"
     inkscape:window-x="1271"
     inkscape:window-y="-9"
     inkscape:window-maximized="1"
     inkscape:current-layer="svg186" />
  <defs
     id="defs74">
    <symbol
       id="x"
       overflow="visible">
      <path
         d="m 18.766,-1.125 c -0.96875,0.5 -1.9805,0.875 -3.0312,1.125 -1.043,0.25781 -2.1367,0.39062 -3.2812,0.39062 -3.3984,0 -6.0898,-0.94531 -8.0781,-2.8438 -1.9922,-1.9062 -2.9844,-4.4844 -2.9844,-7.7344 0,-3.2578 0.99219,-5.8359 2.9844,-7.7344 1.9883,-1.9062 4.6797,-2.8594 8.0781,-2.8594 1.1445,0 2.2383,0.13281 3.2812,0.39062 1.0508,0.25 2.0625,0.625 3.0312,1.125 v 4.2188 c -0.98047,-0.65625 -1.9453,-1.1406 -2.8906,-1.4531 -0.94922,-0.3125 -1.9492,-0.46875 -3,-0.46875 -1.875,0 -3.3516,0.60547 -4.4219,1.8125 -1.0742,1.1992 -1.6094,2.8555 -1.6094,4.9688 0,2.1055 0.53516,3.7617 1.6094,4.9688 1.0703,1.1992 2.5469,1.7969 4.4219,1.7969 1.0508,0 2.0508,-0.14844 3,-0.45312 0.94531,-0.3125 1.9102,-0.80078 2.8906,-1.4688 z"
         id="path2" />
    </symbol>
    <symbol
       id="c"
       overflow="visible">
      <path
         d="m 13.734,-11.141 c -0.4375,-0.19531 -0.87109,-0.34375 -1.2969,-0.4375 -0.41797,-0.10156 -0.83984,-0.15625 -1.2656,-0.15625 -1.2617,0 -2.2305,0.40625 -2.9062,1.2188 -0.67969,0.80469 -1.0156,1.9531 -1.0156,3.4531 v 7.0625 H 2.3591 v -15.312 h 4.8906 v 2.5156 c 0.625,-1 1.3438,-1.7266 2.1562,-2.1875 0.82031,-0.46875 1.8008,-0.70312 2.9375,-0.70312 0.16406,0 0.34375,0.01172 0.53125,0.03125 0.19531,0.01172 0.47656,0.03906 0.84375,0.07813 z"
         id="path5" />
    </symbol>
    <symbol
       id="a"
       overflow="visible">
      <path
         d="m 17.641,-7.7031 v 1.4062 H 6.188 c 0.125,1.1484 0.53906,2.0078 1.25,2.5781 0.70703,0.57422 1.7031,0.85938 2.9844,0.85938 1.0312,0 2.082,-0.14844 3.1562,-0.45312 1.082,-0.3125 2.1914,-0.77344 3.3281,-1.3906 v 3.7656 c -1.1562,0.4375 -2.3125,0.76562 -3.4688,0.98438 -1.1562,0.22656 -2.3125,0.34375 -3.4688,0.34375 -2.7734,0 -4.9297,-0.70312 -6.4688,-2.1094 -1.5312,-1.4062 -2.2969,-3.3789 -2.2969,-5.9219 0,-2.5 0.75391,-4.4609 2.2656,-5.8906 1.5078,-1.4375 3.582,-2.1562 6.2188,-2.1562 2.4062,0 4.332,0.73047 5.7812,2.1875 1.4453,1.4492 2.1719,3.3828 2.1719,5.7969 z m -5.0312,-1.625 c 0,-0.92578 -0.27344,-1.6719 -0.8125,-2.2344 -0.54297,-0.57031 -1.25,-0.85938 -2.125,-0.85938 -0.94922,0 -1.7188,0.26562 -2.3125,0.79688 -0.5937,0.53126 -0.96484,1.2969 -1.1094,2.2969 z"
         id="path8" />
    </symbol>
    <symbol
       id="k"
       overflow="visible">
      <path
         d="m 9.2188,-6.8906 c -1.0234,0 -1.793,0.17188 -2.3125,0.51562 -0.51172,0.34375 -0.76562,0.85547 -0.76562,1.5312 0,0.625 0.20703,1.1172 0.625,1.4688 0.41406,0.34375 0.98828,0.51562 1.7188,0.51562 0.92578,0 1.7031,-0.32812 2.3281,-0.98438 0.63281,-0.66406 0.95312,-1.4922 0.95312,-2.4844 v -0.5625 z m 7.4688,-1.8438 V 0 h -4.9219 v -2.2656 c -0.65625,0.92969 -1.3984,1.6055 -2.2188,2.0312 -0.82422,0.41406 -1.8242,0.625 -3,0.625 -1.5859,0 -2.8711,-0.45703 -3.8594,-1.375 -0.99219,-0.92578 -1.4844,-2.1289 -1.4844,-3.6094 0,-1.7891 0.61328,-3.1016 1.8438,-3.9375 1.2383,-0.84375 3.1797,-1.2656 5.8281,-1.2656 h 2.8906 v -0.39062 c 0,-0.76953 -0.30859,-1.332 -0.92188,-1.6875 -0.61719,-0.36328 -1.5703,-0.54688 -2.8594,-0.54688 -1.0547,0 -2.0312,0.10547 -2.9375,0.3125 -0.89844,0.21094 -1.7305,0.52344 -2.5,0.9375 v -3.7344 c 1.0391,-0.25 2.0859,-0.44141 3.1406,-0.57812 1.0625,-0.13281 2.125,-0.20312 3.1875,-0.20312 2.7578,0 4.75,0.54688 5.9688,1.6406 1.2266,1.0859 1.8438,2.8555 1.8438,5.3125 z"
         id="path11" />
    </symbol>
    <symbol
       id="b"
       overflow="visible">
      <path
         d="m 7.7031,-19.656 v 4.3438 H 12.75 v 3.5 H 7.7031 v 6.5 c 0,0.71094 0.14062,1.1875 0.42188,1.4375 0.28126,0.25 0.83594,0.375 1.6719,0.375 h 2.5156 v 3.5 h -4.1875 c -1.9375,0 -3.3125,-0.39844 -4.125,-1.2031 -0.80469,-0.8125 -1.2031,-2.1797 -1.2031,-4.1094 v -6.5 h -2.4219 v -3.5 h 2.4219 v -4.3438 z"
         id="path14" />
    </symbol>
    <symbol
       id="j"
       overflow="visible">
      <path
         d="m 12.766,-13.078 v -8.2031 h 4.9219 V -1e-4 H 12.766 v -2.2188 c -0.66797,0.90625 -1.4062,1.5703 -2.2188,1.9844 -0.8126,0.4141 -1.7578,0.625 -2.8281,0.625 -1.8867,0 -3.4336,-0.75 -4.6406,-2.25 -1.2109,-1.5 -1.8125,-3.4258 -1.8125,-5.7812 0,-2.3633 0.60156,-4.2969 1.8125,-5.7969 1.207,-1.5 2.7539,-2.25 4.6406,-2.25 1.0625,0 2,0.21484 2.8125,0.64062 0.82031,0.42969 1.5664,1.0859 2.2344,1.9688 z m -3.2188,9.9219 c 1.0391,0 1.8359,-0.37891 2.3906,-1.1406 0.55078,-0.76953 0.82812,-1.8828 0.82812,-3.3438 0,-1.457 -0.27734,-2.5664 -0.82812,-3.3281 -0.55469,-0.76953 -1.3516,-1.1562 -2.3906,-1.1562 -1.043,0 -1.8398,0.38672 -2.3906,1.1562 -0.55469,0.76172 -0.82812,1.8711 -0.82812,3.3281 0,1.4609 0.27344,2.5742 0.82812,3.3438 0.55078,0.76172 1.3477,1.1406 2.3906,1.1406 z"
         id="path17" />
    </symbol>
    <symbol
       id="f"
       overflow="visible">
      <path
         d="m 10.5,-3.1562 c 1.0508,0 1.8516,-0.37891 2.4062,-1.1406 0.55078,-0.76953 0.82812,-1.8828 0.82812,-3.3438 0,-1.457 -0.27734,-2.5664 -0.82812,-3.3281 -0.55469,-0.76953 -1.3555,-1.1562 -2.4062,-1.1562 -1.0547,0 -1.8594,0.38672 -2.4219,1.1562 -0.55469,0.77344 -0.82812,1.8828 -0.82812,3.3281 0,1.4492 0.27344,2.5586 0.82812,3.3281 0.5625,0.77344 1.3672,1.1562 2.4219,1.1562 z m -3.25,-9.9219 c 0.67578,-0.88281 1.4219,-1.5391 2.2344,-1.9688 0.82031,-0.42578 1.7656,-0.64062 2.8281,-0.64062 1.8945,0 3.4453,0.75 4.6562,2.25 1.207,1.5 1.8125,3.4336 1.8125,5.7969 0,2.3555 -0.60547,4.2812 -1.8125,5.7812 -1.2109,1.5 -2.7617,2.25 -4.6562,2.25 -1.0625,0 -2.0078,-0.21094 -2.8281,-0.625 C 8.6719,-0.6602 7.9258,-1.32032 7.25,-2.21882 V -2e-5 H 2.3594 v -21.281 H 7.25 Z"
         id="path20" />
    </symbol>
    <symbol
       id="e"
       overflow="visible">
      <path
         d="m 0.34375,-15.312 h 4.8906 l 4.125,10.391 3.5,-10.391 h 4.8906 l -6.4375,16.766 c -0.64844,1.6953 -1.4023,2.8828 -2.2656,3.5625 -0.86719,0.6875 -2,1.0312 -3.4062,1.0312 H 2.79685 V 2.8289 h 1.5312 c 0.83203,0 1.4375,-0.13672 1.8125,-0.40625 C 6.52336,2.16093 6.82024,1.69218 7.03117,1.01645 L 7.17179,0.59457 Z"
         id="path23" />
    </symbol>
    <symbol
       id="i"
       overflow="visible">
      <path
         d="m 7.8281,-16.438 v 12.453 h 1.8906 c 2.1562,0 3.8008,-0.53125 4.9375,-1.5938 1.1328,-1.0625 1.7031,-2.6133 1.7031,-4.6562 0,-2.0195 -0.57031,-3.5547 -1.7031,-4.6094 -1.125,-1.0625 -2.7734,-1.5938 -4.9375,-1.5938 z m -5.25,-3.9688 H 8.125 c 3.0938,0 5.3984,0.21875 6.9219,0.65625 1.5195,0.4375 2.8203,1.1875 3.9062,2.25 0.95703,0.91797 1.6641,1.9805 2.125,3.1875 0.46875,1.1992 0.70312,2.5586 0.70312,4.0781 0,1.543 -0.23438,2.918 -0.70312,4.125 -0.46094,1.2109 -1.168,2.2773 -2.125,3.2031 -1.0938,1.0547 -2.4062,1.8047 -3.9375,2.25 C 13.4844,-0.21935 11.1875,-6e-4 8.125,-6e-4 H 2.5781 Z"
         id="path26" />
    </symbol>
    <symbol
       id="h"
       overflow="visible">
      <path
         d="m 14.312,-14.828 v 3.7188 c -1.043,-0.4375 -2.0547,-0.76562 -3.0312,-0.98438 -0.98047,-0.21875 -1.9023,-0.32812 -2.7656,-0.32812 -0.92969,0 -1.6211,0.11719 -2.0781,0.34375 -0.44922,0.23047 -0.67188,0.58984 -0.67188,1.0781 0,0.38672 0.17188,0.68359 0.51562,0.89062 0.34375,0.21094 0.95703,0.36719 1.8438,0.46875 l 0.85938,0.125 c 2.5078,0.32422 4.1953,0.85156 5.0625,1.5781 0.86328,0.73047 1.2969,1.8711 1.2969,3.4219 0,1.6367 -0.60547,2.8672 -1.8125,3.6875 -1.1992,0.8125 -2.9922,1.2188 -5.375,1.2188 -1.0234,0 -2.0742,-0.078125 -3.1562,-0.23438 -1.0742,-0.15625 -2.1797,-0.39453 -3.3125,-0.71875 v -3.7188 c 0.96875,0.48047 1.9609,0.83984 2.9844,1.0781 1.0312,0.23047 2.0781,0.34375 3.1406,0.34375 0.95703,0 1.6758,-0.12891 2.1562,-0.39062 0.47656,-0.26953 0.71875,-0.66406 0.71875,-1.1875 0,-0.4375 -0.16797,-0.75781 -0.5,-0.96875 -0.33594,-0.21875 -0.99609,-0.38281 -1.9844,-0.5 L 7.34339,-6.01551 c -2.1797,-0.26953 -3.7031,-0.77344 -4.5781,-1.5156 -0.875,-0.73828 -1.3125,-1.8594 -1.3125,-3.3594 0,-1.625 0.55078,-2.8281 1.6562,-3.6094 1.1133,-0.78906 2.8203,-1.1875 5.125,-1.1875 0.89453,0 1.8359,0.07422 2.8281,0.21875 1,0.13672 2.082,0.35156 3.25,0.64062 z"
         id="path29" />
    </symbol>
    <symbol
       id="w"
       overflow="visible">
      <path
         d="M 2.3594,-15.312 H 7.25 V 0 H 2.3594 Z m 0,-5.9688 H 7.25 v 4 H 2.3594 Z"
         id="path32" />
    </symbol>
    <symbol
       id="v"
       overflow="visible">
      <path
         d="m 12.766,-2.5938 c -0.66797,0.88672 -1.4062,1.543 -2.2188,1.9688 C 9.7347,-0.20703 8.7894,0 7.7191,0 5.8519,0 4.3129,-0.73438 3.0941,-2.2031 1.8753,-3.6797 1.266,-5.5547 1.266,-7.8281 c 0,-2.2891 0.60938,-4.1641 1.8281,-5.625 1.2188,-1.4688 2.7578,-2.2031 4.625,-2.2031 1.0703,0 2.0156,0.21484 2.8281,0.64062 0.8125,0.41797 1.5508,1.0742 2.2188,1.9688 v -2.2656 h 4.9219 v 13.766 c 0,2.457 -0.77734,4.3359 -2.3281,5.6406 -1.5547,1.3008 -3.8086,1.9531 -6.7656,1.9531 -0.94922,0 -1.8711,-0.074219 -2.7656,-0.21875 C 4.93016,5.68013 4.0317,5.45748 3.1255,5.15669 v -3.8125 c 0.86328,0.48828 1.7031,0.85156 2.5156,1.0938 0.82031,0.23828 1.6484,0.35938 2.4844,0.35938 1.6016,0 2.7734,-0.35156 3.5156,-1.0469 0.75,-0.69922 1.125,-1.7969 1.125,-3.2969 z M 9.5472,-12.125 c -1.0117,0 -1.8047,0.375 -2.375,1.125 -0.5625,0.74219 -0.84375,1.7969 -0.84375,3.1719 0,1.3984 0.26953,2.4609 0.8125,3.1875 0.55078,0.71875 1.3516,1.0781 2.4062,1.0781 1.0195,0 1.8125,-0.36719 2.375,-1.1094 0.5625,-0.75 0.84375,-1.8008 0.84375,-3.1562 0,-1.375 -0.28125,-2.4297 -0.84375,-3.1719 -0.5625,-0.75 -1.3555,-1.125 -2.375,-1.125 z"
         id="path35" />
    </symbol>
    <symbol
       id="g"
       overflow="visible">
      <path
         d="M 17.75,-9.3281 V 0 h -4.9219 v -7.1406 c 0,-1.3203 -0.03125,-2.2344 -0.09375,-2.7344 -0.0625,-0.5 -0.16797,-0.86719 -0.3125,-1.1094 -0.1875,-0.3125 -0.44922,-0.55469 -0.78125,-0.73438 -0.32422,-0.17578 -0.69531,-0.26562 -1.1094,-0.26562 -1.0234,0 -1.8242,0.39844 -2.4062,1.1875 -0.58594,0.78125 -0.875,1.8711 -0.875,3.2656 V -1e-4 H 2.3594 v -15.312 H 7.25 v 2.2344 c 0.73828,-0.88281 1.5195,-1.5391 2.3438,-1.9688 0.83203,-0.42578 1.75,-0.64062 2.75,-0.64062 1.7695,0 3.1133,0.54688 4.0312,1.6406 0.91406,1.0859 1.375,2.6562 1.375,4.7188 z"
         id="path38" />
    </symbol>
    <symbol
       id="u"
       overflow="visible">
      <path
         d="m 2.5781,-20.406 h 6.6875 l 4.6562,10.922 4.6719,-10.922 h 6.6875 V 0 H 20.2968 V -14.938 L 15.5937,-3.922 H 12.2656 L 7.5625,-14.938 V 0 H 2.5781 Z"
         id="path41" />
    </symbol>
    <symbol
       id="t"
       overflow="visible">
      <path
         d="m 10.75,-12.516 c 0.82031,0 1.4453,-0.17969 1.875,-0.54688 0.4375,-0.36328 0.65625,-0.89844 0.65625,-1.6094 0,-0.69531 -0.21875,-1.2266 -0.65625,-1.5938 -0.42969,-0.375 -1.0547,-0.5625 -1.875,-0.5625 H 7.8281 v 4.3125 z m 0.17188,8.9375 c 1.0625,0 1.8594,-0.22266 2.3906,-0.67188 0.53125,-0.44531 0.79688,-1.125 0.79688,-2.0312 0,-0.88281 -0.26562,-1.5469 -0.79688,-1.9844 -0.52344,-0.4375 -1.3203,-0.65625 -2.3906,-0.65625 h -3.0938 v 5.3438 z m 4.8906,-7.3438 c 1.1328,0.32422 2.0078,0.92969 2.625,1.8125 0.625,0.88672 0.9375,1.9688 0.9375,3.25 0,1.9688 -0.66797,3.4375 -2,4.4062 -1.3359,0.96875 -3.3555,1.4531 -6.0625,1.4531 h -8.7344 v -20.406 h 7.8906 c 2.832,0 4.8828,0.42969 6.1562,1.2812 1.2812,0.85547 1.9219,2.2266 1.9219,4.1094 0,1 -0.23438,1.8516 -0.70312,2.5469 -0.46875,0.6875 -1.1484,1.2031 -2.0312,1.5469 z"
         id="path44" />
    </symbol>
    <symbol
       id="s"
       overflow="visible">
      <path
         d="m 12.422,-21.281 v 3.2188 H 9.7189 c -0.6875,0 -1.1719,0.125 -1.4531,0.375 -0.27344,0.25 -0.40625,0.6875 -0.40625,1.3125 v 1.0625 h 4.1875 v 3.5 H 7.85955 V -2e-4 h -4.8906 v -11.812 h -2.4375 v -3.5 h 2.4375 v -1.0625 c 0,-1.6641 0.46094,-2.8984 1.3906,-3.7031 0.92578,-0.80078 2.3672,-1.2031 4.3281,-1.2031 z"
         id="path47" />
    </symbol>
    <symbol
       id="d"
       overflow="visible">
      <path
         d="m 9.6406,-12.188 c -1.0859,0 -1.9141,0.39062 -2.4844,1.1719 -0.57422,0.78125 -0.85938,1.9062 -0.85938,3.375 0,1.4688 0.28516,2.5938 0.85938,3.375 0.57031,0.77344 1.3984,1.1562 2.4844,1.1562 1.0625,0 1.875,-0.38281 2.4375,-1.1562 0.57031,-0.78125 0.85938,-1.9062 0.85938,-3.375 0,-1.4688 -0.28906,-2.5938 -0.85938,-3.375 -0.5625,-0.78125 -1.375,-1.1719 -2.4375,-1.1719 z m 0,-3.5 c 2.6328,0 4.6914,0.71484 6.1719,2.1406 1.4766,1.418 2.2188,3.3867 2.2188,5.9062 0,2.5117 -0.74219,4.4805 -2.2188,5.9062 C 14.332,-0.317 12.2734,0.39 9.6406,0.39 6.9922,0.39 4.9258,-0.31703 3.4375,-1.735 1.9453,-3.1608 1.2031,-5.1295 1.2031,-7.6412 c 0,-2.5195 0.74219,-4.4883 2.2344,-5.9062 1.4883,-1.4258 3.5547,-2.1406 6.2031,-2.1406 z"
         id="path50" />
    </symbol>
    <symbol
       id="r"
       overflow="visible">
      <path
         d="m 16.547,-12.766 c 0.61328,-0.94531 1.3477,-1.6719 2.2031,-2.1719 0.85156,-0.5 1.7891,-0.75 2.8125,-0.75 1.7578,0 3.0977,0.54688 4.0156,1.6406 0.92578,1.0859 1.3906,2.6562 1.3906,4.7188 V -4e-4 h -4.9219 v -7.9844 -0.35938 c 0.0078,-0.13281 0.01563,-0.32031 0.01563,-0.5625 0,-1.082 -0.16406,-1.8633 -0.48438,-2.3438 -0.3125,-0.48828 -0.82422,-0.73438 -1.5312,-0.73438 -0.92969,0 -1.6484,0.38672 -2.1562,1.1562 -0.51172,0.76172 -0.77344,1.8672 -0.78125,3.3125 v 7.5156 h -4.9219 v -7.9844 c 0,-1.6953 -0.14844,-2.7852 -0.4375,-3.2656 -0.29297,-0.48828 -0.8125,-0.73438 -1.5625,-0.73438 -0.9375,0 -1.6641,0.38672 -2.1719,1.1562 -0.51172,0.76172 -0.76562,1.8594 -0.76562,3.2969 v 7.5312 h -4.9219 v -15.312 h 4.9219 v 2.2344 c 0.60156,-0.86328 1.2891,-1.5156 2.0625,-1.9531 0.78125,-0.4375 1.6406,-0.65625 2.5781,-0.65625 1.0625,0 2,0.25781 2.8125,0.76562 0.8125,0.51172 1.4258,1.2305 1.8438,2.1562 z"
         id="path53" />
    </symbol>
    <symbol
       id="q"
       overflow="visible">
      <path
         d="M 17.75,-9.3281 V 0 h -4.9219 v -7.1094 c 0,-1.3438 -0.03125,-2.2656 -0.09375,-2.7656 -0.0625,-0.5 -0.16797,-0.86719 -0.3125,-1.1094 -0.1875,-0.3125 -0.44922,-0.55469 -0.78125,-0.73438 -0.32422,-0.17578 -0.69531,-0.26562 -1.1094,-0.26562 -1.0234,0 -1.8242,0.39844 -2.4062,1.1875 -0.58594,0.78125 -0.875,1.8711 -0.875,3.2656 V -1e-4 H 2.3594 v -21.281 H 7.25 v 8.2031 c 0.73828,-0.88281 1.5195,-1.5391 2.3438,-1.9688 0.83203,-0.42578 1.75,-0.64062 2.75,-0.64062 1.7695,0 3.1133,0.54688 4.0312,1.6406 0.91406,1.0859 1.375,2.6562 1.375,4.7188 z"
         id="path56" />
    </symbol>
    <symbol
       id="p"
       overflow="visible">
      <path
         d="m 2.5781,-20.406 h 5.875 l 7.4219,14 v -14 h 4.9844 V 0 h -5.875 L 7.5625,-14 V 0 H 2.5781 Z"
         id="path59" />
    </symbol>
    <symbol
       id="o"
       overflow="visible">
      <path
         d="m 2.1875,-5.9688 v -9.3438 h 4.9219 v 1.5312 c 0,0.83594 -0.00781,1.875 -0.015625,3.125 -0.011719,1.25 -0.015625,2.0859 -0.015625,2.5 0,1.2422 0.03125,2.1328 0.09375,2.6719 0.070313,0.54297 0.17969,0.93359 0.32812,1.1719 0.20703,0.32422 0.47266,0.57422 0.79688,0.75 0.32031,0.16797 0.69141,0.25 1.1094,0.25 1.0195,0 1.8203,-0.39062 2.4062,-1.1719 0.58203,-0.78125 0.875,-1.8672 0.875,-3.2656 v -7.5625 h 4.8906 V -6e-4 H 12.6875 V -2.2194 C 11.94531,-1.32096 11.1641,-0.6608 10.3437,-0.235 9.51948,0.17906 8.6093,0.39 7.6093,0.39 5.8476,0.39 4.5038,-0.14906 3.5781,-1.235 2.64841,-2.317 2.1875,-3.8952 2.1875,-5.9694 Z"
         id="path62" />
    </symbol>
    <symbol
       id="n"
       overflow="visible">
      <path
         d="m 2.5781,-20.406 h 8.7344 c 2.5938,0 4.582,0.57812 5.9688,1.7344 1.3945,1.1484 2.0938,2.7891 2.0938,4.9219 0,2.1367 -0.69922,3.7812 -2.0938,4.9375 -1.3867,1.1562 -3.375,1.7344 -5.9688,1.7344 H 7.8281 V 3e-4 h -5.25 z m 5.25,3.8125 v 5.7031 H 10.75 c 1.0195,0 1.8047,-0.25 2.3594,-0.75 0.5625,-0.5 0.84375,-1.2031 0.84375,-2.1094 0,-0.91406 -0.28125,-1.6172 -0.84375,-2.1094 -0.55469,-0.48828 -1.3398,-0.73438 -2.3594,-0.73438 z"
         id="path65" />
    </symbol>
    <symbol
       id="m"
       overflow="visible">
      <path
         d="M 2.3594,-15.312 H 7.25 v 15.031 c 0,2.0508 -0.49609,3.6172 -1.4844,4.7031 -0.98047,1.082 -2.4062,1.625 -4.2812,1.625 H -0.9375 V 2.8283 h 0.85938 c 0.92578,0 1.5625,-0.21094 1.9062,-0.625 0.35156,-0.41797 0.53125,-1.2461 0.53125,-2.4844 z m 0,-5.9688 H 7.25 v 4 H 2.3594 Z"
         id="path68" />
    </symbol>
    <symbol
       id="l"
       overflow="visible">
      <path
         d="m 14.719,-14.828 v 3.9844 c -0.65625,-0.45703 -1.3242,-0.79688 -2,-1.0156 -0.66797,-0.21875 -1.3594,-0.32812 -2.0781,-0.32812 -1.3672,0 -2.4336,0.40234 -3.2031,1.2031 -0.76172,0.79297 -1.1406,1.9062 -1.1406,3.3438 0,1.4297 0.37891,2.543 1.1406,3.3438 0.76953,0.79297 1.8359,1.1875 3.2031,1.1875 0.75781,0 1.4844,-0.10938 2.1719,-0.32812 0.6875,-0.22656 1.3203,-0.56641 1.9062,-1.0156 v 4 c -0.76172,0.28125 -1.5391,0.48828 -2.3281,0.625 -0.78125,0.14453 -1.5742,0.21875 -2.375,0.21875 -2.7617,0 -4.9219,-0.70703 -6.4844,-2.125 -1.5547,-1.4141 -2.3281,-3.3828 -2.3281,-5.9062 0,-2.5312 0.77344,-4.5039 2.3281,-5.9219 1.5625,-1.4141 3.7227,-2.125 6.4844,-2.125 0.80078,0 1.5938,0.07422 2.375,0.21875 0.78125,0.13672 1.5547,0.35156 2.3281,0.64062 z"
         id="path71" />
    </symbol>
  </defs>
  <g
     id="g1155"
     transform="translate(-1.3763459,-0.78085399)"
     style="fill:#418fde;fill-opacity:1">
    <path
       d="m 7.7470628,36.596708 9.1035902,3.601665 c 0.05347,0.0212 0.110427,0.03196 0.16801,0.03196 0.218003,3.24e-4 0.405632,-0.154086 0.446448,-0.368299 0.04113,-0.214204 -0.07594,-0.427145 -0.278754,-0.507198 L 15.943493,38.864719 8.3683733,35.866423 v -3.83292 c 0,-0.250274 -0.2031318,-0.453414 -0.4537296,-0.453414 -0.2502738,0 -0.4534137,0.203132 -0.4534137,0.453414 v 4.141449 c -3.24e-4,0.186049 0.1129545,0.353111 0.2857113,0.421767 z"
       id="path76"
       style="stroke-width:0.081;fill:#418fde;fill-opacity:1" />
    <path
       d="m 46.955923,13.331888 -13.608,-5.3843129 H 33.021396 L 19.572156,13.263848 6.1318256,7.9475751 C 5.9926028,7.8918876 5.8344017,7.9089737 5.7100586,7.9931376 5.5850756,8.0776206 5.5104098,8.2187388 5.5104098,8.3693421 V 37.812842 c 0,0.186049 0.1132704,0.353111 0.2860272,0.422083 l 13.608,5.379534 c 0.0965,0.03639 0.202816,0.03639 0.299319,0 l 13.47678,-5.316273 13.44033,5.316273 c 0.05316,0.0212 0.110112,0.03196 0.167695,0.03196 0.09049,0 0.179083,-0.0269 0.254072,-0.0772 0.124983,-0.08448 0.199649,-0.225601 0.199649,-0.37652 v -29.43864 c 0,-0.185733 -0.11327,-0.353112 -0.286027,-0.421767 z m -27.83727,13.21758 -0.657809,0.45373 h 3.24e-4 c -0.168326,0.108524 -0.245212,0.314191 -0.189848,0.506566 0.05536,0.192375 0.230024,0.325579 0.429997,0.328114 0.08701,-3.24e-4 0.172124,-0.02563 0.245211,-0.07277 L 19.118653,27.63348 V 42.52533 L 6.4178528,37.503978 V 9.0357178 L 19.118653,14.061525 Z m 13.608,-6.613488 c -0.363237,-0.03607 -0.729632,-0.03607 -1.093176,0 -0.120552,0.01139 -0.231296,0.07056 -0.308181,0.164527 -0.07657,0.09365 -0.112638,0.214205 -0.09999,0.334441 0.02626,0.247431 0.246799,0.427461 0.494545,0.403737 0.334757,-0.0367 0.672365,-0.0367 1.00683,0 v 16.64712 l -12.7008,5.039739 v -15.48153 l 0.480938,-0.322105 h -3.24e-4 c 0.100934,-0.06645 0.170861,-0.170546 0.194586,-0.288878 0.02373,-0.118333 -3.24e-4,-0.241421 -0.06739,-0.341723 -0.134793,-0.199333 -0.401202,-0.258819 -0.607816,-0.136056 v -11.89323 l 12.7008,-5.0258069 z m 13.608,22.58928 -12.7008,-5.021028 v -16.50699 c 0.141434,-0.04018 0.25502,-0.146812 0.30375,-0.285711 0.08132,-0.236674 -0.04461,-0.494546 -0.281289,-0.576178 V 9.0359235 l 12.67812,5.0258075 z"
       id="path78"
       style="stroke-width:0.081;fill:#418fde;fill-opacity:1" />
    <path
       d="m 27.791323,13.799258 0.145233,-0.05885 2.521773,-0.998244 v 4.472739 c 0,0.250274 0.203132,0.453413 0.453729,0.453413 0.250598,0 0.45373,-0.203131 0.45373,-0.453413 v -5.139369 c 0,-0.150928 -0.07467,-0.292046 -0.199649,-0.376521 -0.124351,-0.08385 -0.282552,-0.100934 -0.421767,-0.04524 l -3.288762,1.30167 c -0.232875,0.0927 -0.346777,0.356902 -0.254073,0.589777 0.09271,0.232875 0.356587,0.346777 0.589778,0.254072 z"
       id="path80"
       style="stroke-width:0.081;fill:#418fde;fill-opacity:1" />
    <path
       d="m 13.475383,29.552948 c 0.04366,0.0063 0.08796,0.0063 0.131625,0 0.250598,0.0348 0.482201,-0.139855 0.517007,-0.390128 0.03512,-0.250598 -0.139539,-0.482201 -0.389813,-0.517323 -0.518586,-0.169274 -0.986256,-0.465434 -1.360881,-0.861597 -0.176871,-0.175924 -0.462583,-0.175924 -0.63977,0 -0.08575,0.08512 -0.134152,0.20092 -0.134152,0.321789 0,0.121184 0.04841,0.236989 0.134152,0.322104 0.474295,0.518587 1.074222,0.906228 1.741824,1.125171 z"
       id="path82"
       style="stroke-width:0.081;fill:#418fde;fill-opacity:1" />
    <path
       d="m 15.426673,29.544038 c 0.04651,0.0063 0.09398,0.0063 0.140486,0 0.612247,-0.213573 1.203012,-0.483789 1.764585,-0.807473 0.219267,-0.125299 0.295205,-0.404368 0.17023,-0.623635 -0.125299,-0.219267 -0.404684,-0.29552 -0.623951,-0.17023 -0.508462,0.296477 -1.044738,0.542636 -1.601046,0.735011 -0.21073,0.06929 -0.340451,0.280649 -0.306917,0.499924 0.03385,0.219267 0.22117,0.381898 0.442972,0.384434 z"
       id="path84"
       style="stroke-width:0.081;fill:#418fde;fill-opacity:1" />
    <path
       d="m 10.069333,24.517988 c -0.2354024,0.08512 -0.3572264,0.344882 -0.2721116,0.580608 0.2132566,0.606237 0.4742956,1.19475 0.7802566,1.759887 0.07974,0.145865 0.232875,0.236358 0.39899,0.235726 0.07594,6.48e-4 0.150927,-0.01803 0.217688,-0.05442 0.105364,-0.05822 0.183197,-0.15599 0.216423,-0.271796 0.03322,-0.115489 0.01898,-0.239833 -0.03923,-0.344881 -0.281921,-0.529983 -0.523017,-1.080216 -0.721403,-1.646568 -0.09081,-0.230024 -0.348996,-0.345198 -0.580608,-0.258504 z"
       id="path86"
       style="stroke-width:0.081;fill:#418fde;fill-opacity:1" />
    <path
       d="m 39.335443,31.906808 c 0.344882,0.573642 0.785319,1.084671 1.30167,1.510488 0.08037,0.06233 0.179723,0.09587 0.281289,0.09524 0.137319,3.24e-4 0.267364,-0.06138 0.353743,-0.167694 0.07625,-0.09398 0.111691,-0.213889 0.09904,-0.334125 -0.01266,-0.119921 -0.07277,-0.230024 -0.167062,-0.305646 -0.438226,-0.359753 -0.810972,-0.792601 -1.102005,-1.279233 -0.05917,-0.111059 -0.162,-0.192691 -0.2835,-0.224961 -0.121816,-0.03259 -0.251546,-0.01297 -0.358174,0.05379 -0.106628,0.06708 -0.18067,0.175292 -0.204395,0.299003 -0.02373,0.123396 0.0051,0.251546 0.07942,0.353112 z"
       id="path88"
       style="stroke-width:0.081;fill:#418fde;fill-opacity:1" />
    <path
       d="m 37.756753,28.464308 c 0.262934,0.666671 0.480937,1.215648 0.707486,1.732671 0.07246,0.165799 0.236674,0.272743 0.417337,0.272111 0.06075,-9.47e-4 0.120868,-0.01329 0.176871,-0.03607 0.111059,-0.04778 0.198385,-0.137951 0.242684,-0.250273 0.0443,-0.112639 0.04177,-0.237938 -0.0066,-0.348681 -0.217687,-0.521438 -0.430944,-1.043199 -0.671417,-1.701 -0.09144,-0.234139 -0.355323,-0.349944 -0.589461,-0.258504 -0.234455,0.09144 -0.35026,0.355639 -0.258819,0.589778 z"
       id="path90"
       style="stroke-width:0.081;fill:#418fde;fill-opacity:1" />
    <path
       d="m 35.053783,22.508378 c 0.172441,0.308497 0.335704,0.612247 0.489799,0.907119 0.07815,0.150927 0.233822,0.245211 0.403736,0.244895 0.07246,-0.0013 0.14333,-0.01835 0.20851,-0.04999 0.222434,-0.112954 0.311664,-0.38475 0.199649,-0.607816 -0.163264,-0.308496 -0.331274,-0.621424 -0.508145,-0.943488 l 3.24e-4,3.24e-4 c -0.141118,-0.256292 -0.305014,-0.499292 -0.490115,-0.725833 -0.158833,-0.19427 -0.445184,-0.22275 -0.639455,-0.0636 -0.19427,0.159149 -0.22275,0.4455 -0.0636,0.639455 0.152191,0.186365 0.286028,0.386645 0.399306,0.598954 z"
       id="path92"
       style="stroke-width:0.081;fill:#418fde;fill-opacity:1" />
    <path
       d="m 36.355453,25.066358 c 0.240473,0.526184 0.480937,1.079568 0.725833,1.682937 0.07024,0.170861 0.236989,0.282236 0.421767,0.281289 0.05917,6.48e-4 0.117701,-0.01013 0.172441,-0.03196 0.111375,-0.04588 0.199972,-0.134476 0.245851,-0.246167 0.04588,-0.111375 0.04556,-0.236674 -9.48e-4,-0.348049 -0.249326,-0.616993 -0.494545,-1.179279 -0.743872,-1.719063 -0.104733,-0.225917 -0.372097,-0.324948 -0.598638,-0.222118 -0.109796,0.05031 -0.194902,0.142066 -0.236674,0.255336 -0.04177,0.11327 -0.03639,0.238253 0.01424,0.347733 z"
       id="path94"
       style="stroke-width:0.081;fill:#418fde;fill-opacity:1" />
    <path
       d="m 24.902053,23.733098 c 0.0848,0 0.16801,-0.02341 0.240473,-0.06834 0.57143,-0.353743 1.088721,-0.657809 1.582983,-0.934335 0.218003,-0.125299 0.292993,-0.40342 0.167694,-0.621424 -0.125299,-0.218003 -0.403421,-0.292993 -0.621424,-0.167694 -0.503399,0.281289 -1.03437,0.589777 -1.614978,0.952722 l 3.24e-4,-3.24e-4 c -0.171809,0.106629 -0.252493,0.313875 -0.197753,0.508461 0.05474,0.194587 0.231295,0.329379 0.433479,0.330958 z"
       id="path96"
       style="stroke-width:0.081;fill:#418fde;fill-opacity:1" />
    <path
       d="m 21.794893,25.760528 c 0.09081,-0.0013 0.179399,-0.02974 0.253757,-0.08163 0.503398,-0.340135 1.020762,-0.685017 1.537704,-1.025136 0.18826,-0.144277 0.233506,-0.40943 0.104101,-0.607816 -0.12973,-0.198701 -0.390445,-0.263881 -0.598323,-0.149663 -0.532194,0.344566 -1.049517,0.689447 -1.551312,1.034046 -0.165799,0.111375 -0.239201,0.318305 -0.18067,0.509417 0.05822,0.190795 0.23477,0.321149 0.434743,0.320833 z"
       id="path98"
       style="stroke-width:0.081;fill:#418fde;fill-opacity:1" />
    <path
       d="m 29.728033,20.362688 c -0.604017,0.199649 -1.195074,0.437586 -1.76904,0.712233 -0.189848,0.09176 -0.291098,0.302486 -0.24458,0.508145 0.04651,0.205983 0.228761,0.35248 0.439806,0.353428 0.0655,-3.24e-4 0.130361,-0.01424 0.19048,-0.04082 0.539476,-0.256608 1.093824,-0.480937 1.660176,-0.671101 0.115174,-0.03734 0.210729,-0.119289 0.265461,-0.227497 0.05442,-0.108208 0.06328,-0.233822 0.02468,-0.34868 -0.07973,-0.233823 -0.331598,-0.360702 -0.567,-0.285712 z"
       id="path100"
       style="stroke-width:0.081;fill:#418fde;fill-opacity:1" />
    <path
       d="m 42.451513,34.328708 c 0.311024,0.08638 0.62775,0.151559 0.947943,0.195226 h 0.0636 c 0.250274,0.0174 0.467645,-0.171493 0.485368,-0.421767 0.0174,-0.250597 -0.171493,-0.467961 -0.422083,-0.485368 -0.276858,-0.03544 -0.551181,-0.08986 -0.820773,-0.163264 -0.241736,-0.06898 -0.493598,0.07119 -0.562569,0.312928 -0.06897,0.241735 0.07119,0.493598 0.312927,0.562253 z"
       id="path102"
       style="stroke-width:0.081;fill:#418fde;fill-opacity:1" />
    <path
       d="m 7.5931628,24.132428 c 0.085431,0.0848 0.2012364,0.132257 0.3217887,0.131625 0.1192887,-6.48e-4 0.2331909,-0.04778 0.3176739,-0.131625 l 0.993546,-0.993546 c 0,0.04525 0.022781,0.08606 0.03164,0.136056 v 3.24e-4 c 0.04936,0.209142 0.2385693,0.355007 0.4537296,0.348996 0.034488,0.0047 0.06961,0.0047 0.1041012,0 0.1164375,-0.02689 0.2173718,-0.0984 0.2812888,-0.199333 l 0.716664,0.721087 c 0.08512,0.08575 0.201236,0.134152 0.322104,0.134152 0.120869,0 0.23699,-0.04841 0.322105,-0.134152 0.08575,-0.08511 0.134152,-0.201237 0.134152,-0.322105 0,-0.120868 -0.04841,-0.236674 -0.134152,-0.322104 l -1.283688,-1.283688 1.283688,-1.283688 c 0.175924,-0.176872 0.175924,-0.462583 0,-0.639455 -0.08512,-0.08606 -0.201236,-0.134152 -0.322105,-0.134152 -0.120868,0 -0.236989,0.04809 -0.322104,0.134152 L 9.5299068,21.57866 8.2326108,20.281364 C 8.0525721,20.127278 7.7842596,20.137403 7.6168812,20.305095 7.4491869,20.472789 7.4390619,20.740786 7.5931506,20.920824 L 8.8768387,22.204512 7.5931506,23.4882 c -0.086062,0.08543 -0.1341521,0.201237 -0.1341521,0.322105 0,0.120868 0.048094,0.23699 0.1341521,0.322104 z"
       id="path104"
       style="stroke-width:0.081;fill:#418fde;fill-opacity:1" />
    <path
       d="m 25.922653,30.296528 c -0.841995,0 -1.649727,0.334441 -2.245239,0.92988 -0.59548,0.59548 -0.92988,1.40292 -0.92988,2.245239 0,0.841995 0.334441,1.649727 0.92988,2.245239 0.595479,0.59548 1.403244,0.92988 2.245239,0.92988 0.842238,0 1.649727,-0.334441 2.245239,-0.92988 0.595479,-0.59548 0.930204,-1.403244 0.930204,-2.245239 0,-0.842238 -0.334757,-1.649727 -0.930204,-2.245239 -0.59548,-0.59548 -1.40292,-0.92988 -2.245239,-0.92988 z m 0,5.443119 c -0.60149,0 -1.178307,-0.238885 -1.603557,-0.664451 -0.42525,-0.42525 -0.664451,-1.002051 -0.664451,-1.603557 0,-0.60149 0.239201,-1.178307 0.664451,-1.603881 0.42525,-0.42525 1.002051,-0.664135 1.603557,-0.664135 0.60149,0 1.178631,0.238885 1.603881,0.664135 0.42525,0.425566 0.664135,1.002375 0.664135,1.603881 0,0.60149 -0.238885,1.178307 -0.664135,1.603557 -0.42525,0.425566 -1.002375,0.664451 -1.603881,0.664451 z"
       id="path106"
       style="stroke-width:0.081;fill:#418fde;fill-opacity:1" />
  </g>
</svg>
