<?xml version="1.0" encoding="UTF-8" standalone="no"?>
<svg
   width="50pt"
   height="50pt"
   version="1.1"
   viewBox="0 0 50 50"
   id="svg182"
   sodipodi:docname="noun-dashboard-4582485.svg"
   inkscape:version="1.1.1 (3bf5ae0d25, 2021-09-20)"
   xmlns:inkscape="http://www.inkscape.org/namespaces/inkscape"
   xmlns:sodipodi="http://sodipodi.sourceforge.net/DTD/sodipodi-0.dtd"
   xmlns="http://www.w3.org/2000/svg"
   xmlns:svg="http://www.w3.org/2000/svg">
  <sodipodi:namedview
     id="namedview184"
     pagecolor="#ffffff"
     bordercolor="#666666"
     borderopacity="1.0"
     inkscape:pageshadow="2"
     inkscape:pageopacity="0.0"
     inkscape:pagecheckerboard="0"
     inkscape:document-units="pt"
     showgrid="false"
     width="50pt"
     inkscape:zoom="9.8429264"
     inkscape:cx="20.115969"
     inkscape:cy="35.609329"
     inkscape:window-width="1920"
     inkscape:window-height="1001"
     inkscape:window-x="1271"
     inkscape:window-y="-9"
     inkscape:window-maximized="1"
     inkscape:current-layer="svg182" />
  <defs
     id="defs68">
    <symbol
       id="v"
       overflow="visible">
      <path
         d="M 4.6406,-0.28125 C 4.39841,-0.15625 4.14841,-0.0625 3.8906,0 3.6406,0.0625 3.37498,0.09375 3.09372,0.09375 c -0.84375,0 -1.5156,-0.23438 -2.0156,-0.70312 -0.49219,-0.46875 -0.73438,-1.1094 -0.73438,-1.9219 0,-0.80078 0.24219,-1.4375 0.73438,-1.9062 0.5,-0.47656 1.1719,-0.71875 2.0156,-0.71875 0.28125,0 0.54688,0.039062 0.79688,0.10938 0.25781,0.0625 0.50781,0.15625 0.75,0.28125 v 1.0469 C 4.39841,-3.88275 4.16013,-4.00385 3.92185,-4.07807 c -0.23047,-0.082031 -0.47656,-0.125 -0.73438,-0.125 -0.46094,0 -0.82422,0.15234 -1.0938,0.45312 -0.27344,0.29297 -0.40625,0.69922 -0.40625,1.2188 0,0.53125 0.13281,0.94922 0.40625,1.25 0.26953,0.29297 0.63281,0.4375 1.0938,0.4375 0.25781,0 0.50391,-0.035156 0.73438,-0.10938 0.23828,-0.082031 0.47656,-0.20703 0.71875,-0.375 z"
         id="path2" />
    </symbol>
    <symbol
       id="d"
       overflow="visible">
      <path
         d="M 3.4062,-2.7656 C 3.28901,-2.804663 3.17964,-2.835913 3.07808,-2.85935 2.97261,-2.8906 2.86714,-2.906225 2.76558,-2.906225 c -0.3125,0 -0.55469,0.10156 -0.71875,0.29688 -0.16797,0.19922 -0.25,0.48438 -0.25,0.85938 v 1.75 h -1.2188 v -3.7969 h 1.2188 v 0.625 c 0.15625,-0.25 0.33203,-0.42969 0.53125,-0.54688 0.20703,-0.11328 0.45312,-0.17188 0.73438,-0.17188 0.039062,0 0.082031,0.00781 0.125,0.015625 0.050781,0 0.11719,0.00781 0.20312,0.015625 z"
         id="path5" />
    </symbol>
    <symbol
       id="b"
       overflow="visible">
      <path
         d="m 4.375,-1.9062 v 0.34375 H 1.5312 c 0.03125,0.28125 0.13281,0.49609 0.3125,0.64062 0.17578,0.14844 0.42188,0.21875 0.73438,0.21875 0.25781,0 0.51953,-0.035156 0.78125,-0.10938 0.26953,-0.082031 0.54688,-0.20312 0.82812,-0.35938 v 0.9375 c -0.28125,0.11719 -0.57031,0.19922 -0.85938,0.25 -0.28125,0.050781 -0.57031,0.078125 -0.85938,0.078125 -0.6875,0 -1.2266,-0.17188 -1.6094,-0.51562 -0.375,-0.35156 -0.5625,-0.84375 -0.5625,-1.4688 0,-0.62505 0.1875,-1.1133 0.5625,-1.4688 0.375,-0.35156 0.89062,-0.53125 1.5469,-0.53125 0.59375,0 1.0664,0.18359 1.4219,0.54688 0.36328,0.35547 0.54688,0.83594 0.54688,1.4375 z m -1.25,-0.40625 c 0,-0.22656 -0.070312,-0.41016 -0.20312,-0.54688 -0.13672,-0.14453 -0.3125,-0.21875 -0.53125,-0.21875 -0.23047,0 -0.41797,0.070313 -0.5625,0.20312 -0.14844,0.125 -0.24219,0.3125 -0.28125,0.5625 z"
         id="path8" />
    </symbol>
    <symbol
       id="l"
       overflow="visible">
      <path
         d="m 2.2812,-1.7031 c -0.25,0 -0.44531,0.042969 -0.57812,0.125 -0.125,0.085937 -0.1875,0.21094 -0.1875,0.375 0,0.15625 0.050781,0.28125 0.15625,0.375 0.10156,0.085937 0.25,0.125 0.4375,0.125 0.22656,0 0.41406,-0.082031 0.5625,-0.25 0.15625,-0.16406 0.23438,-0.36719 0.23438,-0.60938 V -1.7031 Z M 4.1406,-2.17185 V 5e-5 H 2.9062 v -0.5625 c -0.15625,0.23047 -0.33984,0.39844 -0.54688,0.5 C 2.1601,0.03911 1.91401,0.0938 1.62494,0.0938 1.2265,0.0938 0.90619,-0.01948 0.65619,-0.24995 0.414,-0.47651 0.29681,-0.77339 0.29681,-1.14057 c 0,-0.44531 0.14844,-0.76953 0.45312,-0.96875 0.3125,-0.20703 0.79688,-0.3125 1.4531,-0.3125 H 2.90615 V -2.5312 c 0,-0.1875 -0.078125,-0.32031 -0.23438,-0.40625 -0.14844,-0.09375 -0.375,-0.14062 -0.6875,-0.14062 -0.26172,0 -0.50781,0.027344 -0.73438,0.078125 -0.21875,0.054688 -0.42969,0.13281 -0.625,0.23438 v -0.92188 c 0.25781,-0.0625 0.51953,-0.10938 0.78125,-0.14062 0.26953,-0.039063 0.53516,-0.0625 0.79688,-0.0625 0.67578,0 1.1641,0.13672 1.4688,0.40625 0.3125,0.27344 0.46875,0.71094 0.46875,1.3125 z"
         id="path11" />
    </symbol>
    <symbol
       id="a"
       overflow="visible">
      <path
         d="m 1.9062,-4.875 v 1.0781 h 1.25 v 0.875 h -1.25 v 1.6094 c 0,0.17969 0.03125,0.29688 0.09375,0.35938 0.070312,0.054687 0.21094,0.078125 0.42188,0.078125 h 0.625 V 5e-6 h -1.0312 c -0.48047,0 -0.82422,-0.097656 -1.0312,-0.29688 -0.19922,-0.19531 -0.29688,-0.53516 -0.29688,-1.0156 v -1.6094 H 0.0938 v -0.875 h 0.59375 v -1.0781 z"
         id="path14" />
    </symbol>
    <symbol
       id="f"
       overflow="visible">
      <path
         d="M 3.1562,-3.2344 V -5.2656 H 4.3906 V 0 H 3.1562 V -0.54688 C 2.98823,-0.32813 2.80464,-0.16407 2.60932,-0.0625 2.4101,0.03906 2.17573,0.09375 1.9062,0.09375 c -0.46094,0 -0.83984,-0.17969 -1.1406,-0.54688 -0.30469,-0.375 -0.45312,-0.85156 -0.45312,-1.4375 0,-0.58203 0.14844,-1.0625 0.45312,-1.4375 0.30078,-0.375 0.67969,-0.5625 1.1406,-0.5625 0.26953,0 0.50391,0.054687 0.70312,0.15625 0.19531,0.10547 0.37891,0.27344 0.54688,0.5 z m -0.79688,2.4531 c 0.25781,0 0.45703,-0.09375 0.59375,-0.28125 0.13281,-0.19531 0.20312,-0.47266 0.20312,-0.82812 0,-0.36328 -0.070312,-0.64062 -0.20312,-0.82812 -0.13672,-0.1875 -0.33594,-0.28125 -0.59375,-0.28125 -0.25,0 -0.44922,0.09375 -0.59375,0.28125 -0.13672,0.1875 -0.20312,0.46484 -0.20312,0.82812 0,0.35547 0.066406,0.63281 0.20312,0.82812 0.14453,0.1875 0.34375,0.28125 0.59375,0.28125 z"
         id="path17" />
    </symbol>
    <symbol
       id="k"
       overflow="visible">
      <path
         d="m 2.6094,-0.78125 c 0.25,0 0.44141,-0.09375 0.57812,-0.28125 0.14453,-0.19531 0.21875,-0.47266 0.21875,-0.82812 0,-0.36328 -0.074219,-0.64062 -0.21875,-0.82812 C 3.0508,-2.90624 2.8594,-2.99999 2.6094,-2.99999 c -0.26172,0 -0.46484,0.09375 -0.60938,0.28125 -0.13672,0.1875 -0.20312,0.46484 -0.20312,0.82812 0,0.35547 0.066406,0.63281 0.20312,0.82812 0.14453,0.1875 0.34766,0.28125 0.60938,0.28125 z m -0.8125,-2.4531 c 0.16406,-0.22656 0.34766,-0.39453 0.54688,-0.5 0.20703,-0.10156 0.44141,-0.15625 0.70312,-0.15625 0.46875,0 0.85156,0.1875 1.1562,0.5625 0.30078,0.375 0.45312,0.85547 0.45312,1.4375 0,0.58594 -0.15234,1.0625 -0.45312,1.4375 C 3.89841,-0.08591 3.5156,0.09378 3.0469,0.09378 2.78518,0.09378 2.55081,0.039092 2.34378,-0.06247 2.14456,-0.16403 1.96097,-0.32809 1.7969,-0.54685 V 3e-5 H 0.5781 v -5.2656 h 1.2188 z"
         id="path20" />
    </symbol>
    <symbol
       id="e"
       overflow="visible">
      <path
         d="m 0.078125,-3.7969 h 1.2188 l 1.0156,2.5781 0.875,-2.5781 h 1.2031 l -1.5938,4.1562 c -0.15625,0.42578 -0.34375,0.72266 -0.5625,0.89062 -0.21094,0.16406 -0.49219,0.25 -0.84375,0.25 H 0.687455 V 0.70304 h 0.39062 c 0.19531,0 0.34375,-0.039063 0.4375,-0.10938 0.09375,-0.0625 0.16406,-0.17969 0.21875,-0.34375 L 1.7812,0.14053 Z"
         id="path23" />
    </symbol>
    <symbol
       id="j"
       overflow="visible">
      <path
         d="M 3.7031,-0.92188 H 1.6719 L 1.34378,0 h -1.3125 l 1.875,-5.0625 h 1.5625 L 5.32818,0 h -1.2969 z m -1.7188,-0.9375 h 1.3906 l -0.6875,-2.0156 z"
         id="path26" />
    </symbol>
    <symbol
       id="i"
       overflow="visible">
      <path
         d="m 4.0938,-3.1562 c 0.15625,-0.23828 0.33594,-0.42188 0.54688,-0.54688 0.21875,-0.125 0.45312,-0.1875 0.70312,-0.1875 0.4375,0 0.76953,0.13672 1,0.40625 0.22656,0.27344 0.34375,0.66406 0.34375,1.1719 V 7e-5 h -1.2344 v -1.9844 c 0.00781,-0.019531 0.015625,-0.046875 0.015625,-0.078125 v -0.14062 c 0,-0.26953 -0.042969,-0.46094 -0.125,-0.57812 -0.074219,-0.125 -0.19922,-0.1875 -0.375,-0.1875 -0.23047,0 -0.40625,0.09375 -0.53125,0.28125 -0.125,0.1875 -0.19531,0.46484 -0.20312,0.82812 v 1.8594 h -1.2188 v -1.9844 c 0,-0.41406 -0.039063,-0.67969 -0.10938,-0.79688 -0.074219,-0.125 -0.19922,-0.1875 -0.375,-0.1875 -0.24219,0 -0.42188,0.10156 -0.54688,0.29688 -0.125,0.1875 -0.1875,0.46094 -0.1875,0.8125 v 1.8594 h -1.2188 v -3.7969 h 1.2188 v 0.5625 c 0.14453,-0.21875 0.3125,-0.37891 0.5,-0.48438 0.19531,-0.11328 0.41406,-0.17188 0.65625,-0.17188 0.25781,0 0.48828,0.070313 0.6875,0.20312 0.19531,0.125 0.34766,0.30469 0.45312,0.53125 z"
         id="path29" />
    </symbol>
    <symbol
       id="h"
       overflow="visible">
      <path
         d="M 4.3906,-2.3125 V 0 H 3.1718 v -1.7656 c 0,-0.33203 -0.00781,-0.55469 -0.015625,-0.67188 C 3.144456,-2.56248 3.117113,-2.65623 3.07805,-2.71873 3.035081,-2.800761 2.97258,-2.86326 2.89055,-2.90623 2.804613,-2.945292 2.71086,-2.96873 2.6093,-2.96873 c -0.25,0 -0.44922,0.10156 -0.59375,0.29688 -0.14844,0.1875 -0.21875,0.46094 -0.21875,0.8125 V 5e-5 H 0.578 v -5.2656 h 1.2188 v 2.0312 c 0.17578,-0.22656 0.36719,-0.39453 0.57812,-0.5 0.20703,-0.10156 0.4375,-0.15625 0.6875,-0.15625 0.4375,0 0.76562,0.13672 0.98438,0.40625 0.22656,0.27344 0.34375,0.66406 0.34375,1.1719 z"
         id="path32" />
    </symbol>
    <symbol
       id="u"
       overflow="visible">
      <path
         d="m 3.5469,-3.6719 v 0.92188 c -0.26172,-0.11328 -0.51172,-0.19531 -0.75,-0.25 -0.24219,-0.050781 -0.46875,-0.078125 -0.6875,-0.078125 -0.23047,0 -0.40234,0.03125 -0.51562,0.09375 -0.11719,0.054687 -0.17188,0.13672 -0.17188,0.25 0,0.10547 0.039063,0.18359 0.125,0.23438 0.09375,0.054688 0.25,0.089844 0.46875,0.10938 l 0.20312,0.03125 c 0.625,0.085937 1.0391,0.21484 1.25,0.39062 0.21875,0.17969 0.32812,0.46094 0.32812,0.84375 0,0.40625 -0.15234,0.71484 -0.45312,0.92188 -0.29297,0.19922 -0.73438,0.29688 -1.3281,0.29688 -0.25,0 -0.51172,-0.023438 -0.78125,-0.0625 C 0.9727,-5e-6 0.70317,-0.054693 0.42192,-0.140635 v -0.92188 c 0.23828,0.11719 0.48438,0.20312 0.73438,0.26562 0.25781,0.0625 0.51953,0.09375 0.78125,0.09375 0.23828,0 0.41406,-0.03125 0.53125,-0.09375 0.125,-0.070313 0.1875,-0.17188 0.1875,-0.29688 0,-0.11328 -0.042969,-0.19531 -0.125,-0.25 -0.085938,-0.050781 -0.25,-0.09375 -0.5,-0.125 L 1.81255,-1.4844 C 1.2813,-1.554713 0.9063,-1.67971 0.68755,-1.8594 0.4688,-2.0469 0.35943,-2.32815 0.35943,-2.70315 c 0,-0.39453 0.13281,-0.69141 0.40625,-0.89062 0.28125,-0.19531 0.70703,-0.29688 1.2812,-0.29688 0.21875,0 0.44531,0.023437 0.6875,0.0625 0.25,0.03125 0.51953,0.085937 0.8125,0.15625 z"
         id="path35" />
    </symbol>
    <symbol
       id="t"
       overflow="visible">
      <path
         d="m 4.1562,-4.8906 v 1.0625 C 3.87495,-3.9531 3.60151,-4.04685 3.3437,-4.10935 3.08198,-4.17185 2.83198,-4.2031 2.5937,-4.2031 c -0.3125,0 -0.54297,0.042969 -0.6875,0.125 -0.14844,0.085937 -0.21875,0.21875 -0.21875,0.40625 0,0.13672 0.046875,0.24219 0.14062,0.3125 0.10156,0.074219 0.28516,0.14062 0.54688,0.20312 l 0.5625,0.10938 c 0.5625,0.11719 0.95703,0.28906 1.1875,0.51562 0.23828,0.23047 0.35938,0.55469 0.35938,0.96875 0,0.5625 -0.16797,0.98047 -0.5,1.25 C 3.66011,-0.03904 3.15621,0.09377 2.46873,0.09377 2.15623,0.09377 1.83592,0.06252 1.51561,2e-5 1.19139,-0.050761 0.86717,-0.1406 0.54686,-0.2656 v -1.0938 c 0.32031,0.16797 0.63281,0.29688 0.9375,0.39062 0.30078,0.085938 0.58594,0.125 0.85938,0.125 0.28906,0 0.50781,-0.046875 0.65625,-0.14062 0.15625,-0.09375 0.23438,-0.22656 0.23438,-0.40625 0,-0.15625 -0.054687,-0.27344 -0.15625,-0.35938 C 2.97265,-1.84378 2.76953,-1.92191 2.46874,-1.98441 l -0.51562,-0.125 c -0.5,-0.10156 -0.87109,-0.27344 -1.1094,-0.51562 -0.23047,-0.23828 -0.34375,-0.55469 -0.34375,-0.95312 0,-0.50781 0.16016,-0.89844 0.48438,-1.1719 0.32031,-0.26953 0.78906,-0.40625 1.4062,-0.40625 0.28125,0 0.56641,0.023438 0.85938,0.0625 0.28906,0.042969 0.59375,0.10938 0.90625,0.20312 z"
         id="path38" />
    </symbol>
    <symbol
       id="g"
       overflow="visible">
      <path
         d="m 0.54688,-1.4844 v -2.3125 h 1.2188 v 0.375 c 0,0.21094 -0.00781,0.46875 -0.015625,0.78125 v 0.625 c 0,0.30469 0.00391,0.52344 0.015625,0.65625 0.019531,0.13672 0.050781,0.23438 0.09375,0.29688 0.050781,0.074219 0.11328,0.13672 0.1875,0.1875 0.082031,0.042969 0.17578,0.0625 0.28125,0.0625 0.25,0 0.44531,-0.097656 0.59375,-0.29688 0.14453,-0.19531 0.21875,-0.46875 0.21875,-0.8125 v -1.875 h 1.2188 V 0 H 3.14068 V -0.54688 C 2.96099,-0.32813 2.76959,-0.16407 2.56256,-0.0625 2.35162,0.03906 2.12897,0.09375 1.89068,0.09375 c -0.4375,0 -0.77344,-0.12891 -1,-0.39062 C 0.66021,-0.5664 0.54693,-0.96093 0.54693,-1.48437 Z"
         id="path41" />
    </symbol>
    <symbol
       id="s"
       overflow="visible">
      <path
         d="m 0.57812,-3.7969 h 1.2188 V 0 h -1.2188 z m 0,-1.4688 h 1.2188 v 0.98438 h -1.2188 z"
         id="path44" />
    </symbol>
    <symbol
       id="c"
       overflow="visible">
      <path
         d="m 2.3906,-3.0156 c -0.27344,0 -0.48047,0.10156 -0.625,0.29688 -0.13672,0.1875 -0.20312,0.46484 -0.20312,0.82812 0,0.36719 0.066406,0.64844 0.20312,0.84375 0.14453,0.1875 0.35156,0.28125 0.625,0.28125 0.25781,0 0.45703,-0.09375 0.59375,-0.28125 C 3.12888,-1.24216 3.2031,-1.52341 3.2031,-1.8906 3.2031,-2.25388 3.128881,-2.53122 2.98435,-2.71872 2.84763,-2.91403 2.64841,-3.0156 2.3906,-3.0156 Z m 0,-0.875 c 0.64453,0 1.1484,0.17969 1.5156,0.53125 0.375,0.35547 0.5625,0.84375 0.5625,1.4688 0,0.62505 -0.1875,1.1172 -0.5625,1.4688 -0.36719,0.34375 -0.87109,0.51562 -1.5156,0.51562 -0.65625,0 -1.1719,-0.17188 -1.5469,-0.51562 -0.36719,-0.35156 -0.54688,-0.84375 -0.54688,-1.4688 0,-0.62505 0.17969,-1.1133 0.54688,-1.4688 0.375,-0.35156 0.89062,-0.53125 1.5469,-0.53125 z"
         id="path47" />
    </symbol>
    <symbol
       id="r"
       overflow="visible">
      <path
         d="m 3.0781,-5.2656 v 0.79688 H 2.40622 c -0.16797,0 -0.28906,0.03125 -0.35938,0.09375 -0.0625,0.0625 -0.09375,0.16797 -0.09375,0.3125 v 0.26562 h 1.0312 v 0.875 H 1.95309 V 5e-5 h -1.2188 v -2.9219 H 0.12491 v -0.875 h 0.60938 v -0.26562 c 0,-0.40625 0.11328,-0.70703 0.34375,-0.90625 0.22656,-0.19531 0.58594,-0.29688 1.0781,-0.29688 z"
         id="path50" />
    </symbol>
    <symbol
       id="q"
       overflow="visible">
      <path
         d="m 0.64062,-5.0625 h 1.4531 l 1.8438,3.4688 v -3.4688 h 1.2344 V 0 H 3.71882 L 1.87502,-3.4688 V 0 h -1.2344 z"
         id="path53" />
    </symbol>
    <symbol
       id="p"
       overflow="visible">
      <path
         d="M 4.3906,-2.3125 V 0 H 3.1718 v -1.7656 c 0,-0.33203 -0.00781,-0.55469 -0.015625,-0.67188 C 3.144456,-2.56248 3.117113,-2.65623 3.07805,-2.71873 3.035081,-2.800761 2.97258,-2.86326 2.89055,-2.90623 2.804613,-2.945292 2.71086,-2.96873 2.6093,-2.96873 c -0.25,0 -0.44922,0.10156 -0.59375,0.29688 -0.14844,0.1875 -0.21875,0.46094 -0.21875,0.8125 V 5e-5 H 0.578 v -3.7969 h 1.2188 v 0.5625 c 0.17578,-0.22656 0.36719,-0.39453 0.57812,-0.5 0.20703,-0.10156 0.4375,-0.15625 0.6875,-0.15625 0.4375,0 0.76562,0.13672 0.98438,0.40625 0.22656,0.27344 0.34375,0.66406 0.34375,1.1719 z"
         id="path56" />
    </symbol>
    <symbol
       id="o"
       overflow="visible">
      <path
         d="m 0.64062,-5.0625 h 2.1562 c 0.64453,0 1.1406,0.14844 1.4844,0.4375 0.34375,0.28125 0.51562,0.6875 0.51562,1.2188 0,0.5313 -0.17188,0.94531 -0.51562,1.2344 -0.34375,0.28125 -0.83984,0.42188 -1.4844,0.42188 H 1.93744 v 1.75 h -1.2969 z m 1.2969,0.95312 v 1.4062 h 0.71875 c 0.25781,0 0.45703,-0.054687 0.59375,-0.17188 0.13281,-0.125 0.20312,-0.30078 0.20312,-0.53125 0,-0.22656 -0.070313,-0.39844 -0.20312,-0.51562 -0.13672,-0.125 -0.33594,-0.1875 -0.59375,-0.1875 z"
         id="path59" />
    </symbol>
    <symbol
       id="n"
       overflow="visible">
      <path
         d="m 0.57812,-3.7969 h 1.2188 v 3.7344 c 0,0.5 -0.125,0.88281 -0.375,1.1562 C 1.17973,1.36323 0.83208,1.49995 0.37502,1.49995 H -0.23436 V 0.70307 h 0.21875 c 0.22656,0 0.38281,-0.054687 0.46875,-0.15625 0.082031,-0.10547 0.125,-0.30859 0.125,-0.60938 z m 0,-1.4688 h 1.2188 v 0.98438 h -1.2188 z"
         id="path62" />
    </symbol>
    <symbol
       id="m"
       overflow="visible">
      <path
         d="m 3.6406,-3.6719 v 0.98438 C 3.48435,-2.8008 3.32029,-2.88283 3.15622,-2.93752 2.98825,-2.988301 2.81638,-3.015645 2.6406,-3.015645 c -0.34375,0 -0.60938,0.10156 -0.79688,0.29688 -0.1875,0.19922 -0.28125,0.47656 -0.28125,0.82812 0,0.35547 0.09375,0.63281 0.28125,0.82812 0.1875,0.19922 0.45312,0.29688 0.79688,0.29688 0.1875,0 0.36328,-0.023437 0.53125,-0.078125 0.17578,-0.0625 0.33203,-0.14844 0.46875,-0.26562 v 1 c -0.1875,0.074219 -0.38281,0.125 -0.57812,0.15625 -0.1875,0.03125 -0.38281,0.046875 -0.57812,0.046875 -0.6875,0 -1.2266,-0.17188 -1.6094,-0.51562 -0.38672,-0.35156 -0.57812,-0.84375 -0.57812,-1.4688 0,-0.62505 0.19141,-1.1133 0.57812,-1.4688 0.38281,-0.35156 0.92188,-0.53125 1.6094,-0.53125 0.19531,0 0.39062,0.023437 0.57812,0.0625 0.19531,0.03125 0.39062,0.085937 0.57812,0.15625 z"
         id="path65" />
    </symbol>
  </defs>
  <g
     id="g1225"
     style="fill:#418fde;fill-opacity:1">
    <path
       d="M 45.628013,6.7750513 H 4.3724458 c -1.2878587,0 -2.3358472,1.0479885 -2.3358472,2.3358472 V 40.889102 c 0,1.288121 1.0479885,2.335847 2.3358472,2.335847 H 45.627357 c 1.288121,0 2.336044,-1.047726 2.336044,-2.335847 V 9.1108985 c 0,-1.2878587 -1.047988,-2.3358472 -2.335847,-2.3358472 z M 4.3724458,7.5041752 H 45.627357 c 0.88626,0 1.607183,0.7206602 1.607183,1.6066577 V 12.801396 H 2.7653945 V 9.1108329 c 0,-0.8859975 0.7209226,-1.6066577 1.6069201,-1.6066577 z M 45.628013,42.495957 H 4.3724458 c -0.8859974,0 -1.6069201,-0.720923 -1.6069201,-1.60692 V 13.530323 H 47.234671 v 27.358714 c 2.62e-4,0.885997 -0.72066,1.60692 -1.606658,1.60692 z"
       id="path70"
       style="stroke-width:0.06561;fill:#418fde;fill-opacity:1" />
    <path
       d="m 44.798144,12.130207 c 0.823996,0 1.494399,-0.670469 1.494399,-1.494399 0,-0.8239963 -0.670468,-1.4943992 -1.494399,-1.4943992 -0.823995,0 -1.494398,0.6702061 -1.494398,1.4943992 0,0.823996 0.670206,1.494399 1.494398,1.494399 z m 0,-2.2599368 c 0.422109,0 0.765538,0.3434288 0.765538,0.7652748 0,0.422109 -0.343429,0.765538 -0.765538,0.765538 -0.422108,0 -0.765537,-0.343429 -0.765537,-0.765538 0,-0.421852 0.343429,-0.7652748 0.765537,-0.7652748 z"
       id="path72"
       style="stroke-width:0.06561;fill:#418fde;fill-opacity:1" />
    <path
       d="m 40.654873,12.130207 c 0.823996,0 1.494399,-0.670469 1.494399,-1.494399 0,-0.8239963 -0.670469,-1.4943992 -1.494399,-1.4943992 -0.82393,0 -1.494399,0.6702061 -1.494399,1.4943992 0,0.823996 0.670469,1.494399 1.494399,1.494399 z m 0,-2.2599368 c 0.422108,0 0.765537,0.3434288 0.765537,0.7652748 0,0.422109 -0.343429,0.765538 -0.765537,0.765538 -0.422108,0 -0.765537,-0.343429 -0.765537,-0.765538 0,-0.421852 0.343429,-0.7652748 0.765537,-0.7652748 z"
       id="path74"
       style="stroke-width:0.06561;fill:#418fde;fill-opacity:1" />
    <path
       d="m 36.511601,12.130207 c 0.823996,0 1.494399,-0.670469 1.494399,-1.494399 0,-0.8239963 -0.670468,-1.4943992 -1.494399,-1.4943992 -0.82393,0 -1.494398,0.6702061 -1.494398,1.4943992 0,0.823996 0.670468,1.494399 1.494398,1.494399 z m 0,-2.2599368 c 0.422109,0 0.765538,0.3434288 0.765538,0.7652748 0,0.422109 -0.343429,0.765538 -0.765538,0.765538 -0.422108,0 -0.765537,-0.343429 -0.765537,-0.765538 0,-0.421852 0.343429,-0.7652748 0.765537,-0.7652748 z"
       id="path76"
       style="stroke-width:0.06561;fill:#418fde;fill-opacity:1" />
    <path
       d="m 18.445232,27.463985 c 0.106872,-0.106616 0.133529,-0.263463 0.07996,-0.394939 -0.01768,-0.04383 -0.04459,-0.08509 -0.08022,-0.120453 L 13.912768,22.41586 v -6.410031 c 0,-0.201187 -0.163257,-0.364444 -0.364443,-0.364444 -3.8186993,0 -6.9251359,3.106765 -6.9251359,6.925135 0,3.18799 2.1659173,5.878263 5.1029489,6.680411 v 2.432162 h -3.2805 c -0.2011865,0 -0.3644438,0.163258 -0.3644438,0.364444 0,0.201187 0.1632573,0.364444 0.3644438,0.364444 h 3.644964 c 0.201186,0 0.364443,-0.163257 0.364443,-0.364444 v -2.638506 c 0.356499,0.0569 0.721448,0.08714 1.093588,0.08714 1.849874,0 3.589064,-0.720398 4.896934,-2.02853 z M 7.3518931,22.566789 c 0,-3.294343 2.5844435,-5.995376 5.8321389,-6.185054 v 6.185054 c 0,0.09662 0.03844,0.189397 0.106616,0.257828 l 4.373562,4.373563 c -1.135381,1.011312 -2.582868,1.565126 -4.115715,1.565126 -3.416837,0 -6.1965363,-2.779699 -6.1965363,-6.196536 z"
       id="path78"
       style="stroke-width:0.06561;fill:#418fde;fill-opacity:1" />
    <path
       d="m 19.023256,25.704325 c 0.07125,0.07125 0.164537,0.106872 0.257828,0.106872 0.09329,0 0.186581,-0.03562 0.257827,-0.106872 1.113336,-1.113336 1.726593,-2.593366 1.726593,-4.168006 0,-0.707867 -0.125584,-1.386799 -0.355475,-2.016196 l 0.824718,-0.962367 h 3.47733 c 0.201186,0 0.364444,-0.163257 0.364444,-0.364444 0,-0.201186 -0.163258,-0.364444 -0.364444,-0.364444 h -3.644964 c -0.10636,0 -0.207596,0.04639 -0.276795,0.12712 l -0.709376,0.827801 C 19.590363,16.916988 17.62718,15.64166 15.37059,15.64166 c -0.201187,0 -0.364444,0.163258 -0.364444,0.364444 v 5.530202 c 0,0.09662 0.03844,0.189396 0.106616,0.257827 z M 15.73508,16.383112 c 2.678725,0.187606 4.801077,2.427046 4.801077,5.152944 0,1.257613 -0.446456,2.446532 -1.264305,3.385804 L 15.73508,21.385088 Z"
       id="path80"
       style="stroke-width:0.06561;fill:#418fde;fill-opacity:1" />
    <path
       d="M 10.996529,33.502074 H 7.3515651 c -0.2011866,0 -0.3644439,0.163257 -0.3644439,0.364444 0,0.201186 0.1632573,0.364443 0.3644439,0.364443 h 3.6449639 c 0.201186,0 0.364443,-0.163257 0.364443,-0.364443 2.63e-4,-0.201187 -0.163001,-0.364444 -0.364443,-0.364444 z"
       id="path82"
       style="stroke-width:0.06561;fill:#418fde;fill-opacity:1" />
    <path
       d="m 22.295883,20.015282 c 0,0.201187 0.163257,0.364444 0.364444,0.364444 h 3.2805 c 0.201186,0 0.364444,-0.163257 0.364444,-0.364444 0,-0.201186 -0.163258,-0.364444 -0.364444,-0.364444 h -3.2805 c -0.201187,-2.62e-4 -0.364444,0.163002 -0.364444,0.364444 z"
       id="path84"
       style="stroke-width:0.06561;fill:#418fde;fill-opacity:1" />
    <path
       d="M 43.072601,28.034792 H 28.492747 V 16.735438 c 0,-0.201186 -0.163257,-0.364444 -0.364444,-0.364444 -0.201186,0 -0.364443,0.163258 -0.364443,0.364444 v 11.664146 c 0,0.201187 0.163257,0.364444 0.364443,0.364444 h 14.944646 c 0.201187,0 0.364444,-0.163257 0.364444,-0.364444 0,-0.201187 -0.163257,-0.364444 -0.364444,-0.364444 z"
       id="path86"
       style="stroke-width:0.06561;fill:#418fde;fill-opacity:1" />
    <path
       d="m 42.343674,17.828501 c -0.603047,0 -1.093587,0.49054 -1.093587,1.093587 0,0.215024 0.0633,0.415187 0.170691,0.584336 l -2.736921,3.48376 c -0.109949,-0.03768 -0.22707,-0.05869 -0.349577,-0.05869 -0.229635,0 -0.442612,0.0715 -0.618683,0.192729 l -2.342998,-1.704088 c 0.02947,-0.09867 0.04562,-0.203241 0.04562,-0.311392 0,-0.603048 -0.49054,-1.093588 -1.093587,-1.093588 -0.603048,0 -1.093588,0.49054 -1.093588,1.093588 0,0.187093 0.04741,0.363164 0.130452,0.517446 l -2.258165,2.483929 c -0.130452,-0.0551 -0.273462,-0.0856 -0.423643,-0.0856 -0.603048,0 -1.093588,0.49054 -1.093588,1.093587 0,0.603048 0.49054,1.093588 1.093588,1.093588 0.603047,0 1.093587,-0.49054 1.093587,-1.093588 0,-0.187093 -0.04741,-0.363164 -0.130452,-0.517446 l 2.258165,-2.483929 c 0.130452,0.0551 0.273462,0.0856 0.423644,0.0856 0.229635,0 0.442611,-0.0715 0.618682,-0.192729 l 2.342999,1.704089 c -0.02922,0.09867 -0.04562,0.202984 -0.04562,0.311135 0,0.603048 0.490539,1.093588 1.093587,1.093588 0.603048,0 1.093588,-0.49054 1.093588,-1.093588 0,-0.215023 -0.0633,-0.415186 -0.170691,-0.584335 l 2.736921,-3.483498 c 0.109949,0.03716 0.227325,0.05843 0.349832,0.05843 0.603048,0 1.093588,-0.49054 1.093588,-1.093588 -2.63e-4,-0.602792 -0.490796,-1.093325 -1.09385,-1.093325 z m -11.664145,7.654062 c -0.200931,0 -0.364444,-0.163513 -0.364444,-0.364443 0,-0.200931 0.163513,-0.364444 0.364444,-0.364444 0.20093,0 0.364443,0.163513 0.364443,0.364444 2.63e-4,0.20093 -0.163257,0.364443 -0.364443,0.364443 z m 3.2805,-4.373825 c 0,-0.20093 0.163513,-0.364444 0.364443,-0.364444 0.200931,0 0.364444,0.163514 0.364444,0.364444 0,0.200931 -0.163513,0.364444 -0.364444,0.364444 -0.20093,0 -0.364443,-0.163513 -0.364443,-0.364444 z m 4.374087,3.2805 c -0.200931,0 -0.364444,-0.163513 -0.364444,-0.364444 0,-0.20093 0.163513,-0.364443 0.364444,-0.364443 0.200931,0 0.364444,0.163513 0.364444,0.364443 0,0.200931 -0.163513,0.364444 -0.364444,0.364444 z m 4.009362,-5.103211 c -0.200931,0 -0.364444,-0.163513 -0.364444,-0.364444 0,-0.200931 0.163513,-0.364444 0.364444,-0.364444 0.20093,0 0.364443,0.163513 0.364443,0.364444 2.63e-4,0.201187 -0.163257,0.364444 -0.364443,0.364444 z"
       id="path88"
       style="stroke-width:0.06561;fill:#418fde;fill-opacity:1" />
    <path
       d="M 39.792101,32.043563 H 21.566956 c -0.201187,0 -0.364444,0.163258 -0.364444,0.364444 0,0.201187 0.163257,0.364444 0.364444,0.364444 h 18.225145 c 0.201187,0 0.364444,-0.163257 0.364444,-0.364444 0,-0.201186 -0.163257,-0.364444 -0.364444,-0.364444 z"
       id="path90"
       style="stroke-width:0.06561;fill:#418fde;fill-opacity:1" />
    <path
       d="m 17.92232,35.324063 c 0,0.201187 0.163258,0.364444 0.364444,0.364444 h 5.467413 c 0.201186,0 0.364443,-0.163257 0.364443,-0.364444 0,-0.201186 -0.163257,-0.364443 -0.364443,-0.364443 h -5.467413 c -0.201442,0 -0.364444,0.163257 -0.364444,0.364443 z"
       id="path92"
       style="stroke-width:0.06561;fill:#418fde;fill-opacity:1" />
    <path
       d="m 39.792101,34.959928 h -13.122 c -0.201186,0 -0.364443,0.163257 -0.364443,0.364444 0,0.201186 0.163257,0.364444 0.364443,0.364444 h 13.122 c 0.201187,0 0.364444,-0.163258 0.364444,-0.364444 0,-0.201187 -0.163257,-0.364444 -0.364444,-0.364444 z"
       id="path94"
       style="stroke-width:0.06561;fill:#418fde;fill-opacity:1" />
    <path
       d="M 39.792101,37.876292 H 18.286456 c -0.201187,0 -0.364444,0.163258 -0.364444,0.364444 0,0.201187 0.163257,0.364444 0.364444,0.364444 h 21.505645 c 0.201187,0 0.364444,-0.163257 0.364444,-0.364444 0,-0.201186 -0.163257,-0.364444 -0.364444,-0.364444 z"
       id="path96"
       style="stroke-width:0.06561;fill:#418fde;fill-opacity:1" />
  </g>
</svg>
